/* XPM */
static char *_e2ca2b9d07643e5bb9a206f0d465d35ODKFz3W7TNrBMxB7[] = {
/* columns rows colors chars-per-pixel */
"48 48 42 1 ",
"  c None",
". c #7E4207",
"X c #090500",
"o c #0D0601",
"O c #100901",
"+ c #120A01",
"@ c #140C01",
"# c #170E02",
"$ c #1B1102",
"% c #1A1203",
"& c #1F1504",
"* c #221805",
"= c #251B06",
"- c #2A1F09",
"; c #2F220B",
": c #30230A",
"> c #34260D",
", c #37280C",
"< c #36280D",
"1 c #382A0F",
"2 c #3A2C0E",
"3 c #3D2D0E",
"4 c #382A10",
"5 c #3F2F10",
"6 c #3F2F11",
"7 c #3D2E13",
"8 c #403112",
"9 c #413215",
"0 c #423315",
"q c #453516",
"w c #453618",
"e c #4A3919",
"r c #4A391B",
"t c #4D3D1D",
"y c #4E3D1D",
"u c #4F3E1D",
"i c #503E1D",
"p c #514020",
"a c #564422",
"s c #5C4926",
"d c #624E29",
"f c #6A552E",
/* pixels */
"                              5<8               ",
"                         y8riy750t              ",
"                     w55iaapw007wytrri          ",
"                    ytyyaapppr000ypppsy         ",
"                 5ysprwwtptpasaappyypap         ",
"                3w054>>>477wraasddsssay         ",
"           yrre51>;;;-=***-4470taasddsst        ",
"           yyy04=*%%#@##@O#&*-;4777rsddt        ",
"          5yw04;%+OOooOoooO+##%*=;;4ysyrwy      ",
"         3qr7-*&#+OOoXXoX..X+Ooo+%&=0p077508    ",
"         rwy>%%##+OOooooooXoXXXooo+@*74>44>48   ",
"         ypr-&&%%++@@@++OO@#+oXooo+#&;7>>>4>2   ",
"        5rp0-**&%%%%%%%&&%%%%+ooOO+%#=04>47><   ",
"        5rp7-==***&&&&&*=&*=&+ooo++#&*47774>4   ",
"        qaaw----==*===*&=&%&=%@+o@@+&*;ry0444   ",
"       0pdsw---;=***=-*&&&%%&%##+###%&-wsr444<  ",
"      2wtsdw=&&;=&**&***&%@#%#+%##@@#**4ssw4>5  ",
"      ,upasr;;===&*=**%%#+OO@@@%%#@@##*>pat751  ",
"       wasat;;=&*%*==&Oo+Ooooo+#%@+#%#*4papryi  ",
"      5tassa;%=&&&**&@oX...XooO@%#***&&>paaprw  ",
"      5tssddt=&&****%Oo.......o+@$--&=>wpaspwt  ",
"      6afffdft;&*=*&#oX.......Xo++O--=0tppapwi  ",
"     w7pfffdddp;*=*%+o..X..X...o+OO>t->wpaap0y  ",
"     67wadsddds4%%&#+O.........XOO#9prwwtpar0   ",
"     ewwrpppsds7*%%+Oo.........XoO&wttr0wwrw88  ",
"    50wtyppptprwr4=#OX.........XO+>trrprwrw548  ",
"    5wwtyrww77wpar-&%oXX.......@-4ttrpatrt0>>>  ",
" 5t520w0w74777wppy4=*o.XX.....X-wpatrpaptpw>4q  ",
"3< <5w04770wrptrtt7=&oXo++o...X>tptppasaaat401  ",
"  55w0w4>47wtpttptr4*%%&&&&&#o+-9ttttpssdda08331",
"  <wyww74;>7w777rpr4*&&&&%&&&%%=>0ttpppassp048  ",
" 8>4wr00777ww7>4wpt4%%&*&%%%%@%=;>wassapptt04<  ",
" 3:;44>574wrw7>>0rw4&&=----=*%&=>><wsdaastw075  ",
" 5<44<<44>40w04;4wp4*****-;;==*=>>47wppypr757   ",
"<3     5<;>>77>;:wa>**&%%&**&&*=-;470wrw7705    ",
"         <>:qq24>00-===%%&*&%%%&*-4>707470    <5",
"    i5   542     <<11:::=-==$###&=>:474>13    01",
"                        1q183,<<<5<4>44;:8      ",
"                                    52<283   y  ",
"88      <                                    5  ",
"   5                          53  25    5      <",
"   q5                   5r    5        35       ",
"                              8       5<        ",
"                                    3           ",
"2                                         8     ",
"                                                ",
"      80                    <                   ",
"       r                                        "
};
