/* XPM */
static char *_633e5be89684882d47deedc3b19134drsth7TyOXIWlIO8t[] = {
/* columns rows colors chars-per-pixel */
"60 60 56 1 ",
"  c None",
". c #0A0803",
"X c #0E0B04",
"o c #130E05",
"O c #171105",
"+ c #1A1307",
"@ c #1D1406",
"# c #1C1509",
"$ c #1F1709",
"% c #21190A",
"& c #261A09",
"* c #231B0C",
"= c #251D0D",
"- c #281F0D",
"; c #29200F",
": c #2B2210",
"> c #2E2411",
", c #322712",
"< c #322713",
"1 c #362A15",
"2 c #372B15",
"3 c #3B2E13",
"4 c #3F2F12",
"5 c #3B2E14",
"6 c #3B2E15",
"7 c #392D17",
"8 c #3C2E14",
"9 c #3C2F18",
"0 c #3F3117",
"q c #3F321A",
"w c #423215",
"e c #423317",
"r c #443417",
"t c #41341B",
"y c #443418",
"u c #443518",
"i c #43361D",
"p c #47381A",
"a c #46381F",
"s c #49391F",
"d c #4B3B1E",
"f c #4B3D21",
"g c #4F3F21",
"h c #4E3F22",
"j c #4E3F23",
"k c #4F4022",
"l c #504124",
"z c #524224",
"x c #534324",
"c c #544427",
"v c #564527",
"b c #574628",
"n c #5B4A2A",
"m c #614E2D",
"M c #665331",
"N c #705C35",
/* pixels */
"                                      07e                   ",
"                                  pjva77iz                  ",
"                          ry  xbmxjfittifjxr                ",
"                          dddjjxnxbfqtitijxvxjbj            ",
"                        ibjjjxbncccxkaqqqfxccjbM            ",
"                      xnmncfdfkxjjcnmnbnxfjfjjxnx           ",
"                     diait9777qfifijnmbnnmnbcnckv           ",
"                    yq7711<<<><<2qfidaxmMnMmMmbcb           ",
"             rkvjjfy<<<>><:=*%%#%-<777tajjxbnMMmnk          ",
"             zjfziq2>-%@%+O####++@#=;>277919dnMMmv          ",
"             jjasyt<%+OOOOOOOo+o++%##@*;>111qjnbffdk        ",
"             dft2>;=#+OOOoooooXXXXo+++oO+%=><ivzttaiivk     ",
"           y7ajq*##%#+OOOoXXooooXXoooooO++++#>ja797979te    ",
"           jfjc7**%##+OOOOOOoOO+OoooXXXoooO++%7t1177111e    ",
"           fzcf:==*%%+++##@++++++##+OoooooO#%%=qq<1119<,    ",
"           azvq:-==*%%#%**%%%*%%#%%%+oooOOO+%##ya111qq17    ",
"          yixc2>:--==******%*-;=*;-*@+oo++o+#%*;fq22q717    ",
"          yfjxq>>>:>::-::=;-*=:-**>;*++oo+++#=--9fff917q6   ",
"         yjbmbf:<<<>::--:--:*=;=@%%;**++o#%@#%=-1fbf97qq3   ",
"        7icmmni:>><<-=---->:=**=*%%**#+%+####%*->fncq792<   ",
"        0avnMmq:;==>;*=-==;;;-==@+**@+o%##%+##%==qmMbt996   ",
"        tjvvnni=::::>==-=*=*--%#OOo%*@+%%##++#%=:2cmci112   ",
"        0jxbnnk<<>:>>*=>>::%+O++OOooo+*%*@++#%#%=9xknxifj   ",
"         fbmmjj<:>=*=#*-::=OoOOOooO+oo+#*%O#%=%%*qncbjkjxp  ",
"        yjxnmmb<*>-*=*--==#+oX...XooOOO@#%*;*=*==2jbnckffe p",
"        9bnnmmMf-*-=-=--=%+OoXX...XX.oO+#%:9>*-;9flcnmffkr  ",
"        ybMMmMMNb-%==-:==%ooXXXXXXX..XoO++#o>;*7jjcljcjfjj  ",
"      rdqbNNNMmMMb>%=>>*%#+oXXoXXXoX.Xoo+ooo7f=<ffkcccjfd   ",
"     reiffMNNmmmmMn>=;-=%O+X.XXX.XoX..Xo+++#tjt>1fjjnnjfz   ",
"      p7yijmmnMMmmm1%***+O+o.XX...XX..Xoo@o&fjjjfjjfbnf9e  r",
"   y  paiifcjjxnmMb1++%%OO+X.XXX..XX..XooO+;fjfjf9fqfff9e   ",
"      7ijjicxzcxcnjidq--OOOX.XX...XX..XoO++7ffffjftffff96   ",
"     jdijzjkxxcffttjjj1=&+oXXXXX.......o+%>jgffsbjafiy2>2   ",
"     eiiijjfitq97tjnjnt-;-+XooXX.X....o*1fjbffbjbjfzkq22f9  ",
" pzjeeqtatai29qtttffjjj1;;+.XXoX.X.X..o1fjjmgfjbnjjkxq<9i7  ",
"3ep 9yffi7yittffjjffjjf7=;o.Xo+ooX....Otjjjjbjjmncbcbf2qi   ",
"     eiif11ftffjjnjjcjff>=%+&*****%oX.+<fjjfjjjbmnmmnxqe3wy3",
"   1fjqif9<<<9tfffftfjff7;-*--;%==--*%*>1fjjjjgbnmmmnxw7w r ",
"  39jvzft911;<qft779fjff1***%**%*%%*%+*><7fjjbjjjcbbnjq167  ",
" y<><izd7ft9ftfff717fcff1+**--*%%%#%++*;<<1fmmmmxxcfkjq1y   ",
"  >>17911ti2ijfiy911ixff1%=;;<<;<>;-%%*>111tfnMmbnmkfff97 r ",
"  ;>1qt911929ifdi91>2ffj7==;;>;<11<>:-=>111e1fjbkxnbf9qie  p",
" 33r7r0 7691199fii1><icn1=;;-%%=:><--->;111tttjjfiiq927p    ",
"e0        7<<<<1q71<<2xx--=%%%%%*%%#%=--;<1t7ttfji9q9y   3e ",
"r     z    e116ydy7e;2f2:::>-#%*--*#%#%=*;171ttt97yye    3d7",
"     dd     2ty      37<qq<<1;=----%++@#-;17<1tt7717p    ei3",
"     ep     6p          ww63637y9<&&@%@#@@29<11t1<2e    r   ",
"  rp                           ep    y     wt<771>6w        ",
"     e    3     e                              7w e6    dx  ",
"dy       37                          e                  r   ",
"                                      ee  3wy    33     p  y",
"    xy                        edf           r    e63        ",
"   rd0                               ry         6e   e      ",
"      0                              r3         9y6         ",
"                                             y              ",
"7r                                                   e    rr",
"r                                                 3         ",
"        ed                         p      y                 ",
"        ede                        er                       ",
"         y                                                  "
};
