/* XPM */
static char *ad802cd85f814839c2a902c4233a5b84Vodt24iYv0DebmwR[] = {
/* columns rows colors chars-per-pixel */
"48 48 145 2 ",
"   c None",
".  c #000307",
"X  c #000409",
"o  c #00080F",
"O  c #031823",
"+  c #001927",
"@  c #001E2D",
"#  c #012C3C",
"$  c #012C3E",
"%  c #002B42",
"&  c #01374A",
"*  c #00384B",
"=  c #013B54",
"-  c #0A3C51",
";  c #0D3F50",
":  c #003F5D",
">  c #04465C",
",  c #014963",
"<  c #014D65",
"1  c #014E66",
"2  c #00466A",
"3  c #11516A",
"4  c #0B5672",
"5  c #015877",
"6  c #015D7F",
"7  c #155971",
"8  c #225B72",
"9  c #16607A",
"0  c #1F637E",
"q  c #456C7F",
"w  c #016280",
"e  c #056185",
"r  c #016786",
"t  c #08698B",
"y  c #1A6D8E",
"u  c #006891",
"i  c #016E90",
"p  c #006C96",
"a  c #006A9B",
"s  c #027293",
"d  c #027399",
"f  c #1E7597",
"g  c #1F7B9E",
"h  c #286984",
"j  c #246E8A",
"k  c #2B718F",
"l  c #297491",
"z  c #2B7C9B",
"x  c #327693",
"c  c #0072A2",
"v  c #0275A6",
"b  c #0179A0",
"n  c #027DA1",
"m  c #037AAB",
"M  c #007BB2",
"N  c #547D91",
"B  c #0180A8",
"V  c #0183A9",
"C  c #0285AE",
"Z  c #018AB3",
"A  c #028AB3",
"S  c #0081BA",
"D  c #028FB9",
"F  c #2C84A5",
"G  c #3386A0",
"H  c #3187A7",
"J  c #388FB0",
"K  c #3697BA",
"L  c #41829B",
"P  c #568499",
"I  c #6A92A5",
"U  c #6695AB",
"Y  c #0084C0",
"T  c #0086C2",
"R  c #078CC3",
"E  c #008BC7",
"W  c #008ECD",
"Q  c #0197C3",
"!  c #029DCA",
"~  c #029DCB",
"^  c #019FCD",
"/  c #0092D3",
"(  c #0B9BD6",
")  c #0095D9",
"_  c #2894C0",
"`  c #3E9FC3",
"'  c #01A1D1",
"]  c #02A3D3",
"[  c #02A8D9",
"{  c #02AADB",
"}  c #21A6CE",
"|  c #3CA0C4",
" . c #3FA5CC",
".. c #009CE3",
"X. c #01ADE0",
"o. c #00A1EB",
"O. c #00A2EC",
"+. c #00A3ED",
"@. c #00A4EE",
"#. c #00A5EF",
"$. c #04A8EE",
"%. c #14ADEE",
"&. c #01B2E6",
"*. c #01B7ED",
"=. c #18B4E4",
"-. c #01BAF0",
";. c #0ABDF1",
":. c #2BB7E9",
">. c #4AA3C4",
",. c #42ABD3",
"<. c #42AFD8",
"1. c #60ADC6",
"2. c #72BEDF",
"3. c #47BAE6",
"4. c #55BAE2",
"5. c #21C3F4",
"6. c #3CC3F0",
"7. c #4BC2EF",
"8. c #4FC7F2",
"9. c #43CAF3",
"0. c #74C6E5",
"q. c #62C8F4",
"w. c #6BCDF6",
"e. c #7AD9F7",
"r. c #91AFBF",
"t. c #83ACC2",
"y. c #93C2DA",
"u. c #A5C7D7",
"i. c #92CFE4",
"p. c #96D6F3",
"a. c #A0D3ED",
"s. c #AED9EF",
"d. c #B7D3E3",
"f. c #A3D7F1",
"g. c #A0DFF8",
"h. c #A7DDF8",
"j. c #A8DEF9",
"k. c #92E0F9",
"l. c #AAE2FA",
"z. c #B2E5FA",
"x. c #C6E2EF",
"c. c #C9EDFC",
"v. c #D9EFF9",
"b. c #E5F6FE",
"n. c #F3FCFF",
/* pixels */
"                                                                                                ",
"                                                                                                ",
"                                                                                                ",
"                                                                                                ",
"                                                                                                ",
"                                                                                                ",
"                                                                                                ",
"                                                                                                ",
"                                                                                                ",
"                                                                                                ",
"                                + @ 2 2 2 2 2 2 2 2 2 2 2 + @                                   ",
"                            ; H F 4 a S Y Y Y Y Y Y Y M e 0 J l                                 ",
"                          7 | 7.7.K 8 h x x x x x x x 8 0 <.8.3.F ;                             ",
"                        j <.8.3.J P t.a.a.a.a.a.a.s.x.d.I L ,.8.7.K >                           ",
"                    ; H 3.7. .L I y.h.h.h.h.h.h.h.l.c.n.v.r.L ` 3.8. .9                         ",
"                  O h F g y 4 q y.h.j.h.h.h.h.h.h.h.z.b.b.d.N 3 t f F z -                       ",
"                o % u S E / / m k U y.f.f.f.f.f.f.f.s.u.U k v W ) W S p = X                     ",
"                  , p M ) +.+.+.) m h P U U U U U U N y M ) +.+.+./ m p 5 @                     ",
"                  1 Z m p S ..+.@.E e J ` ` ` ` ` ` z u ..+.O./ v u B Q w                       ",
"                    s :.} b u T Y t ` 7.7.7.7.8.7.7.3.g c / v u C ] *.V                         ",
"                    $ >.l.9.Q u = 4 g g g g g g g g g y = 6 C [ *.-.~ >                         ",
"                      7 i.k.;.X.e c E R R Y Y Y T T Y M 5 ~ -.-.-.X.w                           ",
"                        G p.9.-.Z m w.z.q.@.@.+.#.@.+.E d *.-.-.*.V                             ",
"                        & 1.e.;.' p 0.n.l.@.O.O.O.+.+.v Z -.-.-.~ >                             ",
"                          7 0.6.X.b ` b.z.#.+.+...@...u ] -.-.&.r                               ",
"                            G 8.;.A m z.c.%.+.@.+.#.E d &.-.*.Z                                 ",
"                            > >.5.] a 0.v.:.+.....@.v C *.-.^ >                                 ",
"                              7 =.*.d _ c.3.@.@.@...a ~ -.&.r                                   ",
"                                B -.D m p.q.....@.W d X.-.Z                                     ",
"                                > ~ { u 4.w.@.@.+.M B *.' 1                                     ",
"                                  w X.b K q.$.O...c Q *.i                                       ",
"                                    B Q d 6.%.O./ p { Z $                                       ",
"                                    > Q p ( $.O.S d ] 1                                         ",
"                                      r b M +.O.c Z s                                           ",
"                                      $ t p ..) u n *                                           ",
"                                        * 6 W E w 1                                             ",
"                                          $ c a -                                               ",
"                                          . > = .                                               ",
"                                            O o                                                 ",
"                                                                                                ",
"                                                                                                ",
"                                                                                                ",
"                                                                                                ",
"                                                                                                ",
"                                                                                                ",
"                                                                                                ",
"                                                                                                ",
"                                                                                                "
};
