/* XPM */
static char *_d06cca0739043c8e63092e41c5dc135AoYSxikM0YPeyEcq[] = {
/* columns rows colors chars-per-pixel */
"60 60 152 2 ",
"   c None",
".  c #000203",
"X  c #01070B",
"o  c #03070A",
"O  c #01070C",
"+  c #010A0E",
"@  c #020E12",
"#  c #010F14",
"$  c #020E14",
"%  c #011019",
"&  c #011D26",
"*  c #06212D",
"=  c #072632",
"-  c #032C3A",
";  c #0C2F3B",
":  c #092D3C",
">  c #033343",
",  c #083446",
"<  c #0A3B4C",
"1  c #003750",
"2  c #044256",
"3  c #03425B",
"4  c #04485E",
"5  c #1D4C5E",
"6  c #074B64",
"7  c #074E66",
"8  c #024E6A",
"9  c #024F6E",
"0  c #05506A",
"q  c #07516C",
"w  c #1B546D",
"e  c #055370",
"r  c #065771",
"t  c #065773",
"y  c #025376",
"u  c #075B77",
"i  c #005278",
"p  c #00547A",
"a  c #00547B",
"s  c #02577D",
"d  c #155470",
"f  c #235469",
"g  c #315D70",
"h  c #06617D",
"j  c #22637D",
"k  c #436372",
"l  c #005E86",
"z  c #076481",
"x  c #0A6B8A",
"c  c #016490",
"v  c #016795",
"b  c #016D9D",
"n  c #087596",
"m  c #187895",
"M  c #2A6983",
"N  c #346B82",
"B  c #2D718C",
"V  c #2A7794",
"C  c #347F9C",
"Z  c #0070A3",
"A  c #0072A4",
"S  c #0073A6",
"D  c #097DA1",
"F  c #0076AA",
"G  c #0079AF",
"H  c #007CB2",
"J  c #007FB8",
"K  c #5D7B8B",
"L  c #0A84AA",
"P  c #0986AC",
"I  c #0A89B0",
"U  c #0A8CB4",
"Y  c #0A8EB7",
"T  c #0E8DB5",
"R  c #0185BF",
"E  c #0A92BC",
"W  c #0A94BF",
"Q  c #3583A1",
"!  c #388BAB",
"~  c #648596",
"^  c #6F93A6",
"/  c #0087C3",
"(  c #008CCA",
")  c #0997C3",
"_  c #0691CD",
"`  c #0A9ECC",
"'  c #0093D5",
"]  c #0098DD",
"[  c #1A9DD6",
"{  c #0AA4D4",
"}  c #0AA9DB",
"|  c #37A4C7",
" . c #009BE2",
".. c #009DE4",
"X. c #0AADE1",
"o. c #00A0EA",
"O. c #00A1EB",
"+. c #00A3ED",
"@. c #00A4EE",
"#. c #00A5EF",
"$. c #0EABEE",
"%. c #08B2E6",
"&. c #09B6EC",
"*. c #04B8EF",
"=. c #07B8EF",
"-. c #14BBEF",
";. c #07BAF1",
":. c #07BDF4",
">. c #29ABE3",
",. c #29B3EF",
"<. c #23BCEC",
"1. c #2BB6F1",
"2. c #3EBAF0",
"3. c #41A4CA",
"4. c #45AFD8",
"5. c #48B3DE",
"6. c #4AB8E5",
"7. c #4BBCEA",
"8. c #38C7F5",
"9. c #4DC3F1",
"0. c #4DC4F3",
"q. c #4DC5F4",
"w. c #53CDF5",
"e. c #5FD0F4",
"r. c #64C6EE",
"t. c #6FD0F3",
"y. c #7AD0F0",
"u. c #84A9BC",
"i. c #86ABC0",
"p. c #88B1C8",
"a. c #96BCD1",
"s. c #98C7E0",
"d. c #9CCCE6",
"f. c #86D3F5",
"g. c #A1CDE5",
"h. c #B0D4E8",
"j. c #A5DBF7",
"k. c #A6DDF8",
"l. c #A7DEFA",
"z. c #BBDEF0",
"x. c #9DE3FA",
"c. c #AFE4FB",
"v. c #ACE7FB",
"b. c #BAE8FA",
"n. c #C6ECFC",
"m. c #CFEDFB",
"M. c #D9F0FC",
"N. c #DFF3FD",
"B. c #DCF6FF",
"V. c #E6F6FE",
"C. c #F0FAFF",
"Z. c #FEFFFF",
/* pixels */
"                                                                                                                        ",
"                                                                                                                        ",
"                                                                                                                        ",
"                                                                                                                        ",
"                                                                                                                        ",
"                                                                                                                        ",
"                                                                                                                        ",
"                                                                                                                        ",
"                                                                                                                        ",
"                                                                                                                        ",
"                                                                                                                        ",
"                                                                                                                        ",
"                                                                                                                        ",
"                                      = * * i a i i i i i i i i i i a a 1 + ;                                           ",
"                                    5 3.4.j y (  . . . . . . . . . .' c w ! 6.B $                                       ",
"                                $ M 6.0.0.9.B : w w w w w w w w w w , f 6.q.9.0.! =                                     ",
"                              = ! 9.9.0.7.C k i.d.d.d.d.d.d.d.g.h.h.a.k B 6.0.9.0.3.<                                   ",
"                            5 3.0.9.0.3.g K d.l.j.l.j.l.l.j.j.l.m.C.C.z.~ g 3.0.9.0.4.5                                 ",
"                        $ M 6.0.7.5.C k u.j.j.j.j.j.j.j.j.j.j.j.j.b.C.Z.M.i.g ! 5.7.0.7.B $                             ",
"                      o f C B j d q : K d.l.j.j.j.j.j.j.j.j.j.j.j.b.C.C.m.a.k , q d j B Q f .                           ",
"                    @ % s b H / '  .' c f ~ s.v.l.l.l.l.v.l.l.l.l.n.z.u.k d S ] ] ' R G v 6 o .                         ",
"                    $ , 9 F  .@.o.o.o.@.' v f ~ p.p.p.p.i.p.p.p.p.^ g s J  .+.+.o.@.@.( l q :                           ",
"                      > Y z 0 H o.o.o.o.+.@./ , g N N N N N N N N : H o.+.o.o.+.o./ s 0 L I &                           ",
"                        z ;.) u y / o.o.o.] e Q 9.9.9.9.9.9.0.0.9.! y  .+.+.o./ s q L %.%.2                             ",
"                        # T 8.<.Y q s ( ] y Q 0.q.q.q.q.q.q.q.q.0.0.V l  ./ i e I %.;.;.x                               ",
"                          < r.m.w.%.L 8 , , V V V V V V V V V V V V B ; 3 r U %.;.=.;.W &                               ",
"                            x b.n.-.;.X.1 c Z Z Z Z Z Z Z Z Z Z S Z S 1 n &.;.=.=.=.X.2                                 ",
"                            & | B.r.;.;.D v $.1.2.1.@.@.@.@.@.@.@.@.] 8 X.&.=.=.=.=.n                                   ",
"                              2 y.b.-.:.{ 8 >.N.Z.j.o.o...@...@.o.+.J h =.=.=.=.;.) &                                   ",
"                                m v.e.*.=.u / b.Z.n.@.o.+...@...o.@.l L ;.=.=.=.%.4                                     ",
"                                * 3.x.-.=.L l t.Z.M.$.o.o.o.@...o. .8 { =.=.=.;.n                                       ",
"                                  4 t.w.*.} 8 >.V.C.,.o.o.@...@.@.R u &.=.=.=.` =                                       ",
"                                    m t.-.=.h H c.Z.2...o.o.o.o.@.c D ;.=.=.%.7                                         ",
"                                    = | 8.;.T s r.Z.r.+.o.o.o.o...9 ` =.;.;.n                                           ",
"                                      7 <.=.X.8 [ V.f...o.o.o.@.( e $.;.;.` =                                           ",
"                                      + D ;.;.x F l.l.+.o.o.o.#.b n ;.;.&.7                                             ",
"                                        - { :.W y 9.b.+...+.@...i ) ;.;.D O                                             ",
"                                          r &.%.8 [ c.$.+....._ q %.;.` -                                               ",
"                                          $ P :.n b y.1...@.@.S x ;.&.e                                                 ",
"                                            > } ` 9 2.2.@.....l E :.D O                                                 ",
"                                              h &.t ( 1.+...' 8 X.{ -                                                   ",
"                                              $ Y D v @...+.H z =.e                                                     ",
"                                                < ) 9  .+.+.l Y P $                                                     ",
"                                                  z u / .. .0 ) >                                                       ",
"                                                  & u c #.R u q                                                         ",
"                                                    ; 3  .c 6 @                                                         ",
"                                                      % H 3 @                                                           ",
"                                                      . 1 %                                                             ",
"                                                        + $                                                             ",
"                                                                                                                        ",
"                                                                                                                        ",
"                                                                                                                        ",
"                                                                                                                        ",
"                                                                                                                        ",
"                                                                                                                        ",
"                                                                                                                        ",
"                                                                                                                        ",
"                                                                                                                        ",
"                                                                                                                        ",
"                                                                                                                        "
};
