/* XPM */
static char *bc4e7a699b594156b7c50e3ecb96075bOLnZzd27AEwCGXOP[] = {
/* columns rows colors chars-per-pixel */
"48 48 135 2 ",
"   c None",
".  c #947029",
"X  c #A76C2A",
"o  c #AD732D",
"O  c #B4792D",
"+  c #B47733",
"@  c #B17736",
"#  c #B57A31",
"$  c #B77C30",
"%  c #B57834",
"&  c #B87D32",
"*  c #B97A35",
"=  c #BB7C36",
"-  c #BC7F3E",
";  c #9F8D3B",
":  c #A68436",
">  c #A7843D",
",  c #A9853E",
"<  c #AC853E",
"1  c #BB8537",
"2  c #B4833F",
"3  c #BC813B",
"4  c #B8863B",
"5  c #BA813C",
"6  c #B8833C",
"7  c #BD813E",
"8  c #B2893E",
"9  c #A3913F",
"0  c #95A739",
"q  c #C18235",
"w  c #C38437",
"e  c #C48635",
"r  c #C28538",
"t  c #C0803D",
"y  c #C68C3D",
"u  c #CF913A",
"i  c #D2943F",
"p  c #AD8F45",
"a  c #B38940",
"s  c #B3834D",
"d  c #BD8849",
"f  c #BF8B4A",
"g  c #BC8C54",
"h  c #BC8F5D",
"j  c #BE9662",
"k  c #C38141",
"l  c #C38542",
"z  c #C58440",
"x  c #C48640",
"c  c #C68542",
"v  c #C88742",
"b  c #C28C43",
"n  c #C18A47",
"m  c #C38D44",
"M  c #C58D47",
"N  c #C98943",
"B  c #C88E41",
"V  c #C79045",
"C  c #CB9240",
"Z  c #C89042",
"A  c #C89145",
"S  c #CA9144",
"D  c #CB9246",
"F  c #CF9744",
"G  c #C9904C",
"H  c #D39740",
"J  c #D79743",
"K  c #D09844",
"L  c #D09846",
"P  c #D49B47",
"I  c #D69E47",
"U  c #D0994B",
"Y  c #D49B49",
"T  c #D39C4A",
"R  c #D79C4A",
"E  c #D99E4B",
"W  c #C19251",
"Q  c #CA9854",
"!  c #D6A04E",
"~  c #D8A04B",
"^  c #DDA14C",
"/  c #DBA754",
"(  c #D6A25A",
")  c #E1A74C",
"_  c #E4A44E",
"`  c #E2A94E",
"'  c #E4AA4C",
"]  c #E1A950",
"[  c #E4A952",
"{  c #E5AC51",
"}  c #E7AE50",
"|  c #E4AC53",
" . c #E4AD53",
".. c #E7AE54",
"X. c #E8AA52",
"o. c #E8AF53",
"O. c #E8AC54",
"+. c #EAAF56",
"@. c #E2AB58",
"#. c #E3AE5B",
"$. c #E7B054",
"%. c #E7B056",
"&. c #E8B056",
"*. c #EAB257",
"=. c #EDB557",
"-. c #EAB258",
";. c #EBB259",
":. c #EAB35B",
">. c #ECB55C",
",. c #EDB65C",
"<. c #EFB95F",
"1. c #D6AB65",
"2. c #D8AE6C",
"3. c #C4B463",
"4. c #C9B577",
"5. c #E2B264",
"6. c #E5B564",
"7. c #EDB861",
"8. c #EBBC6E",
"9. c #F1BB63",
"0. c #F3BE65",
"q. c #F1BD66",
"w. c #E5B973",
"e. c #E4E156",
"r. c #F5C067",
"t. c #F7C16A",
"y. c #F6C26B",
"u. c #E8E461",
"i. c #E6E46B",
"p. c #E7E379",
"a. c #EBE87B",
"s. c #D9C782",
"d. c #E1DA82",
"f. c #EBEA99",
"g. c #EAEAAA",
/* pixels */
"                                                                                                ",
"                                                                                                ",
"                                                                                                ",
"                                                                                                ",
"                                                                                                ",
"                                                                                                ",
"                                                                                                ",
"                                                                                                ",
"                                                                                                ",
"                                                                                                ",
"                                                      7                                         ",
"                                                    N h d e                                     ",
"                                    M n   0.:.{ [ _ ^ ( ^ E                                     ",
"                                7.r.2.1.{ *.*.*.o.......{ E                                     ",
"                                o.<.9.<.<.,.,.,.:.:.:.:...Y                                     ",
"                                R P P Y P T T U U Z Z Z y 3                                     ",
"                                / ! T j U ` ] ` {  .$.$.[ { :.{ ` Y                             ",
"                                ' { { 1.' ' ` ' ' ` o.=.6.5.:.o.) L                             ",
"                                H H u u u u i J ^ E P ~ Q g V                                   ",
"                                * * $ & & O 4 5         G h r w e w q e r                       ",
"                                @ 6 b g D #.7.;.:...[ _ ^ ( J H i i H J x                       ",
"                          0.t.:.:.,.[ 1.:.<.,.*.o.+.+.X.[ X.X.X.X.X.X.o.x                       ",
"                        >.0.t.<.{ *.*.{ { ..*.*.:.o.*.$.:...o.o.{ { { ) 7                       ",
"                        ` *.9.t.0.9.,.=.*.*.$.o.o.o...' [ ....*.@.@.@.E %                       ",
"                        ` ' { *.<.9.0.8.0.0.0.0.0.0.9.9.9.w.8.0.<.,.o.^ 3                       ",
"                        Y L F F K K F j F L L L L L L L H g g u C C y y %                       ",
"                                U U A h f M A 5       b Z g s O @                               ",
"                                ` ) ) #.$.=...U       *.$.5.#.' E                               ",
"                                w e e i H R !           m B B Z A                               ",
"                                    w t +                 x = X                                 ",
"                                    v t +                 x = o                                 ",
"                                    x = &                 k * #                                 ",
"                                    x * =                 k = #                                 ",
"                                  N k * 1 .             6 k & $                                 ",
"                                  8 7 = 1               ; a : :                                 ",
"                                0 9 , 1 :               a < p 3.s.                              ",
"                                  8 , 8 ; .             m - 4.u.a.                              ",
"                                  N 7 5                 x   d.g.f.                              ",
"                                    a                     p.i.  e.p.                            ",
"                                                                                                ",
"                                                                                                ",
"                                                                                                ",
"                                                                                                ",
"                                                                                                ",
"                                                                                                ",
"                                                                                                ",
"                                                                                                ",
"                                                                                                "
};
