/* XPM */
static char *_3d17299fa044e9cf34969227262c5f3CheuaWNLD3S7PUpD[] = {
/* columns rows colors chars-per-pixel */
"60 40 166 2 ",
"   c #020201",
".  c #000D02",
"X  c #0E0B00",
"o  c #07070F",
"O  c #060C0C",
"+  c #0A0F0F",
"@  c #160400",
"#  c #1A0D00",
"$  c #140E0B",
"%  c #190E08",
"&  c #021404",
"*  c #0B1403",
"=  c #051C02",
"-  c #0C1903",
";  c #00120C",
":  c #0D150C",
">  c #001B0C",
",  c #0A190A",
"<  c #151302",
"1  c #1C1400",
"2  c #1E1E00",
"3  c #13120C",
"4  c #18130D",
"5  c #1A1B0A",
"6  c #010612",
"7  c #060E13",
"8  c #0B0E11",
"9  c #030E1D",
"0  c #0E0C1A",
"q  c #100E19",
"w  c #051514",
"e  c #0E1414",
"r  c #051F12",
"t  c #0C1A14",
"y  c #05151A",
"u  c #0C131B",
"i  c #041A1A",
"p  c #0A1B1C",
"a  c #111314",
"s  c #181413",
"d  c #1B1D11",
"f  c #11121B",
"g  c #141A1A",
"h  c #181D1F",
"j  c #230C00",
"k  c #2F0A00",
"l  c #221400",
"z  c #2A1F09",
"x  c #221B09",
"c  c #03200C",
"v  c #0C210E",
"b  c #102A0F",
"n  c #0C241C",
"m  c #0A2B1C",
"M  c #022215",
"N  c #102013",
"B  c #0F301D",
"V  c #282305",
"C  c #262800",
"Z  c #2C300B",
"A  c #35310C",
"S  c #252316",
"D  c #30261A",
"F  c #3A3610",
"G  c #3B3815",
"H  c #343418",
"J  c #000B23",
"K  c #0D0E2A",
"L  c #041522",
"P  c #0B1322",
"I  c #0A1824",
"U  c #08122B",
"Y  c #061C2E",
"T  c #041A25",
"R  c #181621",
"E  c #101D26",
"W  c #18162C",
"Q  c #151724",
"!  c #001730",
"~  c #061F35",
"^  c #0B1133",
"/  c #101733",
"(  c #0A2223",
")  c #0F2E26",
"_  c #1B2221",
"`  c #192825",
"'  c #132225",
"]  c #2A2627",
"[  c #242A2A",
"{  c #2A312A",
"}  c #3B3422",
"|  c #453F05",
" . c #7E3700",
".. c #24412F",
"X. c #3A4F2E",
"o. c #5A4100",
"O. c #554F01",
"+. c #684A00",
"@. c #774700",
"#. c #7C4D09",
"$. c #645300",
"%. c #6B5D1E",
"&. c #7B6A00",
"*. c #594D27",
"=. c #525C28",
"-. c #504330",
";. c #5B5531",
":. c #6C5A34",
">. c #6D6527",
",. c #766C2E",
"<. c #7E7A31",
"1. c #1E2F41",
"2. c #894A00",
"3. c #824C02",
"4. c #9F5D07",
"5. c #995A0A",
"6. c #A25C06",
"7. c #B25C00",
"8. c #9A6D00",
"9. c #85780F",
"0. c #9D7500",
"q. c #9C6113",
"w. c #B56705",
"e. c #BC7002",
"r. c #976B2E",
"t. c #80693F",
"y. c #83663A",
"u. c #967339",
"i. c #B47B2C",
"p. c #C97B0E",
"a. c #89784C",
"s. c #9D7A42",
"d. c #8E7B51",
"f. c #CA9400",
"g. c #DA9E0A",
"h. c #DD8915",
"j. c #DD9F10",
"k. c #D29914",
"l. c #CCA114",
"z. c #D28229",
"x. c #C1883B",
"c. c #E79623",
"v. c #C0AB3E",
"b. c #E2BE2C",
"n. c #DCC030",
"m. c #F8C93B",
"M. c #F2CA37",
"N. c #958643",
"B. c #BB8C44",
"V. c #A0855A",
"C. c #A68D54",
"Z. c #AD9662",
"A. c #C39258",
"S. c #D8BC4E",
"D. c #DBBC52",
"F. c #F3AC5C",
"G. c #D0A360",
"H. c #C9A875",
"J. c #C1A575",
"K. c #E5BB69",
"L. c #E0B779",
"P. c #E6BF7E",
"I. c #E3CC5C",
"U. c #DFCE74",
"Y. c #F0D262",
"T. c #FFD78E",
/* pixels */
"e e e e e e e e e e e e e e e e e e e e e e e e e e e e e e e e e e e e e e e e e e e e e e e e e a e e e e e e e e e e ",
"e e e e e e e e e e e e e e e e e e e e e e e e a t e e e e e e e e e e e e e e a e e e e e e e e e e e e e e e e e e e ",
"e e e e e e e e e e e e e e e e e e e e e e e e e e e e e e e e e e e e e e e e e e e e e e e e e e e e e e e e e e e e ",
"e e e e e e a e e e e u e e e e e e e e e e e e e e e e e e a e e e e e e e e e e e e e e e e e e e e e e e e e e e e e ",
"e e e e e e e e e e e e e a e e e e e e e g e a e e e e e e e e e e e e e e e e e e e e e a e e e e e e e t a e e e a e ",
"e e e e e e e e e e e e e e e e e e e e e a e e e e e e e e e e e e e e e e e e e e e e e e e e e e e e a u e e e e e e ",
"a e e e e e e e e e e e e e e e e e e e e e e e a e e e e e e e e e e e e e e e e e e e e e e e e e e e e e e e e e e e ",
"e e e e e e e e e e e e e e e e e e e e e e e e e e e e e e e e e e e e e e e e e e e e e e e e a e e e e e e e e e e e ",
"e e e e e e a e e e e e e e e e e e e e e e e e e e g + e t O g e g e 8 e a e O e e e e e e e e e e e e e e e e e e e e ",
"e e e e e e t e e e e e e e e e e e e e e e e e e e e e e g e a e e e : e u e : e e e e e e a e e e e e e e e e e e e e ",
"e e e e e e e e e e a e e e e e e e e e e e e e g e e e e e g O e e e e e e e e e e e e e e e e e e e e a e e e e e e e ",
"e e e e e e e e e e e e e e e e e e e e e e e e e e + g 7 + h + e e g e e e e e e e e e e e e e e e e e t e e e e a e e ",
"e e e e e e e e e e e e e e e e e e e e e e e e O e e a e e g g : e e g a e e e e e e e e e e e e e e a e e e e e e e e ",
"e e e a e e e e e e e e e e e e e e a e e e e e e e g O : e   e e e 8 e g a 8 e e e a e e e e e e e e e e e e e e e e e ",
"e e e e e e e e e e e e e e e e e e e e e e e e e e h   n [   Q R e e e e e e e e e e e e e e e e e e e e e e e e e e e ",
"e e e e e e e e e e e e e e a e e : e e : e e u u 7 h   | ;.l -.} S : e g p y w u e a a 3 : a e e e e e e e e e e e e e ",
"e e e e e e e e e e e e e e e e 3 3 : - - , u U / u < O.&.D.@.A.H.d.1 : y Y ~ ~ P u 3 % < 3 3 t e e e e a e e e e e e e ",
"e e e a e e e e e e e e e e e e : : : < - , y U ^ o 1 9.b.m.w.F.T.u.:.< ' L ! J P f $ % $ < 3 : e e e e e e e e e e e e ",
"e e e e e e e e e e e e e e e e e : : , - : u P K ] >.v.n.f.p.z.5.G.J.# { y J 1.P a a % 3 3 : t e e e e e e e t e a e e ",
"e e e e e e e e e e e e e e e e w w e , , : P U W   %.I.M.g.c.w.6.3.k @ X 7 E 6 f f $ 3 3 : w y w e e e e e e e e e e e ",
"e e e e e e e e e e e e e e e u u p w : : : u P 0 D N.S.l.j.h.7. .q.r.V.z 3 R 7 f a a 3 : w i i e e e e e e e e e e e e ",
"e e e e a t e e e e e e e e e e p P w e , e u f R x l o.0.k.e.w. .x.L.y.# 4 : g a a $ 3 e w i i t e e e e e a e e e e e ",
"e e e e a u e e e e e e e e e u P P w e e e u P f < | U.Y.8.2.4.i.#.s.t.1 X 3 e f a a e e w w y y e e a e e e e e e e e ",
"e e e e e e e e e e e e e e e e u u e e : w P P e * C <.$.+.K.B.P.C.j @ 1 d e e a a e 8 e w w t e e e e e e e e e e e e ",
"e e e e t e e e e e e e e e e e 0 f a 3 e u P P y & - =.b ,.C.Z.a.*.V < 3 : e y u e e e e e : e e e e e e e e e e e e e ",
"e e e e a e e e e e e e u e a u f f 3 3 a u P L I r b X.X Z F A F N * * t i y p u u w e : e : e e e e e e e e e e e e e ",
"a e e e e e e e e e e e a e e e f a 3 3 3 u P L i M B ..& - * . & . O i p i y P u u e e e 3 a 3 a e e e e e e e e e a t ",
"e e e e e e e e e e e e e e e a q a < 3 a u P y > > m ) ( p N t i i i i p y u p p y u e e a 3 3 e e e e e a e e e e e u ",
"e e e e e e e e e e e e e e e e f q 3 3 a 0 P p > c m n T y : t p i w w w e e f 0 u u f a a 3 3 a e e e e e e e e e e a ",
"e e e e e e e e e e e e e e e e f e 3 < f f u y & = n n T 9 : * w w w w a a a 8 u u u u f a q a e e e e e e e e e e e e ",
"e e e e e e e e e e e e e e e e P a : : f q u e & = N ` P Q d 3 : t a 3 4 4 $ $ a u u u u u a a a e e e e e e e e e e e ",
"e e a e e e e e e e e e e e e e u y : : a a u e - - : n o q 4 * : a 3 3 $ 4 4 s a f 0 u 0 f a a e e e e e e e e e e e e ",
"e e e e e e e e e e e e e e e e u t a e a e e a : , e w e a a e e e : a a 3 a a e e e e u e a e e e e a e e e e e e e e ",
"e e e e e e e a e e e e e e e e e e e e e e e e e e e a e e e e e e e e e e e e e e e e a e e e e e e e e e e e e e e e ",
"e e e e e e t a e e e e a e e e e e e e e e e e e e e e e e e e e e e e e e e e e e e e e e e e e e e e e e e e e e e e ",
"e e e e e e e e e e e e e e e e e e e e e e e e e e e a e e e e e e e e e e e e e e e e e e e e e e e e e e e e a e e e ",
"e a e e e e e e e e e e e e e e e e e e e e e e e e e e e e e e e e e a e e e e e e e e e e e e e e e e e e e e e e e e ",
"e e e e e e e e e e e e e e e e e e e e e e e e e e e e e e e e e e e e e e e e e e e e e e e e e e e e e e e e e e e e ",
"e e e e e e e e e e e e e e e e e e e e e e e e e e e e e e e e e e e e e e e e e e e e e e e e e e e e e e e e e e e e ",
"e e e e e e e e e a e e e e e e e e u e e e e e e e e e e e e a e e e e e e e e e e e e a e e e e e e e a e e e e e e e "
};
