/* XPM */
static char *result[] = {
/* columns rows colors chars-per-pixel */
"60 60 105 2 ",
"   c white",
".  c #64C6DC",
"X  c #7CD0E7",
"o  c #FDFFFF",
"O  c #60C7DE",
"+  c #80CEE4",
"@  c #99D7E9",
"#  c #79CEE4",
"$  c #6EC9E3",
"%  c #64C6DF",
"&  c #7ACBE0",
"*  c #FFFFFD",
"=  c #73CBE0",
"-  c #9CDAED",
";  c #53C2DB",
":  c #69C5E1",
">  c #6BC9DD",
",  c #86D4E8",
"<  c #91D7E9",
"1  c #42BCD6",
"2  c #66C9E0",
"3  c #8CD2E2",
"4  c #73CBE6",
"5  c #5FC3DD",
"6  c #8BD2E8",
"7  c #53C0DD",
"8  c #8DD6E6",
"9  c #FFFAFE",
"0  c #EEF7FA",
"q  c #86D1E3",
"w  c #93D2E8",
"e  c #6CCBE4",
"r  c #56BFD9",
"t  c #F2FBFB",
"y  c #CEE9EE",
"u  c #4FC2D8",
"i  c #DBF3F2",
"p  c #5DB9D8",
"a  c #60C9E3",
"s  c #8DD5ED",
"d  c #AFE1ED",
"f  c #D3EFF2",
"g  c #75CFE1",
"h  c #68C9E3",
"j  c #A6DBEE",
"k  c #70C7DE",
"l  c #7FD3EA",
"z  c #52BFD6",
"x  c #E5F2F2",
"c  c #57C3DD",
"v  c #86CFEA",
"b  c #C3E5EC",
"n  c #74C4DB",
"m  c #B5E6F0",
"M  c #4FC4DC",
"N  c #5BC3DA",
"B  c #95DCED",
"V  c #92D4E1",
"C  c #66BBD8",
"Z  c #93DBE4",
"A  c #A4DEE7",
"S  c #DAEDEE",
"D  c #F7FCFE",
"F  c #72D0E6",
"G  c #FBFEFC",
"H  c #98D6E2",
"J  c #5EB8D2",
"K  c #56B6D6",
"L  c #89D7E1",
"P  c #67CEE4",
"I  c #89D8EC",
"U  c #9DDCE3",
"Y  c #BDEAED",
"T  c #61C3D7",
"R  c #7ACBE7",
"E  c #87CDDE",
"W  c #E8F8F8",
"Q  c #49BAD6",
"!  c #6CC2DB",
"~  c #81D4E2",
"^  c #9DDFEF",
"/  c #F5F7FA",
"(  c #3CBCD3",
")  c #7FCEDC",
"_  c #65C9DC",
"`  c #A4D6E4",
"'  c #C8EDF1",
"]  c #4EBCD9",
"[  c #48C1D6",
"{  c #E5F2F8",
"}  c #EFF5F3",
"|  c #AFDBE6",
" . c #69C4D7",
".. c #5FBCDD",
"X. c #A6E3EE",
"o. c #65C2DF",
"O. c #BAE2E8",
"+. c #ABE3E6",
"@. c #56C8DC",
"#. c #7EC4D8",
"$. c #7BD3DF",
"%. c #BCE1F1",
"&. c #FEFCF7",
"*. c #5CC9D8",
"=. c #75C3E3",
/* pixels */
"                                                                                                  o o 9 9 G D 9 o t / b ",
"                                                                                                  G   t / S x 0 t 0 W A ",
"                                                                                              * * * 9 O.i x } W / f f 0 ",
"                                                                                              G * W W y / D 9 G 9 y y +.",
"                                                                                            o G G 0 / G | O.* W * W 0 ' ",
"                    o G * * *                   *                       o     &.9 * * * G * D 9 G 9 9 i q i G / } S / | ",
"                    * * * * o             * * o o                           * o o o       9 0 9 G x i ` x * S S i w Y m ",
"                    *   o o o G       o o * G G o                     o   o o 0 x W t G G x x   9 &.f { x f x i d j b y ",
"                      o 0 S 0 o o * * D t D o 9 9                     o   G x 0 0 S x x x x D 9   { b &.V > @ ' x x A 0 ",
"o o o       o *       o S y x / o   * G x O.' D                       o   G x * * G / G G   9 9   U f t 6 - - 3 U f t f ",
"G *   G G t 9 * 9 D 0 o b W o / D D * o t f O.O.i   G G   * * o G *   *   t } i ` x &.} 9 } W i U @ &.- v I @ d ^ H %.$.",
"{ S y / 9   f | x / / ' H t D * o D * 9 } S W f +.d D 9 G * * o G *   0 S 0 0 y l A y / D S S D y y t v 6 ` U A L X.3 E ",
"A i O.Y f 0 b i Y y 9 } D 9 } G } G * } D x S / o Z '   o * *   * o D { {   / | i &.x } i / ' ` t } A 3 Z L A f S y Y V ",
"W &.  t x U L / &.G o / i ' t o } D 9 t y +.f S 0 x y | f * &.G 9 D S y y } t i G { +./ * S = : U t j O.j 6 < E ' y d Z ",
"0 G b y D W U S f +.H ` +.d D   D t   y #.Y b f O.O.f f b G &.* o S S f y 0 0 b S U ' O.^ ` q B 3 E 8 +.q s q < $.L 6 6 ",
"S 9 ` f t 9 x b { y ' W D 0 / o O.b t | Y x { i W | Z y 0 0 &.W x x o G 9 0 } } x { } ) 4 E @ B j B Z A I 6 3 8 - @ 6 , ",
"G * ' Y 0 S } * } D t } D S m b U d ` i * 9 ' ! j 9 x y { 0 / y 0 &.* 0 y ' { s ) i 0 Z ^ , , X.@ H - ^ 6 < B < q 8 ^ q ",
"9 t 0 x O.0 t i y S y f } D f x   9 y ' { W d l g V S * i x t } 0 i 0 9 y i d e F + V E < ~ I < X.B < < 6 - - - - w 3 ~ ",
"A f {   0 0 / A { / } j m * &.* S f @ k ) ) L < 3 g # O.y W O.+.L L b x D * A Z @ - 3 %.d 8 , , 3 q + + 6 @ @ - ^ - B 8 ",
"+.+.S &./ 9 * &.t @ @ m 3 W f @ R F l V 6 , @ Z < w 3 4 F i 9 E Y &.{ x } O.I v d x f Y %.@ X # # # # + , s 6 q ) E ^ - ",
"9 9 0 &.i Y ' b H $.+ f y y m 4 s H j 6 L 8 w 6 B Z s 6 E ) t / 9 &.}   t 8 # < m V O.O.d @ v g & 3 q 3 8 & n & ~ 8 @ - ",
"U Z H 8 R 4 4 & 6 B $.@ W x +.w , Z +.3 v , - j 3 @ X., L k + ' i i m A f b $.d d X.f d V L B %.b %.m X.E + 8 3 8 B B < ",
"& X E ) - 8 L < L A - R & # 3 w 6 q q 6 w s < ' S | w ~ $.j @ $ > > ! 4 n V - @ @ A - s s + b Y b E =.=.R s 6 3 3 < @ @ ",
"s - ` ' +., s s B A j l l s s v v v s I L < 3 E b / 0 %.%.W } i %.m < l = L X.< B j I w ) H m V d < R + v v s < 8 8 < @ ",
"w Z Y ^ I %.m H | d 8 $.~ 6 X V - 3 q I d A X.- + V ' }   O.H %.f b +.Z 3 ` %.8 8 6 ~ ) | m 8 w l l I , ) & + 6 s I , s ",
"6 I H 3 - w j y S O.8 j j 6 | W 0 W b - j A ' O.- ^ @ U +.@ @ Z s @ j d m j s 8 , # > 8 < ) E ~ & : o.> & + # + = J J R ",
"s 6 H - v v v < < q q w - @ H A A b 9 t y f y ` @ j ` < < j d U 3 q X ) E 6 6 I # > & < + 6 6 k K p p K p =.X X p C n q ",
"6 , q 3 3 3 3 q q 6 , , , s d d X.Z m Y X.A H 8 L L w w V 3 m y Y m d 8 #.3 < + = = + + & l g K v | q ! K Q J p p X X ~ ",
"3 q , B @ @ - B B @ @ H - - U H d - L E 6 , 8 8 L 8 8 I V m %.A w V V < s 6 , # & = & + # X p v m ) q B < w n J , v & X ",
"B w 3 B - @ @ - @ U m b b Y j @ < 8 8 < s s < < w s , ~ d < & ^ F l X + + + & = # # # # l o.=.| > P h #.E ) %.%.< I X # ",
"@ j m A w - ^ w @ m d - B < + & , 8 V 8 3 3 L 8 , l 6 d 3 > # v R v 6 6 , + + # # X + + 4 C V > : $ 2 2 _ T n  .n #.& X ",
"@ - - @ d m %.b ' +.` & n n & & n & X = k + + + ~ Z | Z g l R ! = X # R =.! 4 X X X ) g ! ) , : > > > h e 4 : C J p . 4 ",
"@ @ @ X.A @ j - E ` j + , s s , #  .! ! 4 R X R & & n % k n n # X = J K p K J J . P a l U V O O @.@.@.c c c a h e $ : . ",
"@ ^ m d H < E & + B < 8 8 + & & & X X l l X R 4 X X X = & & + X = J C 3 H H #.#.v 4 5 q A  .[ u ; @.[ ] 7 7 ] 7 a 2 2 : ",
"< - @ @ - w s @ w ~ ~ E ) & & # R R & & n n k = X + $.~ X X # k p J l ~ = X B I = % + H  .7 5 O 5 ] ] h e a O ] z O 2 $ ",
"w < 6 q , X # # + & = = = 4 = k ! ! n ! n & q + & : n n ! ! C J ..e $ : 2 _ h k $ > _ r r c O c [ 1 M 2 > : 2 O z N 2 : ",
"6 6 , X = = F F $ k n E j j V n q B 4 , B = 4 # 4 : C p J J K 5 2 = > > P =.= X = & & % r N ; 1 1 [ a h 2 _ % : % N P 4 ",
", l & k = # = n H %.y i y y y S b V H j d # Q z z T % % % e *.7 a M : $ =.% _ k = = = = % c 7 [ Q z . e P + + & = % . R ",
"l # = = & n & | U L L < ^ @ V Z X.| L  .= [ u u u z [ [ 1 N < w H U Y w 5 u E v = $ > > e N ] 1 Q : R k > e e F # R = k ",
"X # # X + + B I & X R 4 o.z r 5 c u Q 7 M 7 7 7 ] [ 1 ( 1 r _ > & w ) N [ q - & > _ 2 2 . . 5 ; P P a @.c c : =.R # # g ",
"+ + X # # &  .C C C p J C ! ....p K ] 1 1 1 1 1 1 ( 1 ] c . + : _ o.1 ( $.w T . _ _ 2 2 _ > F F : T T > ) )  .N O = & # ",
"X # $.) n p J T z T o.: : ....Q ( 1 [ z [ 1 1 Q ] ; 7 O 5 . O O T @.u P l T 2 2 2 2 2 e g g k n 3 d d @ - j Z $.*._ # g ",
"v v ^ ^ V #.$ $.%.& : . N 5 1 ( r o.5 ..c O h h : 5 5 5 O 2 % . > > > > . 2 > $ = R # g & ~ g & H V #.T a > q E E *.F F ",
"> T C K g U > & | + a O ; ( u 6 V V ^ 3 # F 5 r r N 5 % h e 4 4 g = g g & # # g & # + + k # # : C K K J C z ! ` m w w R ",
"N r 5 k k R A V *.@...z Q @.F q O.Y H - & : % O O % % % % : $ $ = g g # # # & g g n + , o.p K K Q ] Q 1 1 ..C  .#.E E p ",
"4 R v # P 2 L B q @...7 % % #.j Z = ....c O % % % % % % O % % % . . . 2 > > > . . F X  .5 K ] Q 1 1 Q 1 1 Q M N *.@.P [ ",
"5 h > O .  .T  . .N + l P & ^ g T 5 O _ *.O a % % % % % % O . % O % % . 5 O . . . 2 . C K Q 1 ( 1 Q Q Q 1 1 1 @.% % o.1 ",
"h % 5 5 . 2 h > g # Z H X A > N 2 % O O . : % % : % % % % % . . O . . . . . O O a 5 5 r Q ( ( ( J C C p c ; ; c 2 k o.1 ",
"h % h $ 4 F X l I , l V ` g 5 . % O O : :  .5 a a O O O . % O O 2 O O O : : a 5 ..C K [ 1 1 ] u u u u 5 O ; ; ; ; 2 e 7 ",
"$ $ $ 4 # # # # # & v @ T 5 % O % . : O @.8 Z ! k 2 . . . T % % c ] ] z ( ( K K Q 1 1 ( ( 5 2 r u . : z u ; ; ; u z 5 r ",
"# g # # + # # # # = P P  .: % % % 2 O T T F P a e F l = = X : ..] ( ( ( T > u [ a e P O T F ) @ j - o.; M ; ; ; 7 7 ; r ",
"# 4 = = = = = $ > . . % a % % O N @.2 q d O.` | ` C ! # # n C p 1 ( ] F >  .= g ! C . & v & V 8 T N u M ; ; r ; 7 7 ; ; ",
": % % % % % 5 o.% % % % O @.N ~ U U V H w J K K p p J K J J K Q [ K R c ( 1 z r M 7 c r O 5 ; ; u u M u M M 7 M 7 7 7 7 ",
"% . O _ _ *.*.O O % O O . g ^ H j j ` 3 p 7 7 7 r r r r  .E ~ > C C p r c N r M 7 c c c ; ; 7 7 7 M M c N r @.M 7 ; ; ; ",
". . O o.! : % O O % . X - j ~ ! C K z z M M r p p p p p ; K C E q F ; ; r ; ; ; r r r z u M ; ; ; N N u 1 _ + z u ; ; ; ",
"4 $ . 2 2 5 5 T  .% : n n *.N z ] 7 c p ..r z z r p p p ....p Q [ z N z z u ; T . > e P 2 T % : h X v w j - n N 5 N N N ",
"X # # g ~ 8 V q k h a F + #.#.#.R % ; r M ; u M M r r c r u M 7 7 r P F . % h + v 6 q , q < 8 & & $., @ A ` j R $ e e e ",
"+ & + ) n n =.k J o.& #.#.j m $._ T u u u u z u u z z z N N 5 O : $ $ 4 4 $ $ e > > = & & < j E + I # . O . k h h $ $ $ ",
", , I X e : o.o.o.o.C T *.> ) > O a O O O O O O O O O % h e h e $ $ $ $ $ $ $ $ $ $ $ = k ! ! k > > : $ 4 $ $ $ $ $ $ $ ",
"I , # > _ $ =.h e 4 4 4 e $ k h $ $ e e e e e e e e $ e $ $ $ $ $ $ $ $ $ $ $ $ $ $ $ e $ $ P h 2 $ $ $ $ $ $ $ $ $ $ $ "
};
