/* XPM */
static char *f09cfb87f8ec4381b1661ea0e7980dd3xt4kQyVX2onQqyPo[] = {
/* columns rows colors chars-per-pixel */
"60 60 12 1 ",
"  c #DEEEFB",
". c #DFEFFC",
"X c #DEEEFD",
"o c #DFEFFE",
"O c #DFEFFF",
"+ c #DFF1FD",
"@ c #DEF0FE",
"# c #DFF1FF",
"$ c #E0F0FD",
"% c #E0F0FF",
"& c #E1F1FF",
"* c #E0F2FF",
/* pixels */
"%%%%oo%%oo%%oo%oo%o%oooooo%o ooooooooooooo%o%oo%oooooooo%ooo",
"o%%o%%%%%o%%o%%ooooooooooo o%oooo%oooooo%oo%o%oooo%ooooo%o%%",
"o%%%%%%%%%%%%%o%%%o%o%oo%oo%ooo%%o%%%oo%%o%%o%%oo%%%%o%% %oo",
"%%%%%o%o%%o%%o%%%%oo%%o%o %oo%%o%%o%%o%oo%%o%oo%%o%%o%%%oooo",
"o%%%%%%o%ooooo%%o%oo%ooooo ooooo%%o%%oo%o% $%oo%oooooo%o%%o%",
"oo%%%%%o%%o%%o%%o%%%o% o%%%% %%o%oo%%oo%oo$  %%o%oooo%%o%%oo",
"%o%%%%%o%%o%%%%oo%%o%%o%%%%%%%%%%%%%%o%oo%$$%oo%%oooo% %%o%%",
"%%%o%%%oo %%o%oo%%%%oo%o %%oo%%%oo%oo%oo%  $oo%%%oooo%o%oo%%",
"oo%%%%%ooo%o%o%%o%%oo% %%%%%oooo %ooo o%o%$$o%%oooo%ooooo%%o",
"%o%%%%%o%%o%%o%oo%%%%%o%%o%%o%oo%%o%oo%%o%   %%%oo%ooooo%%o%",
"%%%%oo%o%%oo%o%%%%%%%%%o%oo%oooo%%%ooooooo  %%o%oooo%o%%o%oo",
"%%oooooooo%%%%%%%%%oo%o%oo%oo%oo%%oooo%o%%%oo%%%oooo%ooo%%o%",
"%%%%oo%o%%o%o%%%%%ooo%o%%%%%o%%o%%%%%oo%o%%o%%o%%o%%%%%o%% %",
"%%%%oo%oo%ooo%oo%oo%oo%o%%o%%o%%ooo%%ooooooooooooo%%o%ooo%%%",
"ooooo%ooo%%oo%%%%%%%%%oooo%o%%o%%o%%%oo%%o%oo%o%%o%oooo%%%%%",
"%o%oo%%ooo%%o%%%%% %%%o%%o%% %%o%%o%%o%%%%%%%%%%oo%%o%%o%%%%",
"%%%%%oooo%o%%%%%%%%%%o%%%%%ooo%%%o%%%%%oooooooo%ooooooooo%%%",
"%%%ooooo%o%%%%%%%%%o%%oo%o%%o%oooooo%oo%oo%oo%o%%o%ooooo%%%%",
"% oooooooooo%%%oo%%oo%%%%oo%%%%o%%%%%%%% %%o%ooo%o%%oo%o%%o ",
"%%ooooo%o%%%%ooo%o%%%%%o%%o%%%%%%%%%%%% %o%o%%oo%oo%o%%o%%oo",
"ooo%%oo%o%%%%%%%o%oo%oo%o%%%ooo%%o%%%%%%o%%%%oo%o%%ooooo%%oo",
"o%o%%%%%%%%%o%%o%%ooo%%o%oo%% %%o%oo% %%%oo%o%ooooo%oo%%o%o%",
"o%o%oo%%oo%oo%oo% %%%o%%%%%o%%%%%%%o%o%%oooo%%oo%oo%oo%ooooo",
"ooo%ooo%o%%ooooo%%o%% o%oo%oo%oo%o%%ooo%oooo%%oo%oo%%o%%oo%%",
"oo%%%%%%%%%%%ooo%%%oo%%o%%o%%o%%%%%%%%%%%o %o%%%%%%%%o%oo%%o",
"oo%%%%$%oo%ooooooooo%%%%%%o%%o%%%o%%o%%o%o%%%oo%%oo%%%%oo%%o",
"oo%%oo%%ooo%%%%oo%%%%oo%oo%%o%oo%%o%oo%%oo%%%%o%o%o%%o%%o%%o",
"o%%%o%%%%%%%%%%%%%%oo%%%%%o%%o%%%ooo%%o%%%%%%%%%%%o%%o%%o%%o",
"oooo%%%%ooooo%ooooo%%%%o%%oo%%o%ooo%o%oooo%o%ooo%oooooo%o%%o",
"oooooo%%oooo%%%%o%%%%  %oo%o%%o%ooooo%% o%%%o%o%oooooo%%o%%o",
"oo%%%%%%%%%%%%%%%%%o%%%%%%%%%%%%%%%oo%%%oo%o%%%%%oo%%o%%o%%o",
"oo%%% %%oo%ooooooo%o%%%oo%oo%oo%oo%oo%ooooooo%oo%o%oooo%o%%o",
"oooooo%% o%%%%oo%%%%%%%%o%%%o%%%%o%%oo%o%o%% %oo%%%% %%o%%%o",
"oo%ooo%%o%%oo%%%%%%%%%%o%o%%o%%oo%%%%oo%oo%%%%%o%%%ooo%%%%%%",
"oo%%%o%%oo%o%%ooooo%oo%o%%o%%o%%oo%oo%oo%o%%oooooooooo%%%%%%",
"oooo%o%%ooo%%%%oo%%%%oo%%o%%%%%o%o%%o%%%%%%%%ooo%%%%o%%%%ooo",
"o%o%%%o%oo%%%oooo%%ooo%o%%o%%%%%oo%%oo%%%%%%%o%oo%ooo%%%%%%%",
"%%%%%%%%%%%ooooo%oo%%%%o%% %%o%%o%%o%%o%oo%%oooo%oooo %oo%%%",
"ooo% oooo%o%o%%%%o%%%%oooo%%o%%%%%o%%o%%%%%%o%o%%o%%%o%%%%%%",
"%%oo%oo%oooo%o%%o%%o%%o%%o%%o%%%%%%%%o%%%o%%%%%%%%%%%%%%ooo%",
"%o%%ooo%oooo%oo%oo%ooooo%o%%ooooo%%oooo%ooo%oooo%%oo%o%%ooo%",
" oooooooo%%o%%%%%%%%ooooooo%oo%oo%o ooo%ooo%%$ooooo%oo%oo%oo",
"oo%%%oo%%%%o%o%oo%%%%%o%%o%%%%%%%%%%%o%%%%%%%%%%%%%%%%%%%%%%",
"o%%% o%%%%o%ooooo%%%o% %ooo%%%%%o%%o%o%%++o%oo%% %%o%%ooo%oo",
"ooooo %  o%o%o%%o%%%%%%%oooooo%oo%oooo%%+%%oo%%o%%o% %ooo%oo",
"oo%%oo%% $%%oo%%%%o%%%%%%%%%%%%%%%o%%%%%+$%%%%o%%%%%$$%%%%%%",
"o%%% %%o $o%oo%%%%%%oo%%o% %%o%%%o%o%o%o$$o%%o%oo%oo$ %oo%oo",
"ooooooo%$ o%%%%%%%%oooo%oooooo%ooooooo%%o%%%%%oo%%o%$$%%o%oo",
"ooo%o%%%%%%%oo%%%%%%%%%%%%%%o%%%%%%%%%%%%%%%%%%%%%%o%%%%%%%o",
"o%%%ooo%oooo%oo oo%%%%o%%%oo%oo%%%%oo%%%o%o%%o%oo%oo%o%oo%%o",
"ooo%ooooo%o%%%%%%%%%%%oo%oooo%%oooooo%%%o%%o%%oo oo%%o%o%%oo",
"%o%%oo%oo%%%oo%%%%%%%%%%%%%%%%%%%%%%%%%%%%%%%%%%%%%%%o%%%%%%",
"o%$%o %ooooooo%%%oo%%%%%oo%%o%%%o%%%%%%ooo %ooooo%oo%%%o%o o",
"oo%%%o%%o%%%oo%o%%% ooooooo%oo%oooooo%%%oo%oo%%o%oo%ooooo%%o",
"oo%%o%%oo%%%o%%o%%%%%%%%%%%%%%%%%%%%%%%%%%%%%%%%%o%%%%%%%%%%",
"oo%ooooo%%oo%oooo%%%%%%oo%%%%%ooo%%%%%%oo%o%%o% o%%o%ooo%%%%",
"ooooooooo%%o%%%%%%%ooooooo%ooo oooooooooooo% $ %oooo%o$$%%oo",
"oooooooooooo%oo%o%%%%%%%%%%%%%%%%%%%%%%%%%%%%$%%%o%o%% $%%%%",
"oooooooooo o%oo%o%%%%%%%%%o%%ooooooo%o%ooo%o%$%%oooo%%$ %%o%",
"oooooooooooooooo%%%oooooooooo%oooooo%o%ooo%o%% oooo%%o$%%%oo"
};
