/* XPM */
static char *b34650e35b364d6ef88d0bd4943d0ab8CIqNge2kivlAjlBz[] = {
/* columns rows colors chars-per-pixel */
"61 61 28 1 ",
"  c #A3CFE8",
". c #A4D0E9",
"X c #A5D1EA",
"o c #A5D3EA",
"O c #A6D2EB",
"+ c #A6D4EB",
"@ c #A7D4EB",
"# c #A7D3EC",
"$ c #A7D5EC",
"% c #A8D5EC",
"& c #A8D4ED",
"* c #A8D6ED",
"= c #A9D6ED",
"- c #A9D5EE",
"; c #A9D7EE",
": c #AAD7EE",
"> c #AAD6EF",
", c #AAD9ED",
"< c #AAD8EF",
"1 c #ABD8EF",
"2 c #ABDAEE",
"3 c #ACDBEF",
"4 c #ABD9F0",
"5 c #ACD9F0",
"6 c #ACDAF1",
"7 c #ADDAF1",
"8 c #ADDCF0",
"9 c #AEDDF1",
/* pixels */
"::::::111888>777>1::;;;;;;4;4;4;,,2222,,228888888888889988888",
"::::::11118>>877>111;44;;;;4;4;4,,2222,,222888822888888888888",
":@::::::11117777;1114;;44;4;;444,,2222,,228888288288888888888",
":::@::::1111>>8>44114444;4;44444,,2222,,228282822828888888888",
"%%@:::@:::::111144444444;4444444,,2222,,228282282828298888888",
"%%%%@:@:11::>111;4;4;4;44;444444,,2222,,222228822282828288888",
"o%:@@@@::%%11:>>4;4;4;4;44444446,,2222,,222282222228282888888",
"@@o@::@@%:%%::>>;;;;;;;;44444466,,2222,2,,2228222222828288888",
"&&&&&&&&&&>>>>>>;;;;;;;;;44;444422222228222222222222228298888",
"&&&&&&&&&&>&>>>>;;;;;;;;4;;4444422222282222222222222222888888",
"&&&&&&&&&>&>>>>>;;;;;;;;;;4;444422222228222222222222228288888",
"&o&@&&&&>&>&&>>>;;;;;;;;;4;4;;4422222282222222222222222888888",
"&o& &&& &&&>&>>&;;;;;;;;;;;;4;4;22222228222222222222228228282",
"&&&&&&&&&&&&>&&>;;;;;;;;;;;;;4;422222282222222222222222882828",
" &&& &&&&&&&&&>&;;;;;;;;;;;;;44;22222226222222222222228228282",
"& & & & &&&&&>&>;;;;;;;;;;;;;;;422222226222222222222222882828",
"&O&O&O&O&&&&>&>&1;1$:::::::::111<<<<<<<<<<<<4444,222282882822",
"O&O&O&O&&&&&&>&>;111:::::::::111<<<<<<<<<<<<4444,222228228282",
"&O&O&O&O&&&&&&&&:@$:@::::::::111<<<<<<<<<<<<44442222222282822",
"O&O&O&O&&&&&&&&&:::$::@@:::::111<<<<<<<<<<<<44442222222222222",
"&O&O&O&OO&O&&&&&@:::@::::::::111<<<<<<<<<<<<44442222222222222",
"O&O&O&O&&OO&O&&&@:@:@:@::::::111<<<<<<<<<<<<44442222222222222",
"&O&O&O&O&O&OO&&&@@::@@:::::::111<<<<<<<<<<<<4444282222,,22222",
"O&O&O&O&O&O&&O&&:@@@:@@@:::::111<<<<<<<<<<<<4444828222,,,222,",
" &OO&&O&O&O&O&&&@@@:@::@@:@1::::;;;;;;;;4444446628222222,,,,,",
"OOOO&O&O&&&O&O&&@:@@@@@@@:::::::;;;;;;;;4444446682222222,,,,,",
"OOOO &O&OOO&O&O&@@:@:@@@@@:1::::;;;;;;;;<<4444442822222222222",
" &OO&& OO& &&O&O@:@@:@@@@::@::::;;;;;;;;<<<444448222222222222",
" O &OOOOOOOOo&&O@@:@:@@@@:@::1::;;;;;;;;<<<<62442822222222221",
"& & OOOOOOOO OO&@@:@@@:@@@@::@:@;;;;;;;;<<<<;;448222222222222",
" O O &OO &OO&OoO@:@@@:@@@@@::::@;;;;;;;;;;<<;61128222222,,,,1",
"& & O OOO OOOOoo@@@:@:@@@@@:@@::;;;;;;;;;;<<;6;282222222,,,;2",
" &OOOOOOOOOOOOOO&O&&&&>&&&&&&>&>:::>4;4;;;;;;4;4;4;4;4;4$;4;4",
"O OOOOOOOOOOOOOO&&O&&&&&&&&&&>>&&:;>;4$;;;;;;44;4;4;4;4;;4444",
" & &&OOOOOOOOOOO &O&&&&&&&&&&&&&;$;;4;;;;;;;$4;4;4;4;4;4;4444",
"O O  OO&OOOOOOOO& &O&&&&&&&&&&&&$$;;;;;;;;;;;;4;4;4;4;4;44444",
" & & O& OOOOOOOOOOO&O&&&&O&&&&&&$;$4;;4;;;;;;4;4;4;4;4;4;4444",
"  O & O OOOOOOOO& O&&&&&O&O&O&&&$$$4;;$;;;;;;44;4;4;4;4;;4444",
"   & & &OOOOOOOOO& &O&O&&O&O&O&&$$;$;1$$;;;;$4;4;4;4;4;4;4;44",
" OO O O OOOOOOOO O& &O&OO&O&O&&&$$$;;$$;;;;;;;4;4;4;4;4;;;4;4",
" & & & & O &  &OOOOO&&O&&&&&O&O&$$$$$;$;$;;;4;4;4444;4;44;4;4",
"O O O O & O O&OOOOOO&O&O&O&&&O&&o$$$;$;$;$;;;4;444444;4;;4;4;",
" & O & O & & OOO&OOO &&&O&&  &O&$o$$$;$;$;$;$44;;4;4;4;44;4;4",
"O & O & O O OOOO OOO& O&&OOOOO&&o$$$;$;$;$;;;;;44;4;4;4;;4;4;",
" O & O O & & OOO O &OOOOO&OOOO&&oo$$$$$$$$$;;;;44;;4;4;44;4;;",
"& O & & O O &OOO& & OOOO& OO&  &ooo$$$$$$$;$$4;$$;;;4;44;4;44",
" & & O & & O OOO O & &OOO&O O&OOoo$o$$$$$$$;$;;;$;;;;4;44;4;;",
"O O & O O & OOOO& O O OOO &O OOOooo$$$$$$$$$;;;;;$$;;;44;4;44",
" &O   &  & & O & O&OOOOO&O&O &OOooOOOOO>O>>>O>>>$>$44$4$;;;;;",
"O   O  &O O & O &  &OOOOO&O&OOOOO  OOOOO>OO>>>>>$$$$$4$4;;;;;",
" O OO O  & O & & & &OOOO&O&OOOO&o OOOO&O&>>O>>>>>4$4$44$;;;;;",
"&      &O & O O O O  OOO&& OOOO  OO OOO&OOO>O>O>$$$$$$$4;;;;;",
"&     & & O& O & O &O &OOOOO&O O OOO OOOOOO&O>O>$$4$4$4$;;;;;",
" OOOO  & O   O    O  &O OOOO  & OO   O OOOOO&O>O$$$$$$$$;;;;;",
"O   O O   O O O O  & & &OOO& & &O O   OOOOOOO&&>$$$$$$4$;;;;;",
" &O    &O   O   O   O O O&  O O OOO OO  OOOO&OOO$$$$$4$$;;;;;",
"   OO      O  O O O  &OOOOOOOO & O   O  OOO OOOO$o$o$$$$;$44;",
" O    O  O  O  & & &O OOOOOOOOO    O O OO OO OOOO$o$o$$;$;;;4",
"O O  O O  O O  && O  &O&OOOO&O &   O  O  O OOOOOo$$o$$;$$;;;4",
"  O  O    O      O &O O OOOO &O OO OO O OO OOOOO$oo$$$$$$$$;;",
"         O  O  &O & O &&OOOOOO OOO OO OOO OO OOOooooo$$$$$;;;"
};
