/* XPM */
static char *_bd87e5512e04590a6a0581b229a28c7MgNOIrntp3H5tt1j[] = {
/* columns rows colors chars-per-pixel */
"60 60 10 1 ",
"  c #657E12",
". c #698313",
"X c #617810",
"o c #5B780F",
"O c #5C730F",
"+ c #546D0D",
"@ c #5F7D11",
"# c #55740E",
"$ c #718815",
"% c #4D670C",
/* pixels */
". XO XX OOOOO+++X $XOOO o. OX  ..@.@ o@$   #oo@..$...$$ OX .",
"$oXX  XOX XO++%OXOXX X @XX  XXXOXo@..o#.$@###@@@.. .$....$ $",
" $$$ X OOO %% +O .XoXX  X. + XX $@oO .Xo@#o@#@@ .@ . .. $$$.",
"X.$$$XXX..XO .O++.$O%#OXOOXOOXOo @@X.XO##+#@X X   XX  .XXX#o",
".XX .XO ..X  X XO @o#O++X +XX. o#O$X . XoXOOX .XXXO+++O#X o ",
" XX  .XOX $XOO ..##o @ OOOO  $  ## . X..@. +XX. oXOOX+#X $..",
"$$ X+O. X .O++XX+%%XX@ OOOX# o# +%+ .  $$.. +OXX .Xo.X XOX..",
".X$ X . .$XOOo  O+%+X XXXO#ooO%# XX  X Xo . @XXX X  .. X+++ ",
" O   o  X.OX+o.@XXOooXX .#@X#o@+XXO@X++o+ o $  Xo.+OX $..Xo.",
"XXX  XX   +OX  o  @   O  +OXOO@O@ Oo .. @.XO X..o O#X. +oX o",
"X  XXO @@o###o@ooX@. o@ o## .O@ +#O+ $$.  .OOO+XX@#+#oO#+X@@",
".$$XXOOXo%+#+#++o o#@##+O@@OOXX..XXoO.$O%O+X XXOo.. .X @o#O ",
"...$..X  X++%++%X@ooo%#Xoo O+O$$$..@XOOX%%%+.o  o@...$ XXOO@",
".oO..XO# @#O+%%%@##.oXoOOO++#+X@...oOX . XOO@ $##o### .#%OOO",
".o%XOOO%O@@.@ @@o@o@@@o@OX+o.$ XX. #OOX OOOOO@ X@#+O.X o+oXO",
"X.  .oOo..@@ @.. %##@#+XoO++o.X$XO .X$.. X+O+#oO+#Oo.. @oo@X",
" .....ooX@o##o@..o#+@o###@@o@+##O X@.$$.#+%O++#@++oo# $@ ..$",
". .  ...oo@X%o@$$.O+@oX @..XXX#%+X @+X$.@ +XOX .X%+ o@@X..$X",
".  $$ @@...#@@o@@XoOOOO O##OO@o##@.@Xoo#@.XXOOXX.$OXoo$$$..$",
"##o  @oO$$$ .@ X. X .O+.@ o#Oo@oooo@  #oX . %+#+O$Xoo+@...$.",
"@ .$o##X   Xo+O++XOXX+o@o@X%+o..oO++%o@XXXX +%%%+%O   O#o ..",
"%o . +###@oOOO O++O+ %#Ooo+%O@@@ .XO%#o+X#%+oOO+ O+OO .+Ooo$",
"+@.. @ o# X  OO.$X#O +++++o ooX+o@@@ O++#+@#O$X+ XXOOo Xo##.",
"++ ..@.o O%+##+X  X.XOX@ O#o#@O%o#o@X+X#%+@X X+O.OX$.O ##@O ",
"+%#X  .$.XO+++##+#%+o%O@##%XO%%%O$O.  X%%OOOO%+OOOOXXO++o  X",
"++XXo##.oo. #++@XOX#%+##++X.%%O+X# $+# +++O+%%XOXXX O#XOX +o",
"Oo.oO%+@ @oO#%+OooXo%+#+#@oo%# +++#X . oO++%++XXXO+#OX X@#%O",
"O#  o+%XXXXX++oX  Oo@o  Xo#Oo#o.X#oX#@o++OOX+%XOO+##++#@oo O",
"..  $. .   XX+o@@ X+#OO Xo@XO.##.o#+%%#+%%+XXO++++XXOO+#o O ",
"$...#o$$X.XX+%+#oo#%%o%%+oo X #%O @XOO+++%%+O#@XOO++% XO%@XO",
" ... o o.$. .@@@@o@.. XO XOX XXOo .X+XXXO+XO+O.@  XXO  $.X $",
".Xo@...o@$.@o.@@@.@OX .XO X.... X $O++  OOX O XXOX .$XX X ..",
"$.$ XX $ o@@@@o...@#+  OX+ . @o . X@XOXOX+% +X.$ oX .  XXo .",
"....... oo@@@@ .$.$$ o  .  .o@  $$.XXX . X$.O+X.$.%oXoXO   .",
"$@@@$.$...@@@ X $.# @ X++ ..@ $XX.oX+OX$XX.XXX   $ XXO@ O  .",
"$.#O $..$.@$.X X..ooOO XooX.oXX X X XXX .Xoo .. X.$. @ #@ X$",
"X.o#X.$$$$$$$.O ..  o+X.  +# . $. O+   . XO+X.XOOX.XX OX # X",
"+@.$...X.  .$.X $$@o@X . X#++XXo.  . X.$.O O .$.XX..  @#@o@ ",
"@o ...@OooX.@.$...oo@#@ $ .@oX+%@ .@   .X.# $ .$    X .+@ @@",
".@ ......  .. ...$ oo# . X#..###oX.@@  .+o.$...$$$..X@ OO.@o",
"..o@@@.$$$. . oOoOXo#######XO@o# #@  @#X++#X .   $.@X@oOoX  ",
".$. @#o$ OOo+O...Xo@...@.oO#o@ ..#OOOX+%#+%+#o..X+##+#OooXX ",
".$.$.#OXXO%%+o$.$.@.$$..@XXoooO@@$..X .+%O%++#.@@@o++ooo @o@",
"@ .. #OXX Xoo@..$o@@Xoo.@%%XO#o+%XXO@# .%+++#%@o@$oX@o#OO#o+",
"oo@@@++X#@+OoO . o@#+O X #%o@#o+%+%OO%@ o.Xo. oo#o@ @ XX@@@ ",
"@.#+o.o@@ @+#Xoo@o+###  o#o#o#%.o#@o#+X #@  .$.%%##++X@o#%+@",
"###oo@...Oo#+o###o+#@##@.@@@@@#OOo#@#+++oo%o .@+##@o+o@oX#+%",
"+%O@ o+X@ @@OX@X @@## #. .  .@OX  O @ ++XO%+o$ XXO##+@o. O  ",
"o%%@  X#oo#    o X@$ .#o $.@.@ooO   @o..O+@XO#XX#XOX+.X.@ .O",
"O##+#XX #o@.. ++##@$.@o+@.@oo o++@o@oO.$$  X o ..$.X% $  XO%",
"..XX++++#O @@.#%%+#+O .O++@..##o@.#%#OOX Xo%o#+ O.OO+XXX.O o",
" OX. #+##+@++##O+# XOXXOo%#@##%%Oo@###%@o#@OOO%OXXX%%%OOOOXX",
" XOXoX X+%XXXOX.O%@X XO+X##+%X%#o o@ Xo  . @ ..  . OO+OOX o+",
".X+##+OX.%%@ X  ++ OX$.#X#%#+ o#@$.+ . O%+o@#.$.X.@..o  o+# ",
"o%%+@X++O+OO+X+%+OoOX. ++%#oX@@%%#.OX. XX+%++XXo+O@.@ ##+O@#",
" @XOX.+++++%++%%  XX@XOoXOO+#@@X+%%%% O@. o##@.$.@+#@.##XX@#",
"X O+#XXXXOOo##O#@..o#+XX@.X++OO@ ++%+ .oo@o+#X .$@++@oo..##o",
"X X++OO@XOXXX.X+oXo%##o##Xo+OO%%oX O%  . @XO ...@oX  O..#Oo#",
"++.X++++++#+OO o#++#o@XXXO#XOO%O%+OOO. .. $O@ @@.o   X #+oXX",
"++X OX OO+O+++XX .OoO+O   +X. XO++%+  @X@@X#oo@@@+# ##+#%%  "
};
