/* XPM */
static char *_22636ba45d7422ce09af09e9c19cd42G09cFkkVrvuTW7XS[] = {
/* columns rows colors chars-per-pixel */
"48 48 5 1 ",
"  c #607B07",
". c #5B7606",
"X c #647F09",
"o c #547005",
"O c #6A840B",
/* pixels */
"O .X   ...ooo OX..  X  XXXXXX .OOX.. XOOOOOOX XO",
"OXXXX .  ooo.   XXX X    X  XX XX...  XOXOOOOOOO",
"XOOO   X oX.o O.o.   .. .XX  X ..o .XXXXXXXOXXX ",
"XXXO  XO XXX. X.o.o. . XX..OXXX ... XX  .oo..   ",
"OXX X  XO.. X o.XX....XOX o XXXOXO.. X  .... XOO",
"OOX. OXOX.o  ooo X ... .o o.XXXOOOX.. XX XXX.. X",
"X XX XXO ..XX.oo   X. ..o.  X ...XXOX  X. XOX..X",
"  XX XXXo. X X XX  Xo... . . XXX X XXX X..XX.   ",
"XOX .  .oo. .  XX.  ..X   ...OOO X ... X......  ",
"OOOX   oooooo  ..o..  ..OOXX  X.oooX   XOOOX .. ",
"O OOX.  ooooo.. ......ooXOOO . X.oo XX..  XO.o..",
"Xo. .o.  X .. .    ..o OX XX.. X ...XX..o XX.o..",
"XXXX . X   XO.o. o...o.X X XXOOO oooo.oo. OX   X",
"XOOOOX   o. OO.o ...XX .oo.X XOO.o.o. .o.. OXOOO",
"OXOOXXXXX.. XX ...X  .. .o.X .  XX...XX .  XOOOO",
"..XX .OOOXX  X  Xo   ... ..  X.. XXooo.O  . OOOO",
".XO o. XX ..oo.. o   oo.XX .oo . . ooooo. X . XO",
"oXOX...   .  ....oo..o.   X .o.o.oo. .. .. X...O",
"o.OOXX .o..oXO   ...... .o.  ..oo.  Xo   X  ...X",
"oo XXOO oooo..oo.o .oo.oooX X  oo...oo...X.oo X ",
"o. .o X X oo ...oooo. oooo. X. .ooooo.    . . ..",
". X.ooX ..oo.  .o... .oo .o. XX.ooooo ..oo.  .o.",
"XXXX  XXX.o. X ...X . . .  .oooooo..oooo..oo.   ",
"OOO XOXXX.oo. .ooooo.  Xoo  .oooooo.. ..oo. ..  ",
"XOXX XXOOXX    XXX.   XX . O.o  oo.o X X   XOXXO",
"OXXXXXXOX X XXX..X . XOXXXXO o. .o .XX  XOX X XO",
"OOOXXOX    XOOOX  XX XX  OOX   X .X..OOXo X   XO",
"OXXOOOOX XXXOOXXX ..XOXXO OX . OXXX  XXO  .   XO",
"OX.XOOOOOOX XOX ..    X XXX    XX . OX XOXX .  O",
".X XOOOOOOO XOO ..XX o.XXOX  XXOX . OX  OXX    X",
". OOOX  XOOOOOX.  XOX ..o.XXXXXOX  OOOO XXXX.  X",
"XXXOOOXXXOXOOOX ..XX  X.oo XXXXX. OOOOOOOX X. X ",
"OX   OOOXXX     ......    .  X..oo.XXOXOX  .. XX",
"OOOX. X.oo.OOO XOOXX ..  XX   .ooooo OX..oo..  X",
"XOOX..  oo.OOO XXXOXo....o X  X ooooo  O .... ..",
"    o.. ...XOX .o.XXoo ..ooo.o.X. .X ..      .  ",
"  o.X X .o... oo..X ....o ...o. .  OO.oo.o. .oo.",
"oo.  XX  .... .o.. XXXX .. . .oo.oo O ...o.  ..o",
"oo.X .. .X X X XX  XOXXX. XXX   .o..  ...o  O X ",
".oo.  .. OX.o. OO . O   .o   .XOOX  .XXOXo.OXX o",
"XX .ooo.  X.ooo..X oo X.o.X.o.. X o.o. X.oo     ",
"X.XX..oo o...o.   ..o.oooo. ..o      . X ooo.. .",
"X..o.  oo  XXo. XO..ooo.o.XX.XX .   OOXOXX.  ...",
".oo..o.oo..ooo..XO.ooo.  ooX.XX .ooo X.. XX..o..",
"X ..XooooooooXX  .. ..o  .oooo  X oo OO o.X..  .",
" Xoo.  .....oXX.o.. X.o.o..oo.XX  ..XOO .   O ..",
".  ooo.o..  ..oo. ......ooo...XOXX  XXX XX X.o..",
"o.X...ooooo  X.... X .XX.ooooXX XX..  X.. .ooo.X"
};
