/* XPM */
static char *d46bae230f52485afc9460959fa5bc54Uz2vkC6bokIX2FP4[] = {
/* columns rows colors chars-per-pixel */
"80 80 215 2 ",
"   c None",
".  c #030202",
"X  c #0E0C0B",
"o  c #0A0908",
"O  c #110D0E",
"+  c #15150F",
"@  c #120F11",
"#  c #141212",
"$  c #191613",
"%  c #1C1916",
"&  c #1C1A19",
"*  c #191618",
"=  c #231C16",
"-  c #251E1A",
";  c #1B2114",
":  c #2C241C",
">  c #222C1A",
",  c #2C2C1B",
"<  c #262517",
"1  c #322A1E",
"2  c #372A1D",
"3  c #26321D",
"4  c #29351F",
"5  c #37391C",
"6  c #242223",
"7  c #2C2B29",
"8  c #342C23",
"9  c #3C2922",
"0  c #2D3C22",
"q  c #2A3621",
"w  c #3C3225",
"e  c #363726",
"r  c #343231",
"t  c #3C3939",
"y  c #243336",
"u  c #433425",
"i  c #423729",
"p  c #453A2A",
"a  c #4A3C2A",
"s  c #473826",
"d  c #593E29",
"f  c #443F3C",
"g  c #3D401F",
"h  c #2F4125",
"j  c #354B29",
"k  c #334728",
"l  c #3B532D",
"z  c #3E582F",
"x  c #3D5A30",
"c  c #3F4738",
"v  c #4D422C",
"b  c #484926",
"n  c #54452E",
"m  c #5B482F",
"M  c #4C5225",
"N  c #4E512E",
"B  c #555A27",
"V  c #4C4337",
"C  c #554531",
"Z  c #5C4B33",
"A  c #564834",
"S  c #405E32",
"D  c #5D5132",
"F  c #624D34",
"G  c #635236",
"H  c #645439",
"J  c #6B553A",
"K  c #6D5A3D",
"L  c #725D3E",
"P  c #775A3B",
"I  c #61472F",
"U  c #446335",
"Y  c #4A6D3A",
"T  c #476738",
"R  c #4F753E",
"E  c #50763F",
"W  c #5D652A",
"Q  c #75613E",
"!  c #6E7932",
"~  c #6B7532",
"^  c #727D35",
"/  c #656C2F",
"(  c #423F40",
")  c #32474A",
"_  c #454242",
"`  c #4B4849",
"'  c #514E4B",
"]  c #5E544A",
"[  c #5C5A5A",
"{  c #575553",
"}  c #6C5C43",
"|  c #665444",
" . c #725D41",
".. c #655D56",
"X. c #624E45",
"o. c #5F6056",
"O. c #756243",
"+. c #7B6543",
"@. c #7D6944",
"#. c #75684B",
"$. c #747155",
"%. c #576B69",
"&. c #686767",
"*. c #757374",
"=. c #7B7979",
"-. c #6D7C75",
";. c #856D49",
":. c #866A46",
">. c #8C734C",
",. c #86724A",
"<. c #92744C",
"1. c #92794F",
"2. c #967D52",
"3. c #9A7E53",
"4. c #947F5E",
"5. c #857255",
"6. c #A77B55",
"7. c #B87C5C",
"8. c #A46E51",
"9. c #807E7F",
"0. c #867964",
"q. c #7B8738",
"w. c #8B9A3E",
"e. c #899543",
"r. c #9D8355",
"t. c #818953",
"y. c #A48356",
"u. c #A38658",
"i. c #A78A5A",
"p. c #AB8C5C",
"a. c #AC8559",
"s. c #B48A5D",
"d. c #B1935F",
"f. c #BE975F",
"g. c #AE905F",
"h. c #96A643",
"j. c #9FB047",
"k. c #A6B94A",
"l. c #988B77",
"z. c #8E8B6E",
"x. c #A98E64",
"c. c #AD9162",
"v. c #B59562",
"b. c #BD9B65",
"n. c #B99766",
"m. c #A88F6A",
"M. c #BFA068",
"N. c #C98866",
"B. c #C19E66",
"V. c #C49C6A",
"C. c #D7926F",
"Z. c #C4A26A",
"A. c #CAA66C",
"S. c #CDA96E",
"D. c #C1A167",
"F. c #D1AD6F",
"G. c #C9A771",
"H. c #D3AE71",
"J. c #D0AD7D",
"K. c #D6B173",
"L. c #DCB575",
"P. c #DDB876",
"I. c #DBB679",
"U. c #DEB97A",
"Y. c #E8A277",
"T. c #E4BD7B",
"R. c #EABE7D",
"E. c #E2B978",
"W. c #F0A27A",
"Q. c #AFC34C",
"!. c #B8CE52",
"~. c #BDD452",
"^. c #B6CB4F",
"/. c #C3DA56",
"(. c #CDE65A",
"). c #CFE859",
"_. c #C9E257",
"`. c #D0EA5B",
"'. c #E6C17C",
"]. c #EBC27D",
"[. c #6B9598",
"{. c #7CABB1",
"}. c #7EB8BF",
"|. c #898787",
" X c #9B9997",
".X c #979287",
"XX c #A89A85",
"oX c #A39D97",
"OX c #A19FA0",
"+X c #95AAAC",
"@X c #A8A8A8",
"#X c #B9B8B7",
"$X c #AFB1AC",
"%X c #AFA28F",
"&X c #D4B482",
"*X c #F7AD83",
"=X c #F2B482",
"-X c #EBC381",
";X c #F1C782",
":X c #C0BFC0",
">X c #8CC7CD",
",X c #B7DADD",
"<X c #CDCCCB",
"1X c #D3D1CE",
"2X c #D3D2D3",
"3X c #DCDCDC",
"4X c #E0DFDF",
"5X c #D9DDE0",
"6X c #E6E5E6",
"7X c #EBEBEC",
"8X c #E9E9E7",
"9X c #F5F4F4",
"0X c #FCFCFC",
"qX c #F8F6F5",
"wX c #F2EFF2",
/* pixels */
"                                                              < w : + %   o X                                                                                   ",
"                                                          e G ;.3.} s G Z o .                                                                                   ",
"                                                      w L Q -.{.-. Xr b.L.< .                                                                                   ",
"                                          # 6 #   & G u.n + {.,X+XwX=.L.E.C C a $ p 8                                                                           ",
"                                          # |.# v p.H.v . y >X:X#X3X4.T.].K.T.F.n 2.Z.c.>.A                                                                     ",
"                                        @ . ; X p.;XO.o ) }.>X+X6XoXn.].].].].].b.Z I.;X-XI.x.H                                                                 ",
"                                        7 :.+.L K.i.7 [.>X{.+X8X#Xs.].].].].].F.v.n L Z.I.-X;XT.c.Z                                                             ",
"                                        } E.-X].].Z.#.%.%.OX5X$Xn.].].R.].].T.d.1.:.K A A H >.S.-XI.O.                                                          ",
"                                         .-X].R.E.b.f.a.:.| X.p.].].].].R.].].].].].].].H.d.:.H +.n.U.+.                                                        ",
"                                         .T.].].T.a.6.b.V.s.:.d a.P.].].].].].R.F.B.B.A.F.].;XE.g.H H p.A                                                       ",
"                                        i b.T.E.L.a.8.7.7.s.H.<.:.p.n.L.].].].F.I m m I G +.a.F.].T.u.A G =                                                     ",
"                                          w C u u ,.F.s.N.C.7.s.<.6.F.S.R.].].E.K.E.E.P.L.D.y.2.p.P.].H.G X                                                     ",
"                                          |.`   = u F.R.N.N.W.C.y.d A.].R.].].T.i.P.].].].].].].S.p.F.].E.H #                                                   ",
"                                                X I P.W.*XC.7.W.R.a.I A.].].].].3.@.T.R.].].].R.].T.B.B.].P.Z                                                   ",
"                                              : +.P.].=X*X*XC.s.R.E.P y.L.].].].d.= ,.E.].].].].R.].R.B.Z.].V.w                                                 ",
"                                            w u.].].].].*X*X*XC.f.R.a.A.R.R.E.L.D   = :.E.].].].].].].].I.].'.@.                                                ",
"                                            +.S.P.].R.].R.*X=XR.f.K.S.L.].].d.n %     % F D.].].'.].].].].].].r.                                                ",
"                                            p 1 y.].].].].R.].].L.S.R.].].].d.$           1 +.b.T.-X].].-X-XK. .                                                ",
"                                                8 >.L.].].].].].R.R.].].].H.1.:               - A 1.p.v.p.;.v                                                   ",
"                                                  % a 2.H.].].].].R.R.K.B.L $                       $ % %                                                       ",
"                                                      % i >.S.-XL.f.:.u 1 1   #                                                                                 ",
"                                                            w ;.B.S.y.1     5 q.M                                                                               ",
"                                                                p u.p.8     q.`./.! ,                                                                           ",
"                                                                @ V w     , Q.).(.(.w.,                                                                         ",
"                                                                # 7 6     , Q.).).).Q.M g                                                                       ",
"                                                                &   6   , W /.).).).~./ ! M                                                                     ",
"                                                                  *   @ 5 ~ ~.)._.).)./.w.w.b                                                                   ",
"                                                                    r 9.$.! h.).).).).)./.w.~ b                                                                 ",
"                                                                    =.wXz.h.W _.).).).).`._.q.~ b                                                               ",
"                                                                    [ 7Xt.~.W w.).).).).k.q.~ B h.e                                                             ",
"                                                                    t 2Xz.^.k.M ~.)./.^ v / /.e.k.k.,         r  X_                                             ",
"                                                                      @X.Xk.(.q.q././ 2.K.Q e.q./.).w.<       6 <X$X' {                                         ",
"                                                                      *. Xj.`.!.B B Q ].'.S.u h.`.(._.M       w z.3X4X@X                                        ",
"                                                                      _ OXe.(.(.B < D P.'.'.y.! (.).~.N t   $ r.A.$X0X6X_                                       ",
"                                                                      # *.t./.`.j.B , i.'.'.'.^ k.(.^ OX:X6 i I.T.l.6X9X[                                       ",
"                                                                      A ..$.~.(.)./.h.,.'.'.'.,.B ^  X0X3X6 L ;XR.S.XX9X|.r                                     ",
"                                                                    a S.x.e k.(.(.(.q.3.'.'.'.J t #X0X9X*.; j H.;X-Xl.7XwX=.                                    ",
"                                                                  1 p.].L.9 q.(.(.h.G K.'.].2.' 2X0XwX|.q R l T '.E.XXqXqX*.                                    ",
"                                                    J F         : 2.].].H.V M _.j.N S.'.].M...4X0X7X=.q Y Y Y 0 x.E.XX9X6X_                                     ",
"                                                    a.K.P u 1 1 ;.p.S.T.4.#X[ ! b M.'.'.K.} #X0X2Xo.k R o.q.R x H U.%X0X@X&                                     ",
"                                                    :.H.E.H.A.A.1.>.@.O.-.4Xo.5 b.'.'.'.@.|.9X Xc x R R R R R R 5 5.<X4X_                                       ",
"                                                    2 I V.-X].].+.Z.S.+.K ] } G.-X'.'.1.{ OX[ j Y R R R R R R R 3 |.2X{                                         ",
"                                                J a.V.S.s.<.a.b.3.+.v.U.P.P.'.'.'.'.r.$ 0 k S R R R R R R R R E h ( r                                           ",
"                                              u V.R.s.:.K.3.<.b.L.Z 5 Z.'.'.'.'.'.i.= > S R R R R R R R R R R E h X                                             ",
"                                                s d 9 s >.H.-XA.>.>.S.'.'.'.'.'.Z., j R R R R R R R R R R E R R h                                               ",
"                                                     .&Xn.p m  .D.E.M.K.'.'.'.P.K ; R R S T R R R R R R R R R R 3                                               ",
"                                                  u m.&X} - u 3.Z.+.8 r.'.'.'.r.' r S S h Y R R R R R R R R E U $                                               ",
"                                                    a u @  .n.1 ,   O.U.p.r.-X#..Xt ; 3 U R R R R R R R R R E j #                                               ",
"                                                          C Z     8 Z.K.p H T.O.) 3 + h R R R R R R R R R R Y >                                                 ",
"                                                                  e H.3.& >.K.1 > j 3 Y R R R R R R R R R R S ;                                                 ",
"                                                                    Z 8   Z H o l 3 x R R R R R R E R R Y Y l                                                   ",
"                                                                              < x 3 R R R R R R R R R R q.o.k                                                   ",
"                                                                            ; l h l R R R R R R R R R R R E 0                                                   ",
"                                                                            > S > Y R R R R R R R R E R R R q                                                   ",
"                                                                            % < h R R R R R R Y R R R R R Y >                                                   ",
"                                                                            Z p.j x R R R R R Y E R R R E U +                                                   ",
"                                                                            3.;XL , e k S Y o.q.R R R T j ; +                                                   ",
"                                                                          8 V.E.Z n.v.O.p , ; q 4 > ; + +                                                       ",
"                                                                          8 V.V.Z U.].-XI.b.i                                                                   ",
"                                                                             .x.J '.-X&X-XI.v                                                                   ",
"                                                                            : G F U.'.-X-X].;.                                                                  ",
"                                                                              = = u.-XT.T.].K.p                                                                 ",
"                                                                                $ w n.-X-X].].p.-                                                               ",
"                                                                                : J H U.R.].].].+.$                                                             ",
"                                                                                  H Q r.].].].].P.n                                                             ",
"                                                                                  : 1.H F.].].].].f.:                                                           ",
"                                                                                    L >.>.].].].'.].>.$                                                         ",
"                                                                                    i d.K S.'.].].].E.G                                                         ",
"                                                                                  } g ,.p.,.].].R.].].A.w                                                       ",
"                                                                      C @.y.d.D.F.L.S.p.P.Q A.].].].].].r.-                                                     ",
"                                                                & & G F.'.'.].].'.].'.'.'.d.>.].].].].].T.K                                                     ",
"                                                                    K r.Z.E.T.E.K.F.A.f.f.d.G K.].].].R.].S.i                                                   ",
"                                                                        i p G 2.i.b.b.D.S.A.n.P.].].].].].].1.                                                  ",
"                                                                $       _ &.} I.].].].].].].].].R.].].R.R.].L.F                                                 ",
"                                                                @ # - &.3X9X.Xv.P.].].].].].].].].].].].].].].A.w                                               ",
"                                                                    ` 7XqX6X7XoX$.3.B.L.R.].].].].].].].].].].L.L $                                             ",
"                                                                    [ 2X|.@X0X0X8X:X Xl.l.m.x.n.Z.Z.Z.V.G.&X&XXXoX[                                             ",
"                                                                      t &.8X0X0X0X0X0X0X7X3X<X<X<X1X1X1X2X7X9X0X6X&.                                            ",
"                                                                        7 ` =..X#X2X6X8X7X9XqXqX9XqXqX9XwX6X2X@X&.                                              ",
"                                                                              X * r f ( _ ' [ ..{ ] ] { _ t r                                                   "
};
