/* XPM */
static char *_4fa3749d897470ca718fa48b9ee5acfECWaJwF8sZFVMFBl[] = {
/* columns rows colors chars-per-pixel */
"60 60 221 2 ",
"   c #000000",
".  c #010305",
"X  c #0E0605",
"o  c #0B0907",
"O  c #1D1C0E",
"+  c #151111",
"@  c #1C1610",
"#  c #1C1D12",
"$  c #1F1E17",
"%  c #201B15",
"&  c #192010",
"*  c #2B2116",
"=  c #212D17",
"-  c #27221E",
";  c #2E2318",
":  c #2A251E",
">  c #372C1C",
",  c #392E1C",
"<  c #26361A",
"1  c #27371D",
"2  c #28381C",
"3  c #373616",
"4  c #3E361F",
"5  c #3E3A1E",
"6  c #3C3F1C",
"7  c #3C3020",
"8  c #3D352D",
"9  c #353D3B",
"0  c #473927",
"q  c #413529",
"w  c #463928",
"e  c #4B3B2B",
"r  c #483E28",
"t  c #4C3C28",
"y  c #2E4021",
"u  c #2F4221",
"i  c #354A26",
"p  c #375229",
"a  c #3D5A2E",
"s  c #42461F",
"d  c #4E402B",
"f  c #4A4C29",
"g  c #53432A",
"h  c #53432B",
"j  c #52472A",
"k  c #55462E",
"l  c #58432F",
"z  c #534A2A",
"x  c #505623",
"c  c #5E4B33",
"v  c #5D4C34",
"b  c #644F35",
"n  c #645135",
"m  c #645337",
"M  c #695436",
"N  c #6F553A",
"B  c #6B593A",
"V  c #6B5A3D",
"C  c #725D3C",
"Z  c #725F3E",
"A  c #566022",
"S  c #416231",
"D  c #456934",
"F  c #486E37",
"G  c #4C7439",
"H  c #4E763C",
"J  c #4E773C",
"K  c #61692A",
"L  c #69732B",
"P  c #68732C",
"I  c #717D2F",
"U  c #6E6137",
"Y  c #78623F",
"T  c #494545",
"R  c #4F4C4C",
"E  c #514C45",
"W  c #545151",
"Q  c #545E52",
"!  c #715D40",
"~  c #755F41",
"^  c #796543",
"/  c #7C6440",
"(  c #7F6941",
")  c #6E7544",
"_  c #65635A",
"`  c #746B5F",
"'  c #787B5D",
"]  c #625F61",
"[  c #6A6868",
"{  c #6E6C6C",
"}  c #72706F",
"|  c #637973",
" . c #777577",
".. c #7A7878",
"X. c #816844",
"o. c #876B44",
"O. c #856A46",
"+. c #856D47",
"@. c #876E46",
"#. c #856C49",
"$. c #837A40",
"%. c #877844",
"&. c #8C734B",
"*. c #8C744B",
"=. c #8F774D",
"-. c #91714A",
";. c #94794F",
":. c #9E794E",
">. c #826E53",
",. c #927A50",
"<. c #967C50",
"1. c #967C51",
"2. c #997F51",
"3. c #768232",
"4. c #808A37",
"5. c #828F37",
"6. c #8F9C40",
"7. c #988052",
"8. c #9E8253",
"9. c #9E8457",
"0. c #A08556",
"q. c #A28656",
"w. c #A88656",
"e. c #A58A59",
"r. c #A78C5B",
"t. c #AA8D5C",
"y. c #B2875B",
"u. c #AE905D",
"i. c #B4935F",
"p. c #95A640",
"a. c #99AA40",
"s. c #96A44E",
"d. c #A0B144",
"f. c #A9BC49",
"g. c #878864",
"h. c #9C8766",
"j. c #898075",
"k. c #81817B",
"l. c #989C7A",
"z. c #B59761",
"x. c #B59763",
"c. c #BA9561",
"v. c #BA9B67",
"b. c #BD9B64",
"n. c #AD9979",
"m. c #9AA267",
"M. c #9CA272",
"N. c #BCA37B",
"B. c #C58B63",
"V. c #D28F69",
"C. c #C09E67",
"Z. c #C29F67",
"A. c #D4946E",
"S. c #C3A268",
"D. c #C6A168",
"F. c #C7A46A",
"G. c #C9A76B",
"H. c #CDA96D",
"J. c #D0AB6F",
"K. c #C7A975",
"L. c #C2A87F",
"P. c #D2A970",
"I. c #D2AE70",
"U. c #D6B272",
"Y. c #D9B274",
"T. c #DBB576",
"R. c #DEB778",
"E. c #E6A176",
"W. c #E1BB79",
"Q. c #E4BC7A",
"!. c #E7BF7C",
"~. c #ECBD7E",
"^. c #B9CE4E",
"/. c #BED452",
"(. c #C3DB53",
"). c #C2D854",
"_. c #CBE457",
"`. c #D0E959",
"'. c #EAC17D",
"]. c #E8C37D",
"[. c #ECC27E",
"{. c #EBC57F",
"}. c #EDC47F",
"|. c #EFC57F",
" X c #6C8688",
".X c #669197",
"XX c #6899A0",
"oX c #848180",
"OX c #8B8988",
"+X c #959682",
"@X c #989692",
"#X c #989598",
"$X c #9C9B9C",
"%X c #AB9D86",
"&X c #B0A492",
"*X c #B2A99D",
"=X c #86B9BF",
"-X c #A6A3A0",
";X c #A4A2A3",
":X c #B6B6B7",
">X c #BEBCBC",
",X c #C5AC83",
"<X c #CBB187",
"1X c #D4B180",
"2X c #F7AD84",
"3X c #EFBB80",
"4X c #F2B882",
"5X c #C6B8A2",
"6X c #DEC59C",
"7X c #E9C281",
"8X c #EDC683",
"9X c #B1C4C6",
"0X c #A5CDD2",
"qX c #CAC6C3",
"wX c #D2D1D1",
"eX c gray87",
"rX c #E3E2E3",
"tX c #E7E7E7",
"yX c #EEEEEE",
"uX c #F4F3F4",
"iX c gray98",
/* pixels */
"                                              t b : % o X                                                               ",
"                                          t B ' g.E X.O..                                                               ",
"                                % +   t +.g Q 0X9X-Xb.G., 5 @                                                           ",
"                              o 9 : C S.g . .X0XwX&XU.!.R.U.M u.Z.9.m                                                   ",
"                              % , , D.=.9 XX=X9XqXb.].[.[.!.t.^ R.7XQ.z.^                                               ",
"                              #.R.T.W.&.|  X:XqXN.!.[.[.[.S.;.B Z X.;.G.R.8.                                            ",
"                              1.}.}.R.c.u.&.~ -.W.}.[.[.[.].[.[.W.J.t.&.=.z.1.                                          ",
"                              O.!.[.T.:.y.c.b./ :.H.Q.[.[.T.;.( o.0.F.W.H.&.~ h                                         ",
"                                C B M y.B.B.B.y.-.c.J.[.[.R.b.Z.D.c.q.w.D.!.b.g #                                       ",
"                                ]   X o.~.A.V.E.w.o.Q.[.[.!.t.Q.[.[.[.].H.Z.W.J.j                                       ",
"                                    g G.4X2XA.V.~.-.:.Q.[.}.;.Y ].[.[.[.[.W.Z.R.D.q                                     ",
"                                  #.R.[.~.2X2XA.J.G.i.!.!.T.n + +.W.}.[.[.[.!.Y.[.,.                                    ",
"                                  q.R.[.[.~.4X~.D.Y.T.}.Y.c       B Z.'.}.[.[.}.}.t.                                    ",
"                                    X.Y.8X'.[.[.Q.Q.}.8XH.0         # B r.J.Y.I.u.V                                     ",
"                                      z 8.T.}.}.'.'.U.b.h @               7 w t                                         ",
"                                          t ;.J.J.w.d *   %                                                             ",
"                                              l 2.F.z   4 d.5.                                                          ",
"                                                $ v     P `.`.d.6                                                       ",
"                                                # -   @ 3.`.`._.K s                                                     ",
"                                                  +   5 p.`.`.`.d.3.x                                                   ",
"                                                  - ] ) 4._.`.`.`.^.4.j                                                 ",
"                                                  W wXm.I f.`.`.`._.a.K x                                               ",
"                                                    >XM.f.L _.`.f.L 4.4.p.z         `                                   ",
"                                                    #Xl.(.4.a.d.%.e.4.6.).f.6     q :X{ W                               ",
"                                                    ` +X^./.A f H.{.=.5.`.`.L     0 %XeX>X                              ",
"                                                      k.f.`.L 3 r.{.R.$./.^.'  .@ q.K.wXyXR                             ",
"                                                    w _ s.`.).p.%.'.8Xq.I g.eX:X; T.Q.N.eX..                            ",
"                                                  8 v.;.K _.`.d.7.'.!./ } rXtXQ y e.8XK.wXeXW                           ",
"                                                  q.}.b.3 /.f.( Y.}.e.OXuXrX_ p J f J.N.tXwX8                           ",
"                                      N b.N 7 5 X.b.Q.n.k.I U H.7XF.j.uXqXQ a J J a =.L.tX$X                            ",
"                                      t w.Y.J.D.=.8.~ k.OXg G.{.T.>.>X@Xa D J J J F r *XqXe                             ",
"                                    l O.,.c.J.Y.=.S.b.r.q.U.{.W.M E Q a G J J J J J y k.T                               ",
"                                  q i.H.8.c.-.i.i.r z.}.{.].W.~ O p F J H H H H H H 2                                   ",
"                                    e e b 8.Z.b.7.z.R.{.].{.7.< F G G J H H H H H G 1                                   ",
"                                      N 1X>.; / H.7.r.{.{.F.r i F p G J H H H H H D %                                   ",
"                                      l ! * &.v d 0 v.i.I.7.} = < S J J H H H H J p                                     ",
"                                            j     *.J.0 z.;.9 = 2 J J H H H H H G 1                                     ",
"                                                  C ^ - 7.> < < D J J J H H H H F $                                     ",
"                                                          & y i J J J J H H H J S                                       ",
"                                                          y y D J J J J H H H J a                                       ",
"                                                          < y J J J G J J J J J a                                       ",
"                                                          / f D J J J G J J J J y                                       ",
"                                                        N R.M f i p a D D S p < o                                       ",
"                                                        #.P.Y R.b.,.g - # @ +                                           ",
"                                                        v q.&.7X7X8Xq.                                                  ",
"                                                          h ~ !.7X7XF.7                                                 ",
"                                                            O r.7X'.7X;.                                                ",
"                                                            > M H.[.'.W.n                                               ",
"                                                              C &.'.[.}.G.e                                             ",
"                                                              n ( b.}.[.[.8.                                            ",
"                                                                ;.*.!.'.'.!.Y                                           ",
"                                                          ^ V ^ @.8.z.}.'.}.J.e                                         ",
"                                                  : *.b.J.T.W.!.U.U.;.W.[.[.8Xt.                                        ",
"                                                    t.I.W.W.U.I.G.G.&.Z.[.[.[.].#.                                      ",
"                                                      w h q.b.G.H.J.G.Y.[.[.[.|.H.t                                     ",
"                                                o   R $X@Xb.[.}.}.[.[.[.[.[.[.[.8Xe.                                    ",
"                                                  % :XuXtX*Xh.b.Y.!.].[.3X7X7X[.~.R.c                                   ",
"                                                    $X@XtXiXrX>X*X&Xn.N.,X&XL.<X6X5X-X                                  ",
"                                                      [ :XwXtXiXiXiXyXyXuXyXyXyXyXeX-X                                  ",
"                                                        + $ T [ } ..>.OXOX1. X} [ R                                     "
};
