/* XPM */
static char *_c7689f4d11446c1f9a6ba22939540cfaFGEiyPqdxElscl8[] = {
/* columns rows colors chars-per-pixel */
"60 60 202 2 ",
"   c #000000",
".  c #330A04",
"X  c #340C05",
"o  c #360E05",
"O  c #371105",
"+  c #371106",
"@  c #391107",
"#  c #391307",
"$  c #3E1607",
"%  c #381008",
"&  c #3A1508",
"*  c #421A0B",
"=  c #431E0A",
"-  c #4A1F0B",
";  c #511F09",
":  c #441F16",
">  c #491C14",
",  c #7B0D05",
"<  c #7E0D05",
"1  c #46220D",
"2  c #49200C",
"3  c #4B200C",
"4  c #4A200F",
"5  c #4D270D",
"6  c #4B290E",
"7  c #56270D",
"8  c #4D2519",
"9  c #532812",
"0  c #502D11",
"q  c #552E12",
"w  c #5C2A14",
"e  c #582C1C",
"r  c #5F3713",
"t  c #5A3916",
"y  c #7E230E",
"u  c #76280D",
"i  c #7E2F11",
"p  c #623012",
"a  c #623014",
"s  c #6B3314",
"d  c #693F17",
"f  c #713614",
"g  c #503027",
"h  c #543226",
"j  c #583327",
"k  c #5D372D",
"l  c #5E3D35",
"z  c #643E2E",
"x  c #603E36",
"c  c #603F37",
"v  c #624116",
"b  c #6B4D1B",
"n  c #784416",
"m  c #794719",
"M  c #79511B",
"N  c #765B1F",
"B  c #744536",
"V  c #7B5437",
"C  c #7E6023",
"Z  c #76642B",
"A  c #684B43",
"S  c #704E45",
"D  c #685044",
"F  c #6F5047",
"G  c #7E5641",
"H  c #73564D",
"J  c #72584E",
"K  c #7D5F54",
"L  c #7D6146",
"P  c #796254",
"I  c #7D6159",
"U  c #850D03",
"Y  c #831206",
"T  c #90230D",
"R  c #842B13",
"E  c #8C2A12",
"W  c #8E2B12",
"Q  c #8B2D1F",
"!  c #833112",
"~  c #8F3113",
"^  c #8C3F14",
"/  c #903911",
"(  c #973F13",
")  c #9C331F",
"_  c #A82815",
"`  c #BD2D18",
"'  c #884015",
"]  c #8E4214",
"[  c #8C4A19",
"{  c #815419",
"}  c #81501F",
"|  c #94521A",
" . c #98511B",
".. c #9A581D",
"X. c #9E5B1E",
"o. c #A85B1C",
"O. c #AA5E1E",
"+. c #885E25",
"@. c #985B2D",
"#. c #806326",
"$. c #846A23",
"%. c #916927",
"&. c #976A25",
"*. c #8B7828",
"=. c #967228",
"-. c #9C7528",
";. c #9D7528",
":. c #866735",
">. c #9E6F30",
",. c #907930",
"<. c #AF6320",
"1. c #AE6322",
"2. c #B26120",
"3. c #B26521",
"4. c #A27E26",
"5. c #A46231",
"6. c #A47634",
"7. c #AF7E3F",
"8. c #C37528",
"9. c #806852",
"0. c #8D655D",
"q. c #8F7554",
"w. c #A96646",
"e. c #AC7657",
"r. c #897469",
"t. c #8F7D72",
"y. c #947C77",
"u. c #9C8C30",
"i. c #938439",
"p. c #A18327",
"a. c #AC882C",
"s. c #B18B2B",
"d. c #A28131",
"f. c #A6903B",
"g. c #B79031",
"h. c #BA9731",
"j. c #B79A3E",
"k. c #DB8333",
"l. c #C49735",
"z. c #CF9934",
"x. c #D99934",
"c. c #EE8D2F",
"v. c #E2A336",
"b. c #E9AB39",
"n. c #F3A937",
"m. c #F7AB38",
"M. c #F4AF38",
"N. c #FFAD3D",
"B. c #FFAE3D",
"V. c #EEB23B",
"C. c #FEB03B",
"Z. c #FFB43D",
"A. c #FEB83F",
"S. c #BF8645",
"D. c #BE8749",
"F. c #A89D46",
"G. c #BD8F57",
"H. c #988371",
"J. c #9C867D",
"K. c #B68D6B",
"L. c #AF8872",
"P. c #AB9B78",
"I. c #B69974",
"U. c #BD9A7D",
"Y. c #D19743",
"T. c #C3B855",
"R. c #F7BA43",
"E. c #F0B944",
"W. c #A69389",
"Q. c #AA988F",
"!. c #AF9F94",
"~. c #ADA292",
"^. c #B2A197",
"/. c #B8A8A1",
"(. c #BBADA4",
"). c #BFB4A4",
"_. c #C1B5AB",
"`. c #C5BBB2",
"'. c #CDC1BA",
"]. c #D0C7B9",
"[. c #B5F5F5",
"{. c #B6F5F5",
"}. c #B6F5F6",
"|. c #D2CAC2",
" X c #D5CFC5",
".X c #DDD7CF",
"XX c #E3DED7",
"oX c #E3E0D0",
"OX c #EFEEDE",
"+X c #F1EFE5",
"@X c #F3F3E3",
"#X c #F5F5EB",
"$X c #F6F5EF",
"%X c #F7F8EA",
"&X c #FCFFEE",
"*X c #FEFFF0",
"=X c #FDFFF2",
"-X c #FFFFF2",
";X c #FAFBF7",
":X c #FFFFF4",
">X c #FFFFF6",
",X c #FFFFFB",
/* pixels */
"                                                                                                                        ",
"                                                                                                                        ",
"                                                                                                                        ",
"                                                                                                                        ",
"                                                                                                                        ",
"                                                                                                                        ",
"                                                                                                                        ",
"                                                                                                                        ",
"                                                                                                                        ",
"                                                                                                                        ",
"                                                                    9 R ` _                                             ",
"                                                                    m ) `                                               ",
"                                                                  o d -                                                 ",
"                                                              p 1.1.1.1.<.n                                             ",
"                                                              7 k.c.c.c.c.m                                             ",
"                                                              9.5.c.c.c.8.1                                             ",
"                                                                e ....| f %                                             ",
"                                                                  X w P !.).!.K :                                       ",
"                                                                  j ).%X-X-X-X+X/.J :     l %                           ",
"                                                                  J.:X-X&X&X&X=X:XOX].).'.W.:                           ",
"                                                                l XX=X&X&X&X&X&X&X&X&X-X@XJ                             ",
"                                            %   L P.            J.-X&X&X&X&X&X&X&X&X&X-X`.:                             ",
"                                          o O * z r.e % O     8 '.-X&X&X&X&X&X&X&X&X&X&Xt.                              ",
"                                          j 4 y.'.;X`.S x     F +X=X&X&X&X&X&X&X&X&X&XOXD                               ",
"                                          G 9 J.Q.'.'./.S     t.=X&X&X&X&X&X&X&X&X&X-X X8                               ",
"                                          3 w B > S S y.F     W.:X&X&X&X&X&X&X&X&X&X-X_.                                ",
"                                          7 w l S h @ % .     ^.:X&X&X&X&X&X&X&X&X&X:X^.K                               ",
"                                -         @ W.OX%XoX~.r.H %   (.:X&X&X&X&X&X&X&X&X&X:XW.H.                              ",
"                            j c           I #X-X&X-X-X%Xy.    /.:X&X&X&X&X&X&X&X&X&X:XQ.                                ",
"                          I |.(.          (.:X&X&X&X-XoXl     ~.:X&X&X&X&X&X&X&X&X&X:X/.                                ",
"                      G ^.+X:X$Xy.      h .X-X&X&X&X:X`.:     J.:X=X&X&X&X&X&X&X&X&X:X'.:                               ",
"                  B 0.'.%X-X:X,XXXl     k XX-X&X&X&X:X_.      I $X-X&X&X&X&X&X&X&X&X:XXXk                               ",
"                9.o x A I r./..Xt.      8 |.:X&X&X&X:X|.8     k XX:X-X&X&X&X&X&X&X&X-X$XI                               ",
"                              g           W.,X-X-X&X-X+XF       /.,X&X&X&X&X&X&X&X&X&X,X!.                              ",
"    $ H.                                  x  X.XoX@X=X,X^.      I $X=X&X&X&X&X&X&X&X&X:X.Xk                             ",
"    % 9                                   5 z g k J t.(._.c     8 `.,X%X@X&X-X-X&X&X&X-X;Xy.                            ",
"      3 v 8                               { &.          4         H ~.P J r.Q.].OX-X:X-X:X.Xl                           ",
"        7 M -                             r M X                   4 %.+.      8 F J.`.XX#X$Xy..         A H.            ",
"          3 q *.$.C C C C +.C C C C C C C C C C #.6               { R.>.          $ M :.q.q.:.C C C #.C C C C C #.,.t   ",
"            3 F.f.h.g.g.g.g.p.#.d.h.g.g.g.g.g.s.f.,.@             { A.6.          - $.a.s.4.4.g.h.s.4.g.h.s.;.a.F.T.F.. ",
"              9 >.E.A.C.Z.v.} 4 M V.R.B.C.C.B.A.l.i.@             m v.&.          $ +.b.M.G.~.S.V.G.~.Y.b.G.~.Y.R.f.F.O ",
"              o z 7.R.Z.Z.z.p h s v.Z.N.N.N.N.Z.z.u.v r r r r r p v b d t r r a r v =.b.v.~.[.K.x.~.[.K.x.Q.}.K.M.F.F.O ",
"                O V S.M.M.v.6.U.7.b.M.n.n.n.n.M.z.p.p.4.4.4.4.4.p.4.4.4.p.p.4.4.4.p.4.b.V.D.I.Y.V.D.I.Y.V.D.I.Y.V.j.F.O ",
"                  4 :.| ( 5.w.e.w.@.' ^ ' ' ] [ ..X. . ...X. . ...X. . ...X. . ...X.| ] ] ] / ] ] ] / ] ' ] ^ ] ^ =.f.& ",
"                    0 +.T ) L.L.L.Q , , , , < y a w i W p w ! E a w i ~ a w i E a w i Y , , , , , , , , , , , < < d.Z   ",
"                      t +.T ) w.Q < , , , , < y * O u W 3 O i W * O u ~ 4 O u E * O u Y , , , , , , , , , , , < ! u.6   ",
"                        0 +.~ U U , , , , , < y f s i E f s ! E f s i W f s ! E f s i Y , , , , , , , , , < < i *.t     ",
"                          = M +.^ O.<.O.o.o.O.O.3.3.2.2.<.3.2.2.<.3.2.2.<.3.2.2.<.3.<.O.o.o.o.o.o.o.o.o.O.[ M $.0       ",
"                            % t $.u.l.V.A.A.Z.Z.B.B.C.B.B.C.B.B.C.C.C.C.C.C.C.C.C.C.C.C.C.C.C.C.C.Z.Z.b.h.u.N =         ",
"                                $ v C ,.a.z.v.b.n.M.M.m.m.M.M.M.m.M.m.m.m.m.m.m.m.m.m.m.m.m.m.m.M.v.h.u.*.t o           ",
"                                    & 0 v N #.%.=.-.;.;.;.-.-.-.;.;.-.;.;.-.;.-.;.-.;.;.;.-.-.-.-.*.*.b $               ",
"                                          o # 1 5 6 6 6 5 5 5 5 5 6 6 6 6 6 6 6 6 6 6 6 6 6 6 6 6 5 &                   ",
"                                                                                                                        ",
"                                                                                                                        ",
"                                                                                                                        ",
"                                                                                                                        ",
"                                                                                                                        ",
"                                                                                                                        ",
"                                                                                                                        ",
"                                                                                                                        "
};
