/* XPM */
static char *_a246779104446439171ee8498d753dff5utq35I7kOV3mET[] = {
/* columns rows colors chars-per-pixel */
"60 71 235 2 ",
"   c None",
".  c #32271D",
"X  c #122435",
"o  c #0F2030",
"O  c #262A2A",
"+  c #393329",
"@  c #373C39",
"#  c #2F312E",
"$  c #49301D",
"%  c #4A3A28",
"&  c #453D34",
"*  c #533D27",
"=  c #3C423D",
"-  c #57432C",
";  c #484339",
":  c #524435",
">  c #5B4D3B",
",  c #5B4935",
"<  c #554A35",
"1  c #624D3B",
"2  c #664B36",
"3  c #64523D",
"4  c #6C543C",
"5  c #785639",
"6  c #65462D",
"7  c #1A3349",
"8  c #1E3C54",
"9  c #162D41",
"0  c #233C55",
"q  c #3D4447",
"w  c #29445A",
"e  c #2C4C62",
"r  c #264A65",
"t  c #314D62",
"y  c #2B526A",
"u  c #36566A",
"i  c #3B5C71",
"p  c #365A74",
"a  c #3A6379",
"s  c #1F425C",
"d  c #434B4E",
"f  c #464A43",
"g  c #544943",
"h  c #595449",
"j  c #555A56",
"k  c #485152",
"l  c #645443",
"z  c #6C5B44",
"x  c #695948",
"c  c #735C43",
"v  c #765C46",
"b  c #6E5E53",
"n  c #74624B",
"m  c #7B644C",
"M  c #7A6647",
"N  c #696559",
"B  c #776958",
"V  c #726956",
"C  c #4C5E66",
"Z  c #576265",
"A  c #456579",
"S  c #696A66",
"D  c #7A6E61",
"F  c #797467",
"G  c #7A7B75",
"H  c #6D6F70",
"J  c #845734",
"K  c #82603E",
"L  c #846A4C",
"P  c #87694B",
"I  c #856C54",
"U  c #9A6D58",
"Y  c #8C7255",
"T  c #8C755B",
"R  c #887658",
"E  c #9B7D5C",
"W  c #967857",
"Q  c #926E4B",
"!  c #A87C5A",
"~  c #A26E5A",
"^  c #8B7E6B",
"/  c #847868",
"(  c #987A64",
")  c #847C74",
"_  c #957F72",
"`  c #B07E65",
"'  c #7E837F",
"]  c #99815C",
"[  c #A6855C",
"{  c #B1865A",
"}  c #9A8568",
"|  c #8C8373",
" . c #89867A",
".. c #988A79",
"X. c #9E927B",
"o. c #8F8666",
"O. c #A58C6A",
"+. c #A68866",
"@. c #B58A67",
"#. c #AB916B",
"$. c #B8946A",
"%. c #A48B73",
"&. c #B68C72",
"*. c #AA9577",
"=. c #B39C7A",
"-. c #B89878",
";. c #BAA17D",
":. c #C69A78",
">. c #C19B6B",
",. c #CBA67A",
"<. c #D1AA7B",
"1. c #D9B17B",
"2. c #E7B173",
"3. c #3B6882",
"4. c #487487",
"5. c #557986",
"6. c #4D7A90",
"7. c #6E7C87",
"8. c #598598",
"9. c #5E838D",
"0. c #698A96",
"q. c #738D95",
"w. c #5D8EA3",
"e. c #6A9BA9",
"r. c #7499A7",
"t. c #75A3AF",
"y. c #8B8B85",
"u. c #928C83",
"i. c #9A8E82",
"p. c #9B998C",
"a. c #989387",
"s. c #999992",
"d. c #8C9999",
"f. c #A59C8D",
"g. c #A99785",
"h. c #B79D89",
"j. c #A39E95",
"k. c #A08D80",
"l. c #B7A389",
"z. c #AAA599",
"x. c #BBAC9A",
"c. c #B7A896",
"v. c #BBB19B",
"b. c #AFA28F",
"n. c #96A2A4",
"m. c #8FA8B4",
"M. c #AAAAA5",
"N. c #B7AEA2",
"B. c #B9B5A9",
"V. c #BEBBB3",
"C. c #BBBCB9",
"Z. c #A9B3B6",
"A. c #87A1A2",
"S. c #C6A789",
"D. c #D4AD83",
"F. c #D8B589",
"G. c #C3AC93",
"H. c #C8AE97",
"J. c #C7B299",
"K. c #D6B898",
"L. c #E3BA89",
"P. c #E0B892",
"I. c #C4B4A3",
"U. c #CBBDAC",
"Y. c #C8B8A6",
"T. c #D5BCA8",
"R. c #C6BDB1",
"E. c #BDC1BB",
"W. c #E6C39A",
"Q. c #CEC3AF",
"!. c #D3C1AE",
"~. c #DBC3AC",
"^. c #DBC4A6",
"/. c #C5C1B5",
"(. c #CCC3B4",
"). c #CBC5B9",
"_. c #C6C5BD",
"`. c #DDCAB3",
"'. c #D5CABA",
"]. c #DDCCBB",
"[. c #D8C6B5",
"{. c #DAD1BF",
"}. c #E5C9AB",
"|. c #E3CDB4",
" X c #E4CCB8",
".X c #E3D2BC",
"XX c #EBD4B8",
"oX c #F1D7B9",
"OX c #F0D1AB",
"+X c #95B6C7",
"@X c #B8C6CA",
"#X c #B6CBD1",
"$X c #CBCBC4",
"%X c #C7C8C4",
"&X c #D3CEC3",
"*X c #DCCFC2",
"=X c #DCD3C3",
"-X c #D3D3CB",
";X c #DBD6CA",
":X c #DDD9CC",
">X c #D5D2C7",
",X c #DDDBD2",
"<X c #D6D7D2",
"1X c #C5D2D6",
"2X c #E4D4C3",
"3X c #E4D9C6",
"4X c #EADBC6",
"5X c #E4DCCB",
"6X c #EBDDCA",
"7X c #E7D6C7",
"8X c #F2DCC4",
"9X c #E3DDD2",
"0X c #E9DED2",
"qX c #E7E1CE",
"wX c #EBE2CC",
"eX c #EEE0C6",
"rX c #F1E2CD",
"tX c #E6E1D3",
"yX c #EBE3D3",
"uX c #E6E3DB",
"iX c #EAE5DA",
"pX c #EFE9DC",
"aX c #F2E5D3",
"sX c #F4EADA",
"dX c #F6EAD7",
"fX c #FEF0DC",
"gX c #ECE9E1",
"hX c #EAE7E0",
"jX c #F3EEE3",
"kX c #FBF3E4",
"lX c #FEFAEC",
"zX c #F8F4E8",
"xX c #FFFEF3",
"cX c #FFFFF8",
"vX c #DFE0D9",
/* pixels */
"                                            Z           Z Z                                                             ",
"                                          y.Z d j     Z j                                                               ",
"                                    F Z d.M.7.@ 0 q q d                                                                 ",
"                                    F q S H H                                                                           ",
"                                    o.j d                                                                               ",
"                                    O.                                                                                  ",
"                                      l.    =.=.                                                                        ",
"                                    } %.=.*.                      Z k q                                                 ",
"                                R I   (                   d k d d                                                       ",
"                                Y     W     l.        ' # O                                                             ",
"                                    L ] l.J.J.        | q                                                               ",
"                                  L P } l.J.v.        g.                                                                ",
"                          d O q q f P Q #.J.          *.                                                                ",
"                          q O O         #.            *.l.                                                              ",
"                          j #           }       l.G.J.;.;.                                                              ",
"                                        ] ;.l.l.K.!..X].;.`.                                                            ",
"                          l.        v.J.=.S.^..X4X4X6X4XS.!.rXqX      }.OXeXdXjX                                        ",
"                          =.  l.b.v.Q.|.|..X4XyXaXaX6XaXJ.G.rX.X}.oXoXdXfXkXkXsXsXdX                                    ",
"                          O.*.  ;.S.K.}.8XrXaXaXaXrX8X4X`.F.XXXX8XfXlXlXxXlXzXzXzXkX                                    ",
"                          ]       ;.S.^.oXrXaXaX6X.X^.K.W.OXrXsXkXxXxXcXxXxXlXlXzXkXdX                                  ",
"                          %.=.c.'.  l.K.|.4X4X~.K.D.D.K.}.8XsXjXkXlXxXxXxXlXkXkXsXsXrX                                  ",
"                    h.h.h.c.!.2XaXkX  G.~.oX|.^.W.P.D.P.OX8XpXsXsXkXlXkXkXfXsXpXpXyX6X                                  ",
"                    h.S.K..X6XaXfXlXlXY.K.XX8XeX8XXX}.P.W.oX8XsXsXsXdXaXyXwXyXyXwXeX.X                                  ",
"                      K.|.6XaXsXsXkXjXK.W.}.XXoXoX|.}.K.L.OX8XpXyXqX4X4X4XeX4X2X|.K.H.                                  ",
"                        |.7XaXsXsXdXrXK.P.}.}.}.^.K.S.&.&.K.OX8XwX4X.X|.^.K.J.S.-.&.-.                                  ",
"                        J..X6XaXpXsX4XS.S.K.K.P.S.>.` ~ ~ &.P.XX`.^.G.-.#.&.    S.l.c.M./.                              ",
"                          T.7X0XaXyX~.$.:.:.:.&.~ U   g.a.h.S.H.h.&.!       z.z.f.z.B.(.:X,X                            ",
"                          I.*X9X2X.XS.` ` ` ~ ` T ) y.j.j.&.` ` *.g.h.=.=.c.B.V./.].2X5XyXtX,X                          ",
"                        ..h.Y.U.U.U.+.U U _ u.f.u.s.N.R.h.h.h.h.x.c.c.I.[.*X;X7X5X5X6X0XyXtX:X                          ",
"                        b ^ g.c.x.l.` _ u.s.s.N.R.T.&XT.S.H.N.I.U.T.~.*X7X9X0X0XqXyX0XtXtXqX:X                          ",
"                      g g N ..*.h.f.a.s.z.I.'.'.;X&XU.T.T.T.~. X2X2X7X0X0X0XuXuXtXtXtXyXqXqX5X                          ",
"                      g b _ %.^ y.j.M.I.T.].7X*X9X9XT.T.~. X8X8XrX0X0X0X0XiXiXiXyXyXqXyXyXqX:X                          ",
"                  %.N ^ b.c.N.z.g.h.H.T. X8XhXjXjXgX X~.}.7XaXsXaXrX6X0XyXiXpXyXqXwXqXwXyXqX:X                          ",
"                _ k.h.H.U.U.R.R.N.h.H.~.7X0XgXjXgXgXuX].~.7XaXaXaXrX6XyXiXyXpXyXqXqXqXqXqXqX:X                          ",
"                  l.G.I.(.).).(.R.N.H.T.7X0X0XhXuXhXhXiX*X X6XaXaXrXwXyXyXpXyXqXqXqXqXqXqXqX{.                          ",
"                    H.Y.U.'.).(.R.N.N.T.~. X7X0XiXhXhXhX0X[.7XrX0X8XeXwXyXyXwXqXwXwX4XeXqX=X{.                          ",
"                      I.U.).)./.C.N.N.N.H. X7X0X0XhXuXhXuX*X`.4XeXwXeXwXwXyXwXwXwXwX4XwXwX=X                            ",
"                      J.Y.)._.V.R.N.c.s.h.T.7X9X0X9XuXuXuX,X[.*XeXwXwXeXyXwXwXqXwXwX4X3X3X[.                            ",
"                      j.B._.R.V.M.z.z.s.s.I.*X9X9X9XuX0X9X,X*X!.{.eXqXqXqXqX3X3X3X4X3X.X'.J.                            ",
"                      k.N.B.B.z.j.s.k.k.i.c.[.;X9X9X9X,X,X;X&XJ.Q.{.eX3X=X3X3X3X3X=X`.!.Y.                              ",
"                      _ j.M.j.a.u.u.i.| | i.U.=X:X:X:X:X-X{.).c.J.'.3X=X=X:X3X=X.X`.J.v.c.        } #.J.                ",
"                    h ) i.a.u. .) ) ..) F | I.'.>X>X>X{._._.V.g.c.!.'.=X=X=X{.'.Q.Q.v.b.      +.Y T #.G.                ",
"                    g / / / B B B B ^ I / ..c.U.Q.'.{.'._.V.v.X.g.J.Y.Q.Q.Q.U.I.v.c.f.f.    } m   W T                   ",
"                    g b x x l 2 1 l B l V D X.c.V./.E./.B.M.p.' ..b.c.c.c.b.f.a.| F     W Y z                           ",
"                  & & l 2 2 , * > l D x   D | f.v.B.B.M.z.p. .S ) ..X.i...^ F B       Y 4 ,                             ",
"                      %.%._ _ W ] @.*.    F / i.p.z.j.p. .' ' H ) ^ D V x         W Y &                                 ",
"                    h.( U v P T +.E P 5 o.S H |  ...o.' F S S V N x : , +       E E 3 .                                 ",
"              9XuX  k.b   >   > c %.  $ V Z N S ' S N j k h x h ; # . * 2 ! { #.O.B &                                   ",
"      -X,X,X,X,X<X-X-XB.  n   n c =.o.% j f ; q = = # = < < z 3 2 4 5 Q W [ } B b ; % .                                 ",
"    -X-X<X,X,X9X<X;X:X>XV.D   n 4 %.R = = @ # # + - M ] ] ] [ { { [ Q n 3 > > n I l l -                                 ",
"    -X%X%X-X<XhXuX9X<X$XE.a.B b : z > ; h F W +.] Q ] W L M 4 3 > : : : 3 m ; < P z v 4                                 ",
"      %XC.%X<X,X;X,X,X$X$XE.z...h z - 4 I R M % - - * % $ . + < 3 n L Y } ..x > v 2 v Y l                               ",
"      $X%X%X<X-X_.-X$X%X%XC.Z.z...p. . ./ / L $ 6 J 5 5 4 4 L ] } O.#.O.=.*./ R Y m z O.I                               ",
"        z.M.%XR.C.C.j.a.s.a.s.n.n.n.d.d.n.a.L 1 Q { { [ ] Q ] M [ ;.;.<.L.;...R o.o.n } } T                             ",
"            y.y.M.M.' S S ' y.'  .| N j h I z m +.o.R { [ { ' . z F.1.2.2.l.} } X.T z T &.T                             ",
"                H G         ' N b n n 3 % > n R [ h = ] $.>.K + 3 $.1.2.1.#./ o.} W n L #.W                             ",
"                            l 3 v n 4 : < L E +.#.V > L $.<.{ M M #.<.1.D.=.I #.@.] x 5 +.J                             ",
"                            - < 2 v c c P W +.#.$.] R [ <.D.<.$.,.L.L.K.F.#.M E Y : + 4 +.z                             ",
"                            > > 2 L ( U W @.$.$.>.$.@.>.,.,.:.D.1.1.<.$.&.g.V z & . & / c.s.                            ",
"                              s.B 1 c v L [ @.$.@.$.$.$.$.{ +.{ [ E #.c.B.R.M.u.u.j.C.#X1X@Xm.                          ",
"                            Z.-X-XM.F g 4 L T } *.X.Q K J J J J J ( %X1X@X#X1X#X#X+X+Xt.e.6.A w                         ",
"                              7.7.m.Z.Z.n.A.r.e.e.t.A.o.M 2 6 2 D M.Z.r.e.t.t.w.w.8.3.w.0.4.w 0                         ",
"                                7 0 A A y y a 8.8.0.0.t.r.q.q.q.q.5.4.p 4.e.e.4.a a A 4.4.4.A 9.                        ",
"                                e r r w i a p u y i A A C u w r r r w r y i 6.4.p y y y w t i i                         ",
"                                  u u 7.Z.m.q.A w 0 w t t w t A 5.i t w w w t t i a i u y                               ",
"                                  4.7.r.5.a a e 8 8 w w t u a 5.e.0.4.A p C i i a a 3.3.                                ",
"                                  9.6.A t e e w 8 8 7 7 9 7 w u 8.4.i u e e e y p 3.                                    ",
"                                  0 e       w 7 X X o o                                                                 ",
"                                                                                                                        ",
"                                                                                                                        ",
"                                                                                                                        "
};
