/* XPM */
static char *_594a67ba6c14f39aff90ea8b7fcb696Mye177Jhfrk6ikKw[] = {
/* columns rows colors chars-per-pixel */
"60 60 254 2 ",
"   c #040401",
".  c #131600",
"X  c #050015",
"o  c #16090D",
"O  c #251907",
"+  c #291B1A",
"@  c #3A3107",
"#  c #372B18",
"$  c #3E3A12",
"%  c #2E2707",
"&  c #05042A",
"*  c #362D28",
"=  c #4A3F1F",
"-  c #4B3E28",
";  c #3D4200",
":  c #4F4D11",
">  c #4C4827",
",  c #615B29",
"<  c #040845",
"1  c #5C5144",
"2  c #685F58",
"3  c #756B5E",
"4  c #817D24",
"5  c #80795F",
"6  c #857E70",
"7  c #978E03",
"8  c #939200",
"9  c #9C9300",
"0  c #97940D",
"q  c #9A9717",
"w  c #968E0F",
"e  c #A39B00",
"r  c #AB9D04",
"t  c #A59807",
"y  c #B39C07",
"u  c #A79915",
"i  c #ACA303",
"p  c #A8A406",
"a  c #B4A405",
"s  c #B3AA03",
"d  c #BAAB03",
"f  c #B2A50B",
"g  c #BAAC0A",
"h  c #B6A90B",
"j  c #BCB304",
"k  c #BDB30B",
"l  c #B4B106",
"z  c #A6A015",
"x  c #B8A816",
"c  c #BBB111",
"v  c #8B872D",
"b  c #969330",
"n  c #A59B33",
"m  c #A49A27",
"M  c #9DA329",
"N  c #B7A826",
"B  c #AAA636",
"V  c #B5B436",
"C  c #AFB02E",
"Z  c #C2B605",
"A  c #C2B40B",
"S  c #C5BA0C",
"D  c #C9BD0C",
"F  c #C7BB03",
"G  c #C2AD14",
"H  c #C4B313",
"J  c #CCBB15",
"K  c #C7B819",
"L  c #D1BE18",
"P  c #C2AD0C",
"I  c #CDBA21",
"U  c #D0BD2C",
"Y  c #BFC000",
"T  c #CDC10C",
"R  c #CAC804",
"E  c #D3C60D",
"W  c #DACC0C",
"Q  c #D6C905",
"!  c #DCD402",
"~  c #D6D307",
"^  c #CEC415",
"/  c #D3C513",
"(  c #DBCD12",
")  c #D4C815",
"_  c #DED114",
"`  c #DBD119",
"'  c #E5D708",
"]  c #E3D314",
"[  c #EBDC15",
"{  c #E3D41A",
"}  c #EDDC1C",
"|  c #E6D819",
" . c #F2DE1B",
".. c #E1CD0D",
"X. c #DEE407",
"o. c #EAE50B",
"O. c #F1ED0F",
"+. c #ECE51A",
"@. c #F2E315",
"#. c #F3E41C",
"$. c #F4EC1C",
"%. c #F9EC1D",
"&. c #FBE917",
"*. c #FDF41D",
"=. c #FFFD1C",
"-. c #F8F516",
";. c #F3F704",
":. c #C8C82A",
">. c #D9C923",
",. c #DDD022",
"<. c #DDDB32",
"1. c #CBC939",
"2. c #E9D927",
"3. c #F2DE22",
"4. c #F3DA29",
"5. c #ECD836",
"6. c #E4CF2D",
"7. c #EDE422",
"8. c #E6E428",
"9. c #F4E423",
"0. c #F4EB21",
"q. c #FAEC23",
"w. c #FCED2C",
"e. c #F6E828",
"r. c #F4F522",
"t. c #FDF424",
"y. c #FDFB23",
"u. c #F4F42C",
"i. c #FDF42B",
"p. c #FEFA2B",
"a. c #F7F92B",
"s. c #EAEB38",
"d. c #FCED33",
"f. c #F8EA36",
"g. c #F4F234",
"h. c #FDF533",
"j. c #FDFB33",
"k. c #F4F33B",
"l. c #FDF53C",
"z. c #FEFB3C",
"x. c #F6F83B",
"c. c #EEF332",
"v. c #ABA846",
"b. c #B1AE49",
"n. c #B5AD50",
"m. c #B3B152",
"M. c #989476",
"N. c #B3B067",
"B. c #C8BD66",
"V. c #D9D646",
"C. c #CDCF40",
"Z. c #E0DD4E",
"A. c #DFE35B",
"S. c #E7E746",
"D. c #F3EE44",
"F. c #FAEC47",
"G. c #FAF544",
"H. c #FEFC43",
"J. c #FCF44A",
"K. c #FEFC4C",
"L. c #F5F745",
"P. c #F9EB54",
"I. c #FCF452",
"U. c #FDFC54",
"Y. c #F6F45C",
"T. c #FBF45D",
"R. c #FFFD5C",
"E. c #F4F856",
"W. c #EAEB52",
"Q. c #C7C66D",
"!. c #D6CE6E",
"~. c #CBCB77",
"^. c #D4C875",
"/. c #DBD87A",
"(. c #D6D467",
"). c #E2DB6A",
"_. c #F6EC6A",
"`. c #FDF665",
"'. c #FDFD64",
"]. c #FBF46C",
"[. c #FDFB6B",
"{. c #F5F566",
"}. c #EEEA77",
"|. c #F4EA76",
" X c #FDF674",
".X c #FEFC74",
"XX c #FDFB7B",
"oX c #F6F477",
"OX c #EBF070",
"+X c #A49F90",
"@X c #C7BE87",
"#X c #D7CC8A",
"$X c #D7D386",
"%X c #DCD799",
"&X c #D6CB95",
"*X c #F5EB84",
"=X c #FDF584",
"-X c #FDFC84",
";X c #FAF68C",
":X c #FDFB8B",
">X c #F7F680",
",X c #E7E598",
"<X c #FAED96",
"1X c #FEFD93",
"2X c #FFFD9A",
"3X c #FBF497",
"4X c #EDF590",
"5X c #DCCDA5",
"6X c #DDD5A9",
"7X c #DED9B3",
"8X c #E5DCB9",
"9X c #E5E4A6",
"0X c #F8EDAB",
"qX c #FDF4A4",
"wX c #FCF6B7",
"eX c #EEE9B7",
"rX c #E8D791",
"tX c #DCD6C5",
"yX c #ECDBD0",
"uX c #EBE2C3",
"iX c #FAF7CA",
"pX c #F7ECD7",
"aX c #EAF7D7",
"sX c #FBF5DB",
"dX c #FDFDDD",
"fX c #F6F7D8",
"gX c #F5F0CB",
"hX c #ECEDE5",
"jX c #F5ECE5",
"kX c #FCF5E4",
"lX c #F4FCE4",
"zX c #FCFEE4",
"xX c #F2F2ED",
"cX c #FCF5ED",
"vX c #F5FCEC",
"bX c #FDFEEC",
"nX c #F4F2E7",
"mX c #F9ECF8",
"MX c #ECFCF4",
"NX c #F5F4F3",
"BX c #FCF5F3",
"VX c #F5FCF3",
"CX c #FDFDF4",
"ZX c #F4F4FC",
"AX c #FCF5FE",
"SX c #F6FCFC",
"DX c #FEFAFF",
"FX c #FFFFFD",
"GX c #FFFDFF",
"HX c white",
"JX c #FFFEFF",
"KX c #FDFEFE",
"LX c #FEFEFE",
"PX c #EBEDED",
/* pixels */
"HXHXHXHXHXHXHXHXHXHXHXHXHXHXHXHXHXHXHXHXHXHXHXHXCXDXzXHXFXzXAXzXKXKXVXFXFXFXDXFXFXHXHXHXHXHXHXHXHXHXHXHXHXHXHXHXHXHXHXHX",
"HXHXHXHXHXHXHXHXHXHXHXHXHXHXHXHXHXHXHXHXHXHXHXHXcXHXdXSXFXHXHXCXKXHXHXHXFXFXFXDXHXHXHXHXHXHXHXHXHXHXHXHXHXHXHXHXHXHXHXHX",
"HXHXHXHXHXHXHXHXHXHXHXHXHXHXHXHXHXHXHXHXHXHXHXHXZXFXbXCXDXvXZXFXKXKXHXHXCXHXHXCXHXHXHXHXHXHXHXHXHXHXHXHXHXHXHXHXHXHXHXHX",
"HXHXHXHXHXHXHXHXHXHXHXHXHXHXHXHXHXHXHXHXHXHXHXHXKXlXZXCXDX4XeXBXHXZXAXDXSXDXHXCXHXHXHXHXHXHXHXHXHXHXHXHXHXHXHXHXHXHXHXHX",
"HXHXHXHXHXHXHXHXHXHXHXHXHXHXHXHXHXHXHXHXHXHXHXHXHXzXZXAXiXE.A.uXHXAXZXHXHXHXKXKXHXHXHXHXHXHXHXHXHXHXHXHXHXHXHXHXHXHXHXHX",
"HXHXHXHXHXHXHXHXHXHXHXHXHXHXHXHXHXHXHXHXHXHXHXHXVXHXbXmXE.E.u.#XvXHXFXHXDXKXVXCXHXHXHXHXHXHXHXHXHXHXHXHXHXHXHXHXHXHXHXHX",
"HXHXHXHXHXHXHXHXHXHXHXHXHXHXHXHXHXHXHXHXHXHXHXHXbXDXDX3Xs.XXJ.>.tXVXCXSXHXHXNXKXHXHXHXHXHXHXHXHXHXHXHXHXHXHXHXHXHXHXHXHX",
"HXHXHXHXHXHXHXHXHXHXHXHXHXHXHXHXHXHXHXHXHXHXHXHXbXNXmXz.W.<X=X! @XzXCXPXHXKXZXKXHXHXHXHXHXHXHXHXHXHXHXHXHXHXHXHXHXHXHXHX",
"HXHXHXHXHXHXHXHXHXHXHXHXHXHXHXHXKXzXdXAXAXHXCXHXMXDX3Xi.].-Xh.P.P yXDXVXZXCXkXHXHXHXHXHXHXHXHXHXHXHXHXHXHXHXHXHXHXHXHXHX",
"HXHXHXHXHXHXHXHXHXHXHXHXHXHXHXHXKXbXbXDXHXbXbXFXSXkXP.l.=X=XT.d.L ^.AXSXFXCXCXHXHXHXHXHXHXHXHXHXHXHXHXHXHXHXHXHXHXHXHXHX",
"HXHXHXHXHXHXHXHXHXHXHXHXHXHXHXHXKXCXFXHXCXzXbXHXHX,Xr.J.3X;X].i.5.d uXDXzXBXFXVXHXHXHXHXHXHXHXHXHXHXHXHXHXHXHXHXHXHXHXHX",
"HXHXHXHXHXHXHXHXHXHXHXHXHXHXHXHXbXFXHXHXCXbXCXHXkXD.e.R.-X3X[.z.f.R B.AXCXFXZXCXHXHXHXHXHXHXHXHXHXHXHXHXHXHXHXHXHXHXHXHX",
"HXHXHXHXHXHXHXHXHXHXHXHXHXHXHXHXbXHXHXAXVXHXHXDX<X0.G.XXXX;X[.K.h._ x uXDXFXSXCXHXHXHXHXHXHXHXHXHXHXHXHXHXHXHXHXHXHXHXHX",
"HXHXHXHXHXHXHXHXHXHXHXHXHXHXHXHXbXDXHXZXAXHXDXsXF.l.U.;X>X.X:XJ.i.5.Z B.BXvXDXHXHXHXHXHXHXHXHXHXHXHXHXHXHXHXHXHXHXHXHXHX",
"HXHXHXHXHXHXHXHXHXHXHXHXHXHXHXHXFXHXFXvXHXDXdX;X%.J.`.;X:X=X=XU.z.f._ c 6XCXDXCXHXHXHXHXHXHXHXHXHXHXHXHXHXHXHXHXHXHXHXHX",
"HXHXHXHXHXHXHXHXHXHXHXHXHXHXHXHXDXKXCXbXHXDXwXE.q.l.oX.X:XqX_.U.K.i.7.j m.HXxXbXHXHXHXHXHXHXHXHXHXHXHXHXHXHXHXHXHXHXHXHX",
"vXCXCXAXSXCXCXbXbXbXCXFXFXHXHXHXDXDXvXdXzXBX<XO.J.T.XX3X2X:X.X[.K.z.o.W N 6XCXaXHXDXHXHXCXCXCXbXFXCXCXFXHXHXHXHXDXHXBXbX",
"SXAXHXHXHXHXHXHXDXKXHXHXVXbXvXbXfXlXSXCXCXwXT.-.I.`.XX1X2X:XXX'.L.z.h.! H B.sXHXSXCXSXCXFXKXHXHXDXHXHXFXCXCXCXbXFXFXFXSX",
"bXCXFXHXDXDXDXAXvXVXVXVXVXFXFXCXSXSXSXDXcXOXd.F.`..X:X2X2X:X.X'.L.G.H.7.Q l %XmXzXzXbXbXVXSXSXCXFXCXKXHXHXHXHXHXbXCXCXHX",
"HXDXDXSXCXbXzXdXVXSXSXHXHXDXDXAXDXkXsXsX3Xc.w.].XX=X1X2X2X:XXX[.U.K.k.l.o.R 1.8XAXAXAXDXDXHXHXFXbXbXbXbXCXbXCXcXBXFXHXKX",
"AXVXbXlXbXHXKXSXFXbXcXcXsXpXpXgX<X|.P.L.j.u.K.XX:X1X1X2X2X-XXX[.'.K.g.K.g.O.E V.1.Z.).,XeXkXDXAXAXHXKXHXHXHXHXHXDXAXAXZX",
"dXvXVXHXDXAXnXpXpXgX0X*X{.L.t.-.w.w.w.j.K. X;X:X1X2X2X2X:X-X.X.X'.E.K.D.U.u.O.$.-.*.$.7.8.8.<.<.,X9XeXgXsXBXAXAXCXHXDXSX",
"DXDXBXfX0X:XY.G.u.u.h.k.G.F.J.I.H.U.[.].=XqXqX3X2X2X2X1X:X-XXX.X'.Y.'.L.K.K.h.p.z.h.p.h.z.h.j.z.X.X.+.s.W._.}.*XqXiXbXHX",
"DXiXoXg.r.h.I.].`.`.].]. X XoX XoX-X2X;XXX=X:X1X2X2X2X1X:XXXXX.XR. X[.U.x.R.F.K.K.K.K.H.G.z.l.l.H.l.l.g.w.e.9.$.1./.pXHX",
"SXBX}.7.l.z.h. XT.].[.{.[.XX-X:X1X;X2X1X2X;X2X2XM.$ 5XoX:X.X|.oXU.Q.$ N.E.s.K.I.K.K.H.z.h.z.z.z.y.9.F.l.[ 4.6.W b.%XvXHX",
"FXzXcXrX! r.'.e.U.R.T.`.{..XoX>X;X;X1X:X1X:X2X/.> 5 - -XOX{.1X[._.: M.> Z.U.z.I.K.H.H.z.z.z.z.l.f.U.} [ 4.J D x %XiXHXHX",
"HXbXDXmX!.~ O.y.j.h.l.K.R.[..XXXXX-X-X-X-X-X1Xb.6 PX- 1XXXE.XXE.|.- HX1 V U.k.K.H.H.z.z.z.z.h.w.D.2.} Q ^ j p #XdXCXHXAX",
"AXDXzXFXAX!.R 9.-.*.y.j.K.U.'.'.[.XXoX-XXXoX1Xb +XyX- ).XX'.].'.).1 HX2 C U.K.l.H.H.z.z.z.p.e.9.2.Q J U a p %XcXFXDXZXAX",
"AXHXlXfXCXAX&XE ~ O.=.y.i.z.H.K.E.[.]..X'.{.1X, 3 8X@ XX[.'. X'.Z.* tX* V U.J.K.G.z.z.h.h.9.2.{ ^ T A a z #XHXKXKXAXKXFX",
"CXzXHXvXfXKXAX/.K ( O.-.t.p.j.j.z.U.`.'.U.E.:Xv + 2 O [.Y.R..XR.5.# 5 o V G.G.z.h.l.h.e.9.{ ( / T x s 9 &XAXZXVXKXHXHXCX",
"CXvXCXHXNXlXzXAX!.C.Q o.%.t.i.j.p.K.I.U.K.E.XXb o + = W.R.H.Y.K.Z.O     V H.J.r.i.e.9.3.` ) D k f N q /.DXZXHXCXSXHXFXCX",
"ZXHXZXZXHXCXlXSXiX!.S Q [ +.0.p.y.z.K.U.K.U._.b X o % {.R.u.U.H.W.+   o B u.g.y.e.9.} _ ( D k g f t #XDXFXlXvXFXZXVXFXHX",
"HXHXHXHXHXHXHXHXCXAX~.R _ 4.' d.u.p.j.H.x.U.T.z   & @ L.j.J.J.K.c.% &   :.i.w.#.5.#.W ,.K d D t q #XbXHXKXCXHXAXHXHXHXHX",
"HXHXHXHXHXHXHXHXlXHXkX^.A ! @.4.i.j.i.H.x.L.R.:.  X , R.K.U.x.u.g.> & . >.q.f.P.2.' ~ k H S e u $XgXHXAXSXFXBXSXHXHXHXHX",
"HXHXHXHXHXHXHXHXzXbXDXmX~.Y ! 4.t.t.r.j.z.k.K.D.; O b L.g.K.z.j.j.v . : k.i.{ >.3.W E S c e q #XkXHXDXAXSXbXCXHXHXHXHXHX",
"HXHXHXHXHXHXHXHXCXHXcXHXDXQ.F  .#.t.q.p.p.u.z.H.L.1.U.j.u.H.j.j.-.E.S.L.h.4.3.*.| { Z K p q B.BXAXDXAXZXFXCXCXHXHXHXHXHX",
"HXHXHXHXHXHXHXHXAXHXzXvXSXnX(.! @.t.*.t.p.p.j.j.y.x.i.-.t.z.p.j.y.a.t.-.%.4.9.! _ ` H f 0 ~.zXKXHXHXHXFXCXCXBXHXHXHXHXHX",
"HXHXHXHXHXHXHXHXKXcXDXCXaXKXgX..@.t.t.t.p.j.p.a.g.R.g.p.H.z.t.w.p.7.d.w.+.9.f.,.` H I f m iXKXZXVXCXCXbXCXFXSXHXHXHXHXHX",
"HXHXHXHXHXHXHXHXSXnXAXHXaXSXsX[ q.t.p.p.p.j.j.a.z.U.g.i.l.j.*.w.i.e.f.d.9.[ 2.2.,.H J k B kXZXSXVXFXCXcXFXHXFXCXHXHXHXHX",
"HXHXHXHXHXHXHXHXMXHXAXzXCXCX0Xo.y.%.p.j.a.j.j.j.=.r.=.-.w.q.t.f.8.y.' &.3.7._ ' ) ,.d r n jXHXvXAXHXFXAXHXHXSXvXHXHXHXHX",
"HXHXHXHXHXHXHXHXHXCXFXSXCXAX|.-.t.t.p.j.j.j.h.p.i.i.q.q.e.3.3.9.&.9. .} 3.| { { / J K h 7 8XAXvXHXHXHXHXHXHXHXHXHXHXHXHX",
"HXHXHXHXHXHXHXHXHXCXHXSXCXAX{.-.y.t.p.i.p.p.p.i.i.q.q.9.9. . .3. . .} } } 2.{ ( ) / G g 7 5XHXvXHXHXHXHXHXHXHXHXHXHXHXHX",
"HXHXHXHXHXHXHXHXHXBXFXSXCXAXP.-.p.p.p.p.p.i.p.q.%.#. .[ | ] ] ] ] ] ] } { { _ ( ) ^ G A 7 @XHXvXHXHXHXHXHXHXHXHXHXHXHXHX",
"HXHXHXHXHXHXHXHXHXSXCXCXVXcXD.*.y.p.t.p.p.q.q.&.[ ] _ _ W Q E W E W W _ { _ ( ( ) ) K K 8 N.HXvXHXHXHXHXHXHXHXHXHXHXHXHX",
"HXHXHXHXHXHXHXHXHXKXCXCXHXfXu.*.p.y.p.p.i.0.#.[ ] _ E ^ D D D T T T E / W ) ( ( ) / H K e v.cXCXHXHXHXHXHXHXHXHXHXHXHXHX",
"HXHXHXHXHXHXHXHXHXDXbXFXHXiX-.%.a.y.t.i.q.#.{ ( ) T D A A k j Z Z Z S D D T E / L D K K s n sXHXHXHXHXHXHXHXHXHXHXHXHXHX",
"HXHXHXHXHXHXHXHXCXAXbXCXHXwX;.t.t.t.%.#.[ _ / J A k h f y r i s s h k S A D D D K D L K k q uXKXHXHXHXHXHXHXHXHXHXHXHXHX",
"HXHXHXHXHXHXHXHXHXSXbXFXDXwX;.q.t.%.@.| ..E S A d a y t t 9 9 e i s g k k A Z Z K F ^ c j q 7XHXHXHXHXHXHXHXHXHXHXHXHXHX",
"HXHXHXHXHXHXHXHXAXHXvXSXAXK.*.&.O.+.} ..F F x N y y 9 w N.,X/.V 9 e u x c k k j F k S j K 9 !.SXHXHXHXHXHXHXHXHXHXHXHXHX",
"HXHXHXHXHXHXHXHXDXHXVXKXZXD.t.t.9.' Q J G G a e 7 0 b.,XdXNXxXDX7Xb.8 8 p s d g d h Z j K f Q.ZXHXHXHXHXHXHXHXHXHXHXHXHX",
"HXHXHXHXHXHXHXHXCXCXMXHXBXF.9. .' L I P h t w 8 N.8XbXZXSXKXKXZXKXVX9XV 7 t x G D h d A I u n.HXHXHXHXHXHXHXHXHXHXHXHXHX",
"HXHXHXHXHXHXHXHXCXVXNXHXsXw.@.' _ F d u 8 8 m.tXNXHXHXKXVXlXlXzXKXNXBXBX9XV 7 w y g K a x K B sXHXHXHXHXHXHXHXHXHXHXHXHX",
"HXHXHXHXHXHXHXHXCXCXKXBX0X;.[ ' Z x e 8 v.8XHXbXCXnXaXCXFXNXnXbXpXDXHXBXBXBX%XC t w r s A S z gXHXHXHXHXHXHXHXHXHXHXHXHX",
"HXHXHXHXHXHXHXHXAXCXSXBX<Xo./ d p 8 B 7XbXbXcXDXVXCXbXcXZXDXDXNXFXzXkXHXAXcXfXVX&XN.q p i s q pXHXHXHXHXHXHXHXHXHXHXHXHX",
"HXHXHXHXHXHXHXHXHXbXNXBX<X~ N n M 6XHXZXhXNXHXAXHXKXDXHXBXCXFXHXfXKXHXxXzXVXSXPXbXpX%Xv.w f C %XHXHXHXHXHXHXHXHXHXHXHXHX",
"HXHXHXHXHXHXHXHXDXbXHXCX/.i n.%XHXHXKXKXCXHXCXbXfXFXHXHXzXdXVXZXSXCXCXCXAXZXKXKXBXZXHXbX5Xm t $XHXHXHXHXHXHXHXHXHXHXHXHX",
"HXHXHXHXHXHXHXHXNXCXFXVXxXPXNXFXHXHXHXHXHXHXHXHXHXHXHXHXHXHXHXHXKXHXHXHXHXHXHXHXKXHXFXFXBXvXxXhXHXHXHXHXHXHXHXHXHXHXHXHX",
"HXHXHXHXHXHXHXHXFXFXFXFXBXVXCXFXHXHXHXHXHXHXHXHXHXHXHXHXHXHXHXHXHXHXHXHXHXHXHXHXSXHXDXFXFXVXNXNXHXHXHXHXHXHXHXHXHXHXHXHX",
"HXHXHXHXHXHXHXHXFXFXCXFXFXCXFXFXHXHXHXHXHXHXHXHXHXHXHXHXHXHXHXHXHXHXHXHXHXHXHXHXCXFXFXCXFXFXFXCXHXHXHXHXHXHXHXHXHXHXHXHX",
"HXHXHXHXHXHXHXHXCXSXCXCXFXHXCXCXHXHXHXHXHXHXHXHXHXHXHXHXHXHXHXHXHXHXHXHXHXHXHXHXHXFXFXFXCXFXFXFXHXHXHXHXHXHXHXHXHXHXHXHX"
};
