/* XPM */
static char *_b6e02d83a164f49b67835ddf1ba1295eliMg5wCVlsYLRZa[] = {
/* columns rows colors chars-per-pixel */
"60 60 111 2 ",
"   c None",
".  c #3C6107",
"X  c #3D6209",
"o  c #3F6708",
"O  c #4A5F13",
"+  c #505C19",
"@  c #41640A",
"#  c #46620F",
"$  c #416909",
"%  c #426909",
"&  c #41680A",
"*  c #426C09",
"=  c #436C0A",
"-  c #446D09",
";  c #456E0A",
":  c #47720A",
">  c #49730B",
",  c #49750B",
"<  c #4B760B",
"1  c #4B770B",
"2  c #4C770C",
"3  c #4C780B",
"4  c #4C790B",
"5  c #4D7A0C",
"6  c #4F7C0C",
"7  c #507E0B",
"8  c #507E0C",
"9  c #517F0C",
"0  c #4E6D11",
"q  c #64492B",
"w  c #63482D",
"e  c #654C2C",
"r  c #6A4E30",
"t  c #6B4F31",
"y  c #6C4F31",
"u  c #6D5032",
"i  c #6F5133",
"p  c #6E5232",
"a  c #755536",
"s  c #775737",
"d  c #785838",
"f  c #7D5C3B",
"g  c #7D5C3C",
"h  c #7F5D3D",
"j  c #7F5E3D",
"k  c #636326",
"l  c #815F3E",
"z  c #85623F",
"x  c #866341",
"c  c #896442",
"v  c #896542",
"b  c #896543",
"n  c #8B6643",
"m  c #8B6844",
"M  c #916B46",
"N  c #956E4A",
"B  c #99724C",
"V  c #9D764E",
"C  c #52810C",
"Z  c #53830D",
"A  c #54840C",
"S  c #55840D",
"D  c #55850D",
"F  c #56860D",
"G  c #56870D",
"H  c #56870E",
"J  c #57880D",
"K  c #57880E",
"L  c #58890E",
"P  c #5A8B0E",
"I  c #5A8C0F",
"U  c #5B8E0F",
"Y  c #5C8D0F",
"T  c #5E8F0F",
"R  c #5D8F10",
"E  c #5D9010",
"W  c #5F9110",
"Q  c #609410",
"!  c #609411",
"~  c #629610",
"^  c #639811",
"/  c #659A11",
"(  c #659B11",
")  c #659B12",
"_  c #669C11",
"`  c #679E12",
"'  c #69A013",
"]  c #6BA313",
"[  c #6AA314",
"{  c #6CA514",
"}  c #6EA814",
"|  c #70AA14",
" . c #72AB15",
".. c #73AE16",
"X. c #75B016",
"o. c #77B317",
"O. c #79B617",
"+. c #7AB818",
"@. c #7CBA18",
"#. c #7DBC18",
"$. c #7FBE18",
"%. c #80C019",
"&. c #81C218",
"*. c #84C519",
"=. c #85C71A",
"-. c #87CA1A",
";. c #88CC1A",
":. c #8BCE1A",
">. c #8CD21B",
",. c #90D71D",
"<. c #94DD1E",
/* pixels */
"                                                                                                                        ",
"                                                                                                                        ",
"                                                                                                                        ",
"                                                                                                                        ",
"                                                                                                                        ",
"                                                                                                                        ",
"                                                                                                                        ",
"                                                                                                                        ",
"                                                    $   ! [ K G 6                                                       ",
"                                                7 G K W } %..._ R Y Z                                                   ",
"                                              7 U } o.@.O.O.%.+. .| ^ G                                                 ",
"                                            7 Z { o.@.-.>.o.@.#.%.$...W 9                                               ",
"                                    o   ! ) ) 7 Q ' { { =.>.$.O.:.=. .R U G                                             ",
"                                  > 9 U { @.O.Q Q G G L ^ %.-.O.O.o. .R Z L = 7 G G 3                                   ",
"                            , K / ) ) ' ..$.%.O.| ` ' _ L Q ` } | ) _ ) Y _ ` ' o.o.R G                                 ",
"                            ) W | +.%.=.O.{ O.=.@.} ..' Y G Z ) Q Q J U O.+.$.=.O.$...) Y G                             ",
"                          7 ) ..o.o.@.O.{ Y } o.' L Y Z Y L ^ o.` C T ] -.:.$.<.$.+.#.O.| L                             ",
"                          < ' %.O.Y U Y Q ....W 9 Y ! Q ) { O.=.o.Z ` &.,.<.>.,.,.+.&.-.O.! G                           ",
"                        7 G { @.' Q ' ' O.$.o.! R ) | { o.$.$.@. .S / @.&.&.#.+.-.#.+.#.| R L                           ",
"                      < T ` | ) ^ ..@.$.$.o.U L { o.O.#.%.$.$...] S _ } } .. ...O.O. ._ ] L 9                           ",
"                      , L } ) Y W +.-.*.} W Y W ) $.=.-.%.o.@.+.` S ^ _ ` ^ _ | ` Q ^ _ ~ C ;                           ",
"                        6 _ L G Q o.@.@.^ Q Y W ^ O.=.>.$.o.=.,.>.W P Q P ) Y Q R J ^  ./ J ;                           ",
"                      @ 7 C > C _ ' ' O._ G 7 L ` o.o.o.O.+.>.>.&.] P < Z T A L S J Q ` T S -                           ",
"                      $ , < : C Q ^ / _ 6 ; 6 Q { ] ` o.@.#.-.+.P } ~ < J Z < C Z S C ~ W 8 %                           ",
"                        ; : , P _  .^ J : : 7 Q ~ Q Q ` o.@.Q T / @.*.L 7 6 < < , ; ; < 9 , 6                           ",
"                      ; , ; 6 A ^ ] ^ Z % < 9 Y ` ` _ ^ Q ) L P O.-.<.o.} o.o.` J ; @ @ > G W                           ",
"                        > 7 6 L ~ T P 2 @ 8 L T { o._ Y P P C J o.&.*.$.O.&.=.O.O.' 6 > R } Q 7                         ",
"                        : 6 > 6 S 8 J < 8 Q ^ J ` ] _ Y S P 7 J ~ Q ] ..| o.O.o.' ] ! 3 Q ] Y W                         ",
"                      Z Z J > @ < W ]  .{ o.@.) P P 9 C ^ o.` Q Y Y Y / { { Q Q / / L < 6 ) A ,                         ",
"                      6 P ^ ^ < J o.@.@.-.O.@.O.J J L _ ..@.$.O...| ) F L Y L Y { { P 6 ; L C ;                         ",
"                        ~ ] J R { =.,.&.<.=.O.#.{ ^ X.$.-.+.@.#.=.%._ L J J J P _ ) L < , Q G ;                         ",
"                        _ @.Q ) $.>.<.>.:.,.%.O.` ..%.@.,.,.=.O.%.@.] J 9 7 C A Y ~ C 6 6 L 7 X                         ",
"                      6 Q { G Q o.$.$.@...=.$.{ Y O.,.,.>.-.-.@.o.` ` Y > - : - - 8 < 9 Z S 9 %                         ",
"                        K U 6 ^ { { } | ..o.` F ' &.,.>.$...@.O.] / ` Y 8 % : % % 8 2 { S - -                           ",
"                          > 7 Q ) / Q ) { ` L 6 ) O.$.o...| ..) P /  .) J - ) ! 2 { +.+.U @                             ",
"                          7 G Y Y L ~ Y Y Y L C C { | ' _ _ / T J Q ` ~ Z 8 ` @.+.#.O.^ 6                               ",
"                              G > 9 R Z G G L 9 C _ ` ) Q Q L L J J J Q S 8 ` %.-.o.^ G                                 ",
"                                < G 9 : 6 C Z < 6 Y Y L P P C C 9 7 ; ; @ > { ..+.} K                                   ",
"                                3 2 # X , $ = $ $ C J ; C A : < > @ @ @ ; 7 L Q ) W 7                                   ",
"                                            X # . O # 0 F < @ + O k # . ; - Y L                                         ",
"                                              # +   e k 0 k u r n c                                                     ",
"                                                s j u m m N b b n                                                       ",
"                                                  z j N B V m c                                                         ",
"                                                    f B B B f                                                           ",
"                                                    f V V M a                                                           ",
"                                                    j V V M a                                                           ",
"                                                    a B V B a                                                           ",
"                                                    d N V B a                                                           ",
"                                                    u N V B d                                                           ",
"                                                    a N B B j q                                                         ",
"                                                    r M B N z e                                                         ",
"                                                    u M B N x r                                                         ",
"                                                    e c B N b u                                                         ",
"                                                    w j B B m s w                                                       ",
"                                                      p N V M z u                                                       ",
"                                                      u m V B n u                                                       ",
"                                                      r l N B N j w                                                     ",
"                                                      r j m N B c u                                                     ",
"                                                      u l c M M M s q                                                   ",
"                                                      s j c n c c j u                                                   "
};
