/* XPM */
static char *_634894255784[] = {
/* columns rows colors chars-per-pixel */
"48 48 95 2 ",
"   c #3D6702",
".  c #535C15",
"X  c #426505",
"o  c #466506",
"O  c #406A02",
"+  c #416A02",
"@  c #436F02",
"#  c #446904",
"$  c #4E620E",
"%  c #447003",
"&  c #467303",
"*  c #457403",
"=  c #477004",
"-  c #487603",
";  c #4A7703",
":  c #4B7903",
">  c #4D7B03",
",  c #4E7E03",
"<  c #4C7A04",
"1  c #4D7D04",
"2  c #4F7F04",
"3  c #586418",
"4  c #626A1C",
"5  c #684D2B",
"6  c #684E2A",
"7  c #6B542B",
"8  c #6F5130",
"9  c #745631",
"0  c #7A5835",
"q  c #7A5836",
"w  c #7A5936",
"e  c #7B5A36",
"r  c #7C5B37",
"t  c #686723",
"y  c #815E3A",
"u  c #825F3A",
"i  c #86623E",
"p  c #8A643F",
"a  c #896540",
"s  c #906A44",
"d  c #946D45",
"f  c #98714A",
"g  c #9D764C",
"h  c #4F8004",
"j  c #508004",
"k  c #508104",
"l  c #518204",
"z  c #538404",
"x  c #558605",
"c  c #558705",
"v  c #568905",
"b  c #578905",
"n  c #588B05",
"m  c #598B06",
"M  c #598C06",
"N  c #5A8E06",
"B  c #5B8E06",
"V  c #5A8E07",
"C  c #5C9006",
"Z  c #5D9106",
"A  c #5E9306",
"S  c #5F9306",
"D  c #609507",
"F  c #619707",
"G  c #629808",
"H  c #639809",
"J  c #649A09",
"K  c #659C09",
"L  c #669E09",
"P  c #679E0A",
"I  c #689F0A",
"U  c #68A00A",
"Y  c #6AA20B",
"T  c #6CA50B",
"R  c #6AA40C",
"E  c #6DA70C",
"W  c #6FAA0C",
"Q  c #73AD0D",
"!  c #73AE0D",
"~  c #75B00D",
"^  c #77B30E",
"/  c #79B60F",
"(  c #7BB810",
")  c #7CBA10",
"_  c #7EBC11",
"`  c #80BF11",
"'  c #81C111",
"]  c #82C412",
"[  c #84C612",
"{  c #87C912",
"}  c #88CC13",
"|  c #8ACE13",
" . c #8BD014",
".. c #8FD515",
"X. c None",
/* pixels */
"X.X.X.X.X.X.X.X.X.X.X.X.X.X.X.X.X.X.X.X.X.X.X.X.X.X.X.X.X.X.X.X.X.X.X.X.X.X.X.X.X.X.X.X.X.X.X.X.",
"X.X.X.X.X.X.X.X.X.X.X.X.X.X.X.X.X.X.X.X.X.X.X.X.X.X.X.X.X.X.X.X.X.X.X.X.X.X.X.X.X.X.X.X.X.X.X.X.",
"X.X.X.X.X.X.X.X.X.X.X.X.X.X.X.X.X.X.X.X.X.X.X.X.X.X.X.X.X.X.X.X.X.X.X.X.X.X.X.X.X.X.X.X.X.X.X.X.",
"X.X.X.X.X.X.X.X.X.X.X.X.X.X.X.X.X.X.X.X.X.X.X.X.X.X.X.X.X.X.X.X.X.X.X.X.X.X.X.X.X.X.X.X.X.X.X.X.",
"X.X.X.X.X.X.X.X.X.X.X.X.X.X.X.X.X.X.X.X.X.X.X.X.X.X.X.X.X.X.X.X.X.X.X.X.X.X.X.X.X.X.X.X.X.X.X.X.",
"X.X.X.X.X.X.X.X.X.X.X.X.X.X.X.X.X.X.X.X.X.X.X.X.X.X.X.X.X.X.X.X.X.X.X.X.X.X.X.X.X.X.X.X.X.X.X.X.",
"X.X.X.X.X.X.X.X.X.X.X.X.X.X.X.X.X.X.X.X.X.X.X.V 1 X.X.X.X.X.X.X.X.X.X.X.X.X.X.X.X.X.X.X.X.X.X.X.",
"X.X.X.X.X.X.X.X.X.X.X.X.X.X.X.X.X.X.X.X.n S I / E G S v X.X.X.X.X.X.X.X.X.X.X.X.X.X.X.X.X.X.X.X.",
"X.X.X.X.X.X.X.X.X.X.X.X.X.X.X.X.X.X.X.S W ( _ ) _ ~ ! U n X.X.X.X.X.X.X.X.X.X.X.X.X.X.X.X.X.X.X.",
"X.X.X.X.X.X.X.X.X.X.X.X.X.X.X.X.X.V h G Q ( { ] _ ' [ ~ B n X.X.X.X.X.X.X.X.X.X.X.X.X.X.X.X.X.X.",
"X.X.X.X.X.X.X.X.X.X.X.X.X.X.= B R Q G S S S Y ' ' _ ` ! S V 1 X.X.X.X.X.X.X.X.X.X.X.X.X.X.X.X.X.",
"X.X.X.X.X.X.X.X.X.X.X.1 B S F U ~ ' ( Q K H S H W W E K F F F I ! T n X.X.X.X.X.X.X.X.X.X.X.X.X.",
"X.X.X.X.X.X.X.X.X.X.X.v K ~ _ ' ~ W _ ( E Y S c V K S B H ( ) [ ) ) E D X.X.X.X.X.X.X.X.X.X.X.X.",
"X.X.X.X.X.X.X.X.X.X.X.G / Q E E K R W G B B B F W ~ S S / ..| ..[ ` ` ! B X.X.X.X.X.X.X.X.X.X.X.",
"X.X.X.X.X.X.X.X.X.X.k U ( U F K Q / K V H Y E ^ ' ( F H ` | { [ { ) ` ^ B c X.X.X.X.X.X.X.X.X.X.",
"X.X.X.X.X.X.X.X.X.k G E U U ^ ) _ W A K ! ) ) ' _ Q B F Q ! ~ ~ ( ^ E Y n v X.X.X.X.X.X.X.X.X.X.",
"X.X.X.X.X.X.X.X.X., H K B Y ' ] E S B K ) { [ ) ` / F A K H K E H G I K k % X.X.X.X.X.X.X.X.X.X.",
"X.X.X.X.X.X.X.X.X.% n v n U ~ / H B B K / ` ' / | ..Q V x V S V n B U H l % X.X.X.X.X.X.X.X.X.X.",
"X.X.X.X.X.X.X.X.X.% , * z H I Y c ; v Y Q Q / _ { ( E F > c k k c c S D , O X.X.X.X.X.X.X.X.X.X.",
"X.X.X.X.X.X.X.X.X.O = - B U U V = - B H G K Q / Y H Q ( n k > 1 > & - 2 > X.X.X.X.X.X.X.X.X.X.X.",
"X.X.X.X.X.X.X.X.X.& ; > m K G k O 1 B G Y G F F n H ] ..( ! ^ T B & O > B n X.X.X.X.X.X.X.X.X.X.",
"X.X.X.X.X.X.X.X.X.X.> > v V v 1 * B C U Q G n B 2 D ! / ( ( ` ( ! F > B Y S X.X.X.X.X.X.X.X.X.X.",
"X.X.X.X.X.X.X.X.X.1 1 ; = z A H H Q K S S v B U D S S D U W T I K H k c G c h X.X.X.X.X.X.X.X.X.",
"X.X.X.X.X.X.X.X.X.v S B ; F / _ ' _ / S c B R ( / Q E H B D B B T H k - n > O X.X.X.X.X.X.X.X.X.",
"X.X.X.X.X.X.X.X.X.n Y A F / ..| ..' ) E Y / [ ' ` ` ` E n c c n H F k > B > X.X.X.X.X.X.X.X.X.X.",
"X.X.X.X.X.X.X.X.X.n W F P ` | | { { ) Y / {  ...[ ) / T b < < > z c > 2 c - X.X.X.X.X.X.X.X.X.X.",
"X.X.X.X.X.X.X.X.X.c G c F Q Q ! / / K K ' ..{ ` ` ^ T H B = @ # @ > v v 2 - X.X.X.X.X.X.X.X.X.X.",
"X.X.X.X.X.X.X.X.X.X.1 k F K P P E H k F ) ` ^ ! Q H F T D > k B z T ! S   X.X.X.X.X.X.X.X.X.X.X.",
"X.X.X.X.X.X.X.X.X.X.X.k V c A A B n c c E E I K F n B K S k S / ) / Y V X.X.X.X.X.X.X.X.X.X.X.X.",
"X.X.X.X.X.X.X.X.X.X.X.X.> > c k k v 2 2 F F S B x v z k k ; S ( ' T v X.X.X.X.X.X.X.X.X.X.X.X.X.",
"X.X.X.X.X.X.X.X.X.X.X.X.X.1 > X > - @ & c k k x > > -   O % B K T B X.X.X.X.X.X.X.X.X.X.X.X.X.X.",
"X.X.X.X.X.X.X.X.X.X.X.X.X.X.X.X.X.  # o = # 1 > o $ 3 X X # ; B c X.X.X.X.X.X.X.X.X.X.X.X.X.X.X.",
"X.X.X.X.X.X.X.X.X.X.X.X.X.X.X.X.X.X.X.. X.7 4 t 9 r w X.X.X.X.X.X.X.X.X.X.X.X.X.X.X.X.X.X.X.X.X.",
"X.X.X.X.X.X.X.X.X.X.X.X.X.X.X.X.X.X.X.X.w y s f a i X.X.X.X.X.X.X.X.X.X.X.X.X.X.X.X.X.X.X.X.X.X.",
"X.X.X.X.X.X.X.X.X.X.X.X.X.X.X.X.X.X.X.X.r a f f i X.X.X.X.X.X.X.X.X.X.X.X.X.X.X.X.X.X.X.X.X.X.X.",
"X.X.X.X.X.X.X.X.X.X.X.X.X.X.X.X.X.X.X.X.X.a g d w X.X.X.X.X.X.X.X.X.X.X.X.X.X.X.X.X.X.X.X.X.X.X.",
"X.X.X.X.X.X.X.X.X.X.X.X.X.X.X.X.X.X.X.X.X.a g d 0 X.X.X.X.X.X.X.X.X.X.X.X.X.X.X.X.X.X.X.X.X.X.X.",
"X.X.X.X.X.X.X.X.X.X.X.X.X.X.X.X.X.X.X.X.X.a g f w X.X.X.X.X.X.X.X.X.X.X.X.X.X.X.X.X.X.X.X.X.X.X.",
"X.X.X.X.X.X.X.X.X.X.X.X.X.X.X.X.X.X.X.X.X.y g f 0 X.X.X.X.X.X.X.X.X.X.X.X.X.X.X.X.X.X.X.X.X.X.X.",
"X.X.X.X.X.X.X.X.X.X.X.X.X.X.X.X.X.X.X.X.X.y f f r X.X.X.X.X.X.X.X.X.X.X.X.X.X.X.X.X.X.X.X.X.X.X.",
"X.X.X.X.X.X.X.X.X.X.X.X.X.X.X.X.X.X.X.X.X.w f f y X.X.X.X.X.X.X.X.X.X.X.X.X.X.X.X.X.X.X.X.X.X.X.",
"X.X.X.X.X.X.X.X.X.X.X.X.X.X.X.X.X.X.X.X.X.r d f i 6 X.X.X.X.X.X.X.X.X.X.X.X.X.X.X.X.X.X.X.X.X.X.",
"X.X.X.X.X.X.X.X.X.X.X.X.X.X.X.X.X.X.X.X.X.w s f i 7 X.X.X.X.X.X.X.X.X.X.X.X.X.X.X.X.X.X.X.X.X.X.",
"X.X.X.X.X.X.X.X.X.X.X.X.X.X.X.X.X.X.X.X.X.6 a g s w X.X.X.X.X.X.X.X.X.X.X.X.X.X.X.X.X.X.X.X.X.X.",
"X.X.X.X.X.X.X.X.X.X.X.X.X.X.X.X.X.X.X.X.X.6 y f f i 6 X.X.X.X.X.X.X.X.X.X.X.X.X.X.X.X.X.X.X.X.X.",
"X.X.X.X.X.X.X.X.X.X.X.X.X.X.X.X.X.X.X.X.X.X.9 s f s w X.X.X.X.X.X.X.X.X.X.X.X.X.X.X.X.X.X.X.X.X.",
"X.X.X.X.X.X.X.X.X.X.X.X.X.X.X.X.X.X.X.X.X.X.w a d d y X.X.X.X.X.X.X.X.X.X.X.X.X.X.X.X.X.X.X.X.X.",
"X.X.X.X.X.X.X.X.X.X.X.X.X.X.X.X.X.X.X.X.X.X.r p p p p 8 X.X.X.X.X.X.X.X.X.X.X.X.X.X.X.X.X.X.X.X."
};
