/* XPM */
static char *_cdb80f4d212442c81cf4cce58d92cbaRGzLpGvLGxGfEcLG[] = {
/* columns rows colors chars-per-pixel */
"60 60 226 2 ",
"   c None",
".  c #0E154A",
"X  c #121B4B",
"o  c #161E51",
"O  c #1A214F",
"+  c #162251",
"@  c #1B2354",
"#  c #1D2955",
"$  c #1C2D5B",
"%  c #182658",
"&  c #222B54",
"*  c #242D59",
"=  c #252A55",
"-  c #23335C",
";  c #2C345C",
":  c #2D3A5D",
">  c #243157",
",  c #323B5D",
"<  c #313959",
"1  c #2C324E",
"2  c #263A63",
"3  c #2A3B63",
"4  c #253560",
"5  c #333E62",
"6  c #343962",
"7  c #3D465D",
"8  c #2D4267",
"9  c #354265",
"0  c #3B4364",
"q  c #344569",
"w  c #354B6D",
"e  c #3C4B6C",
"r  c #38456A",
"t  c #374F73",
"y  c #384F71",
"u  c #3E5172",
"i  c #3E5B78",
"p  c #3F506F",
"a  c #5C5B47",
"s  c #464955",
"d  c #4F5154",
"f  c #615E4C",
"g  c #68634C",
"h  c #736B4E",
"j  c #676759",
"k  c #716C56",
"l  c #424664",
"z  c #434C69",
"x  c #454D65",
"c  c #44536E",
"v  c #4C536D",
"b  c #545866",
"n  c #414E70",
"m  c #455573",
"M  c #4B5671",
"N  c #4B5B74",
"B  c #435C7B",
"V  c #4C5C7A",
"C  c #445A76",
"Z  c #535B75",
"A  c #565C76",
"S  c #55637C",
"D  c #5D657C",
"F  c #5C6A7E",
"G  c #596473",
"H  c #4E647C",
"J  c #606C6A",
"K  c #787567",
"L  c #656B7B",
"P  c #697379",
"I  c #797977",
"U  c #877B58",
"Y  c #887C63",
"T  c #92865E",
"R  c #958865",
"E  c #968D77",
"W  c #9C9171",
"Q  c #868675",
"!  c #A8986B",
"~  c #B39F69",
"^  c #B7A46E",
"/  c #BAA874",
"(  c #AEA075",
")  c #3F6380",
"_  c #4C6683",
"`  c #4C6A84",
"'  c #476888",
"]  c #5D6B82",
"[  c #546A85",
"{  c #59758B",
"}  c #59768C",
"|  c #5F7990",
" . c #646D81",
".. c #6A6B81",
"X. c #6B7485",
"o. c #6A798A",
"O. c #657588",
"+. c #737C8B",
"@. c #7B7F8D",
"#. c #747A85",
"$. c #697E91",
"%. c #5F8297",
"&. c #74818E",
"*. c #7B858B",
"=. c #6C8394",
"-. c #698A9B",
";. c #648698",
":. c #738695",
">. c #7B8592",
",. c #7D8A95",
"<. c #748A99",
"1. c #7B8E9C",
"2. c #7C929D",
"3. c #76959F",
"4. c #6D8585",
"5. c #7193A3",
"6. c #7C95A1",
"7. c #799BA9",
"8. c #668FA1",
"9. c #7CA5B2",
"0. c #7FA8B3",
"q. c #888885",
"w. c #848B95",
"e. c #858D97",
"r. c #84939C",
"t. c #8E949B",
"y. c #8C989A",
"u. c #949C9D",
"i. c #9B9E9F",
"p. c #959698",
"a. c #91948A",
"s. c #A39D86",
"d. c #AAA999",
"f. c #A3A38C",
"g. c #849BA5",
"h. c #8B9DA4",
"j. c #8498A4",
"k. c #949CA2",
"l. c #9B9DA2",
"z. c #9497A0",
"x. c #8CA1A6",
"c. c #8DA4AB",
"v. c #85A2AC",
"b. c #95A2A5",
"n. c #92A5AB",
"m. c #9AA5A8",
"M. c #95A9AE",
"N. c #9CABAD",
"B. c #9CA3A5",
"V. c #84AAB5",
"C. c #8CABB2",
"Z. c #8AAFB9",
"A. c #94ADB3",
"S. c #9CAEB1",
"D. c #91AFB8",
"F. c #8DB1BA",
"G. c #97B0B5",
"H. c #9CB2B5",
"J. c #94B4BA",
"K. c #9DB9BC",
"L. c #9EB7BB",
"P. c #A3ADAD",
"I. c #ABACAC",
"U. c #A7A9A3",
"Y. c #ACB1AD",
"T. c #B6B5AA",
"R. c #A3AEB0",
"E. c #A4B3B3",
"W. c #ABB5B3",
"Q. c #ADB8B6",
"!. c #A4B9BB",
"~. c #ACBCBA",
"^. c #A9B8B8",
"/. c #B4BBB6",
"(. c #BABBB5",
"). c #B3BDBA",
"_. c #B7B9B6",
"`. c #B1AFA1",
"'. c #C4BA9F",
"]. c #C4BEAF",
"[. c #AEC1BF",
"{. c #B5C1BD",
"}. c #BCC3BC",
"|. c #C2C4BD",
" X c #CDCABC",
".X c #C9C6B9",
"XX c #D3CBBA",
"oX c #D6D0BF",
"OX c #9EBDC1",
"+X c #A3BFC3",
"@X c #ACC3C2",
"#X c #A6C2C6",
"$X c #B4C4C1",
"%X c #BBC6C1",
"&X c #BCCBC5",
"*X c #B8CBC8",
"=X c #C4CAC3",
"-X c #CBCCC3",
";X c #C3CBC4",
":X c #D2CEC2",
">X c #C4D1CA",
",X c #CBD3CB",
"<X c #CCD1C6",
"1X c #D3D3C5",
"2X c #DBD6C5",
"3X c #D4D6CA",
"4X c #D5D9CD",
"5X c #DBDACC",
"6X c #DCD7C7",
"7X c #DCDED2",
"8X c #D3DAD1",
"9X c #E2DDCC",
"0X c #E0DAC6",
"qX c #E3DFD1",
"wX c #E6E1CD",
"eX c #E9E3CF",
"rX c #E3E3D3",
"tX c #EBE6D3",
"yX c #EEE9D4",
"uX c #ECEAD9",
"iX c #F2EBD5",
"pX c #F5EED9",
"aX c #F4EEDA",
"sX c #F7F1DA",
"dX c #F7F0DD",
"fX c #F9F2DC",
/* pixels */
"                                                                                                                        ",
"                                                                                                                        ",
"                                                                                                                        ",
"                                                                                                                        ",
"                                                                                                                        ",
"                                                                                                                        ",
"                                                                                                                        ",
"                                                                                                                        ",
"                                                                                                                        ",
"                                                                                                                        ",
"                                                                                                                        ",
"                                                                                                                        ",
"                                                                                                                        ",
"                                                                                                                        ",
"                                  XX0X9XtXtX6X(.`.                                                                      ",
"                              XX9XiXsXsXfX9XE.E.).|. X                                                                  ",
"                            0XtXiXiXpXtX3X=XP.S.3XE.W.1XT.                                                              ",
"                        2XeXiXwX1XeXtX/.m.m.W.n.R.R.S.W.U.                                                              ",
"                      0XpXpXtX|.y.r.W.m.+.] ..m.n.c.R.N.Y.i.                                                            ",
"                    9XsXsXtX/.b.m.z 0 #.D @ @ >.^.R.h.H.P.                                                              ",
"                XXyXsXsXaX-XR.>...l o = = ; * l m.N.R.$X|. X6XY.y.                                                      ",
"               XaXfXfXsXyXL z , # ; * X = o * 6  .&.h.~.n.Y./.S.i.                                                      ",
"              yXfXfXfXfXaX..# + o r @ 3 & @ 5 o . N W.N.N.m.W.E.{. Xp.                                                  ",
"            eXsXsXsXsXsXdX|.v 0 , q @ 3 o q % % q S E.h.k.b.E.P./.m.                                                    ",
"3.      (.eXiXpXsX7X7XpXpXpXwX|.t.v * 5 * 4 @ B $.    t.m.u.E.<Xm.y.                                                    ",
"` } 2.}.eXiXtX1X&XH.<XpXaX X}.5Xp.l r 0 6 * @ H         p.    Y.Y.u.                                                    ",
",./.wXuXuXiX{.G.G.c.1X6X,XP.c.Y.(.e.i.v , + - {                 Y.*.                                                    ",
"yX;X@X~.}.|.x.>X3XN.c.).;XP.~.^.W.).U.w.w.M q `                                                                       XX",
"aX;XC.g.C.1.H r.b.S.c./.).D ..*.F B.I.Y.+.M 3 i                                                                     oXyX",
"4Xd.x.n.v.y.v 8 z }.).N.%X@.0 M 5 v e.i.l = * C                                                                   .XyXeX",
"N.f.a.w.S.m.e.M ; k.E.W.>X~.I.i.z : , l 5 * & N                                                                 .XeXiX3X",
"N.a.T s H X.F N l y.N.h.>.P./.b.D 0 > = ; ; # 9                                                                 wXiX XP.",
"b.G E I 9 , ; V Z k.G L 9 @.b.P M * , 0 A ; o o 5                                                             9XiX0Xx.| ",
"oX/.c.r.J < o e S ] q e C 0 L x 6 6 l ].9Xl...; &                                                           0XiXeX}.6.H ",
"W.Q.c.C.d.q.b 1 w w e 0 p t * = * 6 l.iXdXaXiXT.6 5                                                       2XiXtX3Xn.[ $ ",
"P.P.b.[.T.Y T h s 7 e 9 3 p m = 6 I.uXaXpXpXaXaXz.;                                                     9XyXyX}.o.q 8 : ",
"x.X.r.k.P j h U U g g s s 7 6 S I.dXdXaX5XtXdXdX<Xe.l                                                 6X6X+Xr.V + . O 9 ",
"y.# 5 l 6 K f f h U U U R q.i.:XdXdXaX9X).rXdXaXaX}._.p.                                          XXtX9Xh.| t o # M -.N.",
":Xl * ; * l K f a h Y L i.9XdXdXdXuX5X-XQ.5XaXaXaXqX=X3X+XE.                                  T.:X1X=X).-.B n  .:.-.S.{.",
"pXT.A 6 1 6 P d.d.s.'.=XtXdXdXpX;X;X=XW.W.+X}.5X=XqX5X).Q.,X3X                            `..XQ.c.1.;.;.6.n.A.8.` x.K.V.",
"aXsXtX:X|.:XqXtXaXaX7X*X,XuXuX5X~.{.E.A.$X3X^.A.2.N.4X Xg.}.;X-X;XS.                T..X|.N.S.j.} =.g.G.C.5.{ $.J.J.9.8.",
"pXrX>X8XaXdX7X@XqXaXrX~.#X>X<X^.W.E.@X8X=XA.A.5.4.:.!.<Xb.[ c.:.R.5.E.+X:X-X].+X|.}.).W.m.l.W.{.c.6.5.8.B 6  .A.F.7.%._ ",
"iX4XS.A.W.1X{.L.;XqX3X).*X~.rXrXqX).=XtX5XS.*X$.F Q h.j.=XX.S S m ' ' OX,X*X*X7X7X4X{.^.>X>X+X!.6.[ B B _ z.%X7.[ i u t ",
"aXaX5X-Xb.N.H.+X+.w.).3X~.~.7X7X8XC.g.S.R.E.5X@.8 P ( O.<.(.u.H $ 5 t t 7.#X+XOXK.OXJ.<.$.<.6.O.) t q V W.5X>X!.r.$.] V ",
"pX0Xi.I.:.A r.r.S [ M.).{.}.~.H.<XA.7.n.W.E.}.(.q 8 b R J P *.n.| 3 2 3 2 _ v.j.V _ ;.[ u w p n e 9 +.).K.V.9.} C q 6 0 ",
"9XX.3 S m 5 3 M ` h.E.W.Q.W.~.).).N.g.w.2.6.H.,Xw.9 - b j f a j J  .S m 3 # 4 ) o.S 3 q m m m Z w.I.5X&XA.<.$.O.O.,.:.o.",
"t.8 ] ] q 2 e L W.>.e.A *.{.E.N.n.A.W.l C _ b.^.~.P 8 4 7 T T T h g k / ( W Y k j I I J G G #.i.-X%X:.} { { ` C w 8 + X ",
"S 3 9 9 u 3 n r F 3 5 : : +.;X$X).<XtXI.X.0 o.o.%X3Xw.2 $ : K R R T T ! ^ ^ / ^ ^ ~ ! W f.`.}.!.7.%.i 2 - 3 e S X.@.#.#.",
"Z ; 5 # w 2 3 4 : 5 ; 9 > D ,X;X&.X./.*.k.X.e : :.}.<XY.A - # 7 j j j j k k f j K s..X2XR.o.V 8 > > , N ,./.;X&X@X#X+X@X",
"l.; 3 * 3 3 2 * 9 3 5 3 & Z P.&.F :.k.e.R.e.w.c : F r.M.;XI.w. .S c c M G X.e.P.^.$X[.{.!.6.:.2.h.h.g.C.J.J.F.V.0.9.9.7.",
"9XZ $ 4 $ 2 4 % 3 - * 5 & & G 0 7 h.&X|.N.N.W.h.D - w N E.|.|.-X=X%XH.!.OXJ.J.J.V.V.Z.F.J.F.F.F.F.F.V.V.V.V.Z.V.V.0.0.0.",
"                                                                                                                        ",
"                                                                                                                        ",
"                                                                                                                        ",
"                                                                                                                        ",
"                                                                                                                        ",
"                                                                                                                        ",
"                                                                                                                        ",
"                                                                                                                        ",
"                                                                                                                        "
};
