/* XPM */
static char *_8026fdcb5114eafcf5a3af0a2e4dc76tWi6OhaKqKIJKS3H[] = {
/* columns rows colors chars-per-pixel */
"61 92 225 2 ",
"   c None",
".  c #020202",
"X  c #0B0B0B",
"o  c #141414",
"O  c #1B1B1B",
"+  c #16161F",
"@  c #0F0F10",
"#  c #261D18",
"$  c #191B28",
"%  c #1D1D34",
"&  c #19232B",
"*  c #092337",
"=  c #142736",
"-  c #232324",
";  c #2A2A2B",
":  c #23242C",
">  c #212135",
",  c #2B2D31",
"<  c #24243B",
"1  c #29293E",
"2  c #252D35",
"3  c #333335",
"4  c #353639",
"5  c #3A393E",
"6  c #362C2D",
"7  c #4D1E1C",
"8  c #7B1B17",
"9  c #7E221E",
"0  c #483937",
"q  c #513127",
"w  c #602220",
"e  c #49331F",
"r  c #674507",
"t  c #6C4E0F",
"y  c #524134",
"u  c #72532C",
"i  c #716636",
"p  c #0B2B43",
"a  c #042D4C",
"s  c #092D48",
"d  c #0A314D",
"f  c #093558",
"g  c #163349",
"h  c #262642",
"j  c #292944",
"k  c #2C2C4B",
"l  c #273745",
"z  c #3D3E42",
"x  c #373B4A",
"c  c #2E2E53",
"v  c #313155",
"b  c #32325B",
"n  c #3B3856",
"m  c #043963",
"M  c #043A65",
"N  c #003F70",
"B  c #363662",
"V  c #393965",
"C  c #3B3B6C",
"Z  c #373862",
"A  c #3E3E72",
"S  c #413E6A",
"D  c #453A4D",
"F  c #1D415C",
"G  c #3C434C",
"H  c #3D4956",
"J  c #24445D",
"K  c #07426F",
"L  c #1A4568",
"P  c #024273",
"I  c #0A4573",
"U  c #02477C",
"Y  c #054A7E",
"T  c #0B4B7B",
"R  c #0F4976",
"E  c #174D77",
"W  c #1F537B",
"Q  c #265274",
"!  c #2C5778",
"~  c #3A5A73",
"^  c #345B78",
"/  c #2D506B",
"(  c #3E607A",
")  c #424245",
"_  c #45464A",
"`  c #4A4B4D",
"'  c #454A53",
"]  c #4B4D53",
"[  c #444659",
"{  c #4E515A",
"}  c #535355",
"|  c #54555A",
" . c #5B5B5B",
".. c #56595B",
"X. c #524144",
"o. c #664649",
"O. c #665357",
"+. c #68534E",
"@. c #74675B",
"#. c #43586B",
"$. c #5C5D63",
"%. c #575966",
"&. c #414076",
"*. c #43437C",
"=. c #405F77",
"-. c #675E63",
";. c #5E626B",
":. c #5C6169",
">. c #47657C",
",. c #556A7B",
"<. c #646465",
"1. c #64656B",
"2. c #6A6A6B",
"3. c #67686F",
"4. c #656A76",
"5. c #6B6C74",
"6. c #676B79",
"7. c #656977",
"8. c #716F74",
"9. c #6C717A",
"0. c #727373",
"q. c #74757C",
"w. c #7C7C7C",
"e. c #776E66",
"r. c #851D19",
"t. c #971E18",
"y. c #95201B",
"u. c #A3221C",
"i. c #8B2C27",
"p. c #885715",
"a. c #985E10",
"s. c #946A08",
"d. c #AE6B12",
"f. c #845A34",
"g. c #96663B",
"h. c #857631",
"j. c #C87F13",
"k. c #8A7962",
"l. c #AD9114",
"z. c #D58313",
"x. c #A09049",
"c. c #94896C",
"v. c #AFA471",
"b. c #9D9366",
"n. c #034B83",
"m. c #014D8A",
"M. c #0B4D81",
"N. c #01508D",
"B. c #005394",
"V. c #00569B",
"C. c #00599E",
"Z. c #005CA4",
"A. c #0062A7",
"S. c #464682",
"D. c #494986",
"F. c #4A4A88",
"G. c #526E83",
"H. c #697685",
"J. c #747682",
"K. c #7B7C84",
"L. c #7C7F8A",
"P. c #757B88",
"I. c #7A7F90",
"U. c #7D8389",
"Y. c #7C8292",
"T. c #7A8993",
"R. c #6F818F",
"E. c #848484",
"W. c #83848D",
"Q. c #8B8B8C",
"!. c #8E8B81",
"~. c #868790",
"^. c #878992",
"/. c #8A8B95",
"(. c #8E8F99",
"). c #838F99",
"_. c #8B939B",
"`. c #939394",
"'. c #92949D",
"]. c #9C9C9D",
"[. c #97999B",
"{. c #9D968D",
"}. c #B2AD94",
"|. c #9597A1",
" X c #949AA2",
".X c #999BA5",
"XX c #9D9EA9",
"oX c #8C97A0",
"OX c #9EA2AA",
"+X c #A3A3A3",
"@X c #A1A3AD",
"#X c #ACACAC",
"$X c #A6AAAE",
"%X c #A5A6B2",
"&X c #A6A9B3",
"*X c #A9AAB5",
"=X c #ADAEBA",
"-X c #ADB2B4",
";X c #AFB0BC",
":X c #B3B4B5",
">X c #B1B3BC",
",X c #BBBBBB",
"<X c #B7B9BB",
"1X c #C2BDA7",
"2X c #BBBEC0",
"3X c #C3C4C4",
"4X c #CDCCCC",
"5X c #C5C7C9",
"6X c #D4D4D4",
"7X c #DBDBDB",
"8X c #D9D8D5",
"9X c #DAD6C4",
"0X c #E0DFDE",
"qX c #E1E0DF",
"wX c #E3E3E3",
"eX c #ECEBEA",
"rX c #EAE8E7",
"tX c #F0EFEE",
"yX c #F0F0EF",
"uX c #F4F3F3",
"iX c #FFFFFF",
"pX c #FDFDFD",
"aX c #FDFDFD",
"sX c #F9F8F6",
"dX c #EEEFF0",
/* pixels */
"                                                                                                                          ",
"                                             .E.[.+X[.2.                                                                  ",
"                                          w.7XsXpXpXpXtX-X                                                                ",
"                                        | 8XpXpXpXpXpXpXsXE.                                                              ",
"                                        OXpXsXuXv.1XuXpXpXOX                                                              ",
"                                        8XeX-X8Xl.x.7XwXpX#X        }           X O                                       ",
"                                      4.yX7X%XdX}.x.{.c.eX`.    0.].[.3       X . E.<.                                    ",
"                                      c.pX7X.Xb.Q.u t x.`.]   _ } ; O X O     X . O o                                     ",
"                                      E.pX4X2.x.s.l.l.}.[.- . . . . o       ` ; . . $ 4                                   ",
"                                      w.pX,X`.sX9Xv.i `.2.X . . . O       $.XXU.X X E.5.                                  ",
"                                       .sX,X,XpXeX[.+X[.) _ ) o X X     ...X=X*X] <.=X~.                                  ",
"                                    0.E.rX6X:X7XE.].K.W.|.'.U._       5 K.3.'.;X&X*X=X/.                                  ",
"                                    2X#X7X7XE.` 5 ..OX@XK.Q.w./.      $.L.<.q.(.=X=X=Xq.                                  ",
"                                    6X,X6X7XO . . 3.;X/.#X8Xc.%.    4 5.=X@X-.8.=X=X@X}                                   ",
"                                    4X*X7XrX; . . J.>X/.[...; , 3.(.L.W.XXXX/..X=X=XL.                                    ",
"                                    3X`.uXrX; . . 3.2X'.| O ` XX@X>X*X.X .5.=X;X|./.-.z                                   ",
"                                    +X*XpX4Xo . . O L.L._ ; ] $.L.;X=X&X~..X=X(._ <.)                                     ",
"                                  #X0XuXpXQ.. . X _ ; _ XX%X.X/.@X=X;X=X>X%XJ.)   }                                       ",
"                                :XsXpXpX:XO . . . W.^.W.=X/.O.$.8.W.'.'.K.3.)                                             ",
"                              2.7XuX8X0.o . . . . _ &X=X=X.Xo.7 } w.w 7   <.                                              ",
"                                 .<.- . . . . . X o $.8..X*X&X-.7 i.t.8                                                   ",
"                                  o . . . . . . @ ] 7.~.$.] K.OX+.u.u.8 8                                                 ",
"                                  o X . . . .     , (.2X^.    0..Xo.u.r.t.8 #                                             ",
"                                @ X X X X O       1.%X=XK.      K.'.o.8 t.u.X.                                            ",
"                                      o       g d J.;X-Xw.* d   5 5.1.8.O.o.1.              ..$.    ;.$.                  ",
"                                    = 4 0. .d B.U / #.#.J K N.p     z z 1.-._             } %X%X_ 3.=X'.    O             ",
"                      d d ' #X2X+XF m.L -XeXT.E B.Z.C.V.A.A.A.P *                         8.;X%X_ 0.>X~.3 5.1.            ",
"              * ' ,XU.I C.E 2XpXpX[.n.B.g .XsX5XR.^ E Y n.n.T g ' `                       J.;X'.3 5.*X$.] &X'.            ",
"            * U f (.8X9.n.V.G.sXpX8XE C.M I R.eXpXyX4X<X-X-X5X,X+X+X                      J.=X~.  5.'.3 K.2XP.            ",
"          p f s { `.#X<.* P L 8XsX6XE C.M B.m.~ OXrXpXpXpXpXpXuX].3X5                     6.2Xq.  L.8.3 |.|.`             ",
"          I R  XsXpX-XQ B.U * <.0. .= a * a a N n.^ T.:X5X5X<X).' / f                     0.=X(.8.%XL.K.|.}               ",
"          p [.pXeXU.d I I P a             & a N A.C.m.Y T T n.B.m n.n.=                   K.=X=X=X=X=X=X5.                ",
"          - ,XpXW.2 P.(./.5.f             w.,.P Z.Z.Z.Z.Z.Z.Z.Z.P M G.`.        :.'.K...] .X=X'.@X=X=X.X_                 ",
"            E.5X5.s $.&X>X*X5.$           [.uX'.! Y B.C.Z.Z.C.B.f :.eX8XG       3.OX=X%X@X*X=X(.K.=X=XW.                  ",
"                      $.@X=X=X9.          ..0XpXwX#X9.~ Q Q ~ T.+X#XyXG.U p       4 3.*X=X=X=X&XK.&X;X3.                  ",
"                        $.@X=X&X4.        M ^ -XeXpXpXuXrXrXsXpX4X+X).m.N.H     O.Q.0.q.;X=X=X=X%X=X'._                   ",
"                          <.%X=XXX)     ; I V.T ^ H. X$X>X<X<X X#.3 L N.G.4X . .wX7XW.| L.|./.0..X~.`                     ",
"                            1.&X;X5.    ,X).I V.Z.B.m.n.Y T U m.U   a / qXeXH [.2Xq.|.@XW.J.| ` }                         ",
"                            z |.>XK.* f ~.rX:X=.M.B.Z.Z.A.A.Z.Z.n.    ] wX5Xf &X+X~.>X=X|.K. .                            ",
"                            _ XX>XW.m Z.n.>.4XeX<XG.W T n.n.n.T F       E.OXP _.rXE./.q.Q.7XE.                            ",
"                            | %X=X.Xl n.Z.B.E oXuXsXwX5X<X;X<X6X`.        ] n.^ wXyX+X2.+X`.                              ",
"                      O ; , $.=X=X*X0.;.n.Z.Z.n.( .X8XtXsXsXrX XG           a P ~ *XQ.}                                   ",
"        | 1.1.`     z 0.$.K.} =X=X=X~.:XP.T V.Z.V.n.E ^ >.~ Q n.m               p &                                       ",
"    _ W.%X=X*XXX^.1.| %X$.1.} %X=X=X|.[.sXOX=.M.m.V.Z.Z.C.Z.Z.Z.f                                                         ",
"  _ '.=X=X=X=X=X=X&X5.|.q.1.J.&X=X>X@XG .XuXuX5X).>.Q n.n.U R / 2                                                         ",
"  3..X@X*X=X=X&X%X.X5.D L.%X=X=X'.W.| I U ,.<XuXpXsXwX5X-X:X4X4X..                                                        ",
"    5 ` 3.5.3.$.| z < A C { 1. .y y # f V.V.T ~ T.-X7XeXtXrXrX:X                                                          ",
"                    C F.F.S A 6 f.g.u 0 ~ M.B.V.N.Y E ! ! Q Q l                                                           ",
"                  k F.F.F.F.F.&.X.f.g.f.k.XXH.! M.B.V.Z.Z.Z.U                                                             ",
"                  V F.F.F.F.F.F.S 0 f.g.f.@.{.c.e.,.G.W T U p                                                             ",
"                  C F.F.F.F.F.F.F.S j u g.q d.d.p.t k.2X<X .                                                              ",
"                  V F.F.F.F.F.F.F.F.D.n q d.z.t r r a.+.@.3                                                               ",
"                  c F.F.F.F.F.F.F.F.F.D.0 z.z.s.t r r u 7                                                                 ",
"                  1 *.F.F.F.F.F.F.F.F.F.[ q u p.s.t 6 6                                                                   ",
"                    B F.S.F.F.F.F.F.F.F.F.D.A C D [ S >                                                                   ",
"                    v F.F.F.F.F.F.F.F.F.F.F.F.S.b S.F.k                                                                   ",
"                    v F.F.F.F.A &.F.F.F.F.&.b k C F.F.C                                                                   ",
"                    b F.F.F.F.C c V b c > % % b F.F.F.F.v                                                                 ",
"                    Z F.F.F.F.S $         < *.F.F.F.F.F.C                                                                 ",
"                    b F.F.D.F.S.            k D.F.F.F.F.S.j                                                               ",
"                    k F.F.F.F.S.1             b F.F.F.F.F.b                                                               ",
"                    < &.F.F.F.D.v             % C F.F.F.F.A >                                                             ",
"                      C F.F.F.F.C               j S.F.F.F.F.v                                                             ",
"                      B F.F.F.F.S.1               V F.F.F.F.C                                                             ",
"                      v S.F.F.F.F.v               1 *.F.F.F.&.>                                                           ",
"                      j *.F.F.F.F.V                 c F.F.F.F.v                                                           ",
"                        V F.F.F.F.*.>                 C F.F.F.&.1                                                         ",
"                        j *.F.F.F.F.v                 $ C F.F.F.c                                                         ",
"                          B F.F.F.F.b                   h A F.F.Z >                                                       ",
"                          % S.F.F.F.b                   < A F.F.&.&.c                                                     ",
"                          h b F.F.F.&.>                 % B F.F.F.F.*.k                                                   ",
"                          1 c S F.F.F.C                 c F.F.F.F.F.F.&.j                                                 ",
"                            k S.F.F.F.F.b               b F.F.F.F.F.F.F.V :                                               ",
"                            > C F.F.F.F.F.k             b F.F.F.F.F.F.F.F.b                                               ",
"                          h S S F.F.F.F.F.&.>           b F.F.F.F.F.F.F.F.S.k                                             ",
"                          b F.F.F.F.F.F.F.F.C           b F.F.F.F.F.F.F.F.D.*.k                                           ",
"                          / F.F.F.F.F.F.F.F.S.c         b F.F.F.F.F.F.F.F.F.F.*.k                                         ",
"                        h S.D.F.F.F.F.F.F.F.F.*.>       b F.A C &.F.F.F.F.F.F.F.&.1                                       ",
"                        v F.S.D.F.F.F.F.F.F.F.F.Z       c F.Z c b C F.F.F.F.F.F.F.*.k                                     ",
"                        S F.S S.F.F.F.S.F.F.F.F.S.h     b F.S.b V B b &.S.F.F.F.F.F.F.b                                   ",
"                        A F.A B F.F.F.F.F.F.F.F.F.A     C F.F.S.b A S C b b A S.F.F.D.*.b $                               ",
"                      1 *.F.S.b A F.F.F.F.F.F.D.F.D.c   C F.F.F.S.b A F.S.A A S.F.F.C c c k j                             ",
"                      j S.F.F.S.c C F.F.F.F.F.F.F.F.A $ B F.F.F.F.S.b C F.F.F.F.F.F.S.F.F.S.A k                           ",
"                      j S.F.F.F.*.b b C S.F.F.F.F.F.F.c k c S.F.D.D.S.V b A F.F.F.F.F.*.V %.J.J.5.}                       ",
"                      > D.F.F.F.&.b c c b S.F.F.F.F.F.S.D.b C F.F.F.D.F.S.S F.F.S.A k [ J.(.^.P.q.| ] 3                   ",
"                    h C S.F.F.F.F.&.A F.F.F.F.S C V [ n V c b F.F.F.F.F.F.F.*.B n [ ' %.$.%.;.;.7.H.P.x                   ",
"                    b F.F.F.F.F.F.F.F.F.S.V v %.K..X%XXX~.3 k F.F.D.S C C b H %.J.I.Y.I.I.Y.Y.Y.J.9.' 3                   ",
"                    j *.F.F.F.F.F.F.F.C c ' ] <.5.J.0.;.{ 7.' k c c h $ 2 ] $.6.6.7.6.6.7.7.7.;.x , :                     ",
"                      j V S *.S.*.C v [ H.Y.L.H.7.4.6.;.H.I.x                                                             ",
"                            1 > > $ , %.;.7.6.9.%.] 3.| , ' ,                                                             ",
"                                                  $                                                                       ",
"                                                                                                                          "
};
