/* XPM */
static char *_5a3e1ca7c444ba6f9cbe509a3e00d15IGqSQX5Oyks5sumV[] = {
/* columns rows colors chars-per-pixel */
"60 60 230 2 ",
"   c None",
".  c #070709",
"X  c #0A0A0C",
"o  c #070606",
"O  c #0D0E11",
"+  c #060C1B",
"@  c #070D17",
"#  c #0B101C",
"$  c #141415",
"%  c #1B1B1B",
"&  c #171718",
"*  c #1E130F",
"=  c #251A13",
"-  c #321F15",
";  c #38271B",
":  c #322C1C",
">  c #030A25",
",  c #010C2C",
"<  c #000727",
"1  c #07132B",
"2  c #191C26",
"3  c #000E34",
"4  c #000F39",
"5  c #031234",
"6  c #0B1633",
"7  c #01133C",
"8  c #091738",
"9  c #151E33",
"0  c #1E212B",
"q  c #192339",
"w  c #242424",
"e  c #27272B",
"r  c #2C2C2C",
"t  c #32312F",
"y  c #262933",
"u  c #2D2E31",
"i  c #2C2E3A",
"p  c #2C3338",
"a  c #333333",
"s  c #35363A",
"d  c #3A3B3B",
"f  c #383934",
"g  c #463317",
"h  c #4E3A2E",
"j  c #5D5418",
"k  c #574528",
"l  c #514633",
"z  c #76543D",
"x  c #6E4D37",
"c  c #6F581B",
"v  c #001543",
"b  c #011A44",
"n  c #001749",
"m  c #001B4B",
"M  c #0C1D43",
"N  c #001E52",
"B  c #0F1056",
"V  c #01214D",
"C  c #0D2748",
"Z  c #002253",
"A  c #00255C",
"S  c #002B5E",
"D  c #0C2C5C",
"F  c #1F3553",
"G  c #3B3C41",
"H  c #2A3855",
"J  c #273146",
"K  c #060976",
"L  c #0D1679",
"P  c #111A6B",
"I  c #002A64",
"U  c #002F68",
"Y  c #003264",
"T  c #00326C",
"R  c #003B6C",
"E  c #1A336C",
"W  c #3A3C70",
"Q  c #2A3071",
"!  c #395359",
"~  c #004272",
"^  c #3F407F",
"/  c #444444",
"(  c #4B4B4B",
")  c #474747",
"_  c #535353",
"`  c #5C5C5C",
"'  c #725A4C",
"]  c #565976",
"[  c #545771",
"{  c #5E657E",
"}  c #616162",
"|  c #6C6C6D",
" . c #676768",
".. c #737374",
"X. c #79797A",
"o. c #6F7072",
"O. c #A47B18",
"+. c #8B6D20",
"@. c #835F46",
"#. c #957053",
"$. c #A28434",
"%. c #A68518",
"&. c #D7AE15",
"*. c #FFBD1F",
"=. c #C69929",
"-. c #C59C38",
";. c #D0AB30",
":. c #EAB028",
">. c #FFEA08",
",. c #FFC122",
"<. c #E0D615",
"1. c #828844",
"2. c #BDA658",
"3. c #AA996C",
"4. c #B7AA76",
"5. c #A1A271",
"6. c #B19C59",
"7. c #C39E44",
"8. c #C8A44B",
"9. c #CFB168",
"0. c #050886",
"q. c #030B92",
"w. c #191C99",
"e. c #12148A",
"r. c #043294",
"t. c #0B2698",
"y. c #2F3391",
"u. c #0004A6",
"i. c #0814AD",
"p. c #000BB9",
"a. c #0916B5",
"s. c #092CAC",
"d. c #222EAE",
"f. c #2D3AAE",
"g. c #194882",
"h. c #3C4290",
"j. c #0452B6",
"k. c #054AB1",
"l. c #3743A7",
"z. c #056FBE",
"x. c #2B69BB",
"c. c #454796",
"v. c #4E5194",
"b. c #5F638D",
"n. c #63668B",
"m. c #656698",
"M. c #737897",
"N. c #565AA6",
"B. c #525ABB",
"V. c #5969A8",
"C. c #5F78BF",
"Z. c #686BA8",
"A. c #6B71B2",
"S. c #0016D0",
"D. c #0238D3",
"F. c #0330C6",
"G. c #0857D8",
"H. c #0651CC",
"J. c #2E57C4",
"K. c #0269C8",
"L. c #1573CA",
"P. c #046BD8",
"I. c #007CDB",
"U. c #0273D8",
"Y. c #166DCE",
"T. c #296DCE",
"R. c #2979CD",
"E. c #2F73D0",
"W. c #0059E3",
"Q. c #0065E4",
"!. c #0079E8",
"~. c #4A5DC2",
"^. c #516FC2",
"/. c #747AC3",
"(. c #7E819F",
"). c #5C87BD",
"_. c #7C84A8",
"`. c #7C82BB",
"'. c #6A85BF",
"]. c #0785D6",
"[. c #3A93CB",
"{. c #2B83C8",
"}. c #008CEC",
"|. c #0083E6",
" X c #0191E9",
".X c #0095F3",
"XX c #4B88CA",
"oX c #5998C9",
"OX c #4A92D0",
"+X c #6B91CA",
"@X c #71A5CA",
"#X c #8B8B8B",
"$X c #848484",
"%X c #9C9C9D",
"&X c #939397",
"*X c #878796",
"=X c #BAAE8D",
"-X c #9B9CAA",
";X c #8F95AF",
":X c #9FA2B7",
">X c #96A7AD",
",X c #A3A3A4",
"<X c #A4A6B8",
"1X c #B9B9BB",
"2X c #B1B1AE",
"3X c #C6BFAF",
"4X c #C4C1B9",
"5X c #969CC5",
"6X c #889FCA",
"7X c #8BABCC",
"8X c #97A7CD",
"9X c #8EB5D2",
"0X c #A5A8C7",
"qX c #ADB9CD",
"wX c #B7C8D9",
"eX c #BFC0C1",
"rX c #C4C4C4",
"tX c #C7C7C9",
"yX c #D4D1CC",
"uX c #C9CCD5",
"iX c #D4D5D9",
"pX c #CBD3DA",
"aX c #DDDFE3",
"sX c #DFE2E7",
"dX c #E3E3E5",
"fX c #E8E9EA",
"gX c #F4F3F2",
"hX c #FEFCFC",
"jX c #FAF8F6",
"kX c #F0EFED",
/* pixels */
"                                                                                                                        ",
"                                                                                                                        ",
"                                            j.x.x.H.j.                                                                  ",
"                                          I.{.3.9.;X].|.j.                                                              ",
"                                        j.].>X-.&.4XoX X}.H.                                                            ",
"                                        s.x.yX2.7.yX6XH.I.}.k.k.k.                                                      ",
"                                        L n.=X-.-.4.5.1.! I. XK.Q.t.                                                    ",
"                                  w a d k ;.4.8.:.6.<.>.&.! |..X!.r.                                                    ",
"                                  t ( ( f %.;.2.4.8.<.&.&.%.! U.}.K.r.                                                  ",
"                                & a ( ) r : g j j j k : = : : D k.g.E r.                                                ",
"                              X r $ w a d ! s s ! G i e 0 r a a u w t k.k.                                              ",
"                              & -Xe X * w t d e h #X) d r u / _ s & J H.s.                                              ",
"                              $ _ $ $     ) ..X %XX.O a t r ( _ / w q M #                                               ",
"                              X . $ ) _ d   $X$ $Xo.. r r r d ( ) a w % & %                                             ",
"                              / a ( o.X.X.` ` } | } r w % w t l ( ) a w r w                                             ",
"                              ..#X#X..$X,X,X,X,X$X| ) f r r r ! _ _ / a a w                                             ",
"                * *           ..,X..4XtXX.rXtX2X&X| d d ` _ a a ) ) h y 2                                               ",
"              - ; g g         _ #X} %XtXtXtX1X%X| _ ` _ ` ( a w e a y G t                                               ",
"              x x ' z g     - - / ` o.$X#X#X#.` ) l ! ( / a t J K 0.v.iX;X                                              ",
"              ' #.#.@.z z h ; ; ' } d d { *X( / H E J y u J E s.S.i.uX0Xd.i.M.                                          ",
"              k @.@.@.x h           J B c.<XH Q F.W.U.K.K.U.U.H.d.A.qXN.u.5XaXV.e.L                                     ",
"                                    &X:Xc.e.w.d.k.Y.L.{.[.oX7XwXfXpXm.[ 0.:X0XS.d.0XrX^                                 ",
"                                Q 0.e.m.iXc.h.yXiXiXsXsXgXhXhXfX5Xf.u.B   [ *Xa.A.fXc.w.c.                              ",
"                              -XyX0Xc.q.m.*XB v./.qXwXwXwX9X@XR.G.S.i.          n.*XN.A.Z.]                             ",
"                          0.u.w.N.5X-XW B     K p.F.P.].}. X XI.Y.^.qX            1XZ.i.u.K                             ",
"                          h.f.y.Q Q [ ]         N.~.E.[.OXoX@XqXsXkX5XQ           n.l.C.0X:X                            ",
"                            :Xm.h.h.Q ]         2XkXgXgXgXjXjXfXqX^.D.q.            <X5X/.A.                            ",
"                              y.Z.b.<XsX:X        V.+X7X7X@XoX{.U.W.J.Z.          o.;XA.B.f.                            ",
"                                h.0X0XV.V._. .    s.W.!.!.!.|.|.L.oXtX*X          aXhXhXjXfXeX                          ",
"                                y.N.y.(.o...o.    qX5XoXOXOXoX7XpXiX/.S.P         gXhXjXjXhXfX                          ",
"                                K a.b./ / (     w.~.8XpXsXfXdXpX7XR.H.C.qX      ,XrX..} _ ,X1X                          ",
"                                  y...f ` | ` a P F.D.P.T.E.T.Y.P.T.8XjXtX=       } ) ! a %X1X                          ",
"                                        / } } ( % [ '.^.T.T.T.^.9XsXhXiX) o @     _ } / r ..                            ",
"                                          d ) p + & ..eXuX4X=X9.9.5.` e . @ V 8 s ` ` d % % a ) ) G r & X   X           ",
"                                          w 0 7 7 @ X 0 a $.8.*.*.+.o . @ V Z b 8 d ( u % e d _ _ l r % O X             ",
"                                          1 7 V Z V + o X +.3X;.*.O.@ 1 b m v 7 5 5 u u 0 y l ( ( d r % &               ",
"                                          7 m S R Y V 1 @ c 6.-.=.l V V b b b 7 7 7 5 0 e t f d d t w                   ",
"                                        5 V S R ~ Y b b b q d p C V m 7 7 7 V V m v 7 1   e r r                         ",
"                                        7 Z Y R Y Z 7 3 5 7 7 7 5 7 3 3 5 b m Z V b 7 1                                 ",
"                                        b V Z Z V b 1 , , , 3 , , , , 3 7 v m m b 7 7                                   ",
"                                    8 b n m b v 7 5                   , 4 v v 7 7 7 4                                   ",
"                                  m N m m n 7 5                         , 7 7 7 4 v v 7                                 ",
"                              M Z I A N m 7                               5 v v v n n m 7                               ",
"                            m I U I A m                                     5 n n n N A A b                             ",
"                          b A U I A N m                                       5 n n Z I Y A                             ",
"                          N I U A A N v                                         v N N A U U Z                           ",
"                          N I I I N m 5                                         7 n N A Y T Z                           ",
"                          m I I A m b 7                                           7 N I U T C                           ",
"                          V I I A N 7 n                                         7 n N I T U                             ",
"                          N I I A N 8 n 5                                     5 n n N I T S                             ",
"                          m A A N N 4 v v                                     b n N N I U Z                             ",
"                        5 n N N N n v v n                                   n n n n N I A b                             ",
"                        4 v n n n n n 4 n 8                             , 7 n n n n n N Z                               ",
"                      , 4 v v v n n n v v v 5 > >                 > < , 5 n n n v v v v v 5                             ",
"                    , 5 3 3 3 4 4 7 v v n v 7 , < >             + < < 3 4 v 7 4 4 4 4 4 4 4 ,                           ",
"                  r a y 2 w 2 1 , 3 4 4 v 7 3 , , >             < < < , 3 4 4 4 4 4 8 q q q 6                           ",
"                O = u a d d a r u y 9 3 3 3 , , >                 , , 3 3 3 4 7 8 q d _ _ ) a r                         ",
"                X X $ O w u w r a f s 2 , >                         > , , 6 9 y d / ) / ) d r e X                       ",
"                          X . & w                                           r a u t w $ e w O & X                       ",
"                                                                                      . X                               "
};
