/* XPM */
static char * down_xpm[] = {
"48 48 32 1",
" 	c None",
".	c #AD8F25",
"+	c #FFD63A",
"@	c #844608",
"#	c #CC6600",
"$	c #3575D9",
"%	c #FFF2C0",
"&	c #5D4F20",
"*	c #31314F",
"=	c #FFE7C5",
"-	c #FEE6C5",
";	c #FFFFFF",
">	c #3A011D",
",	c #5D4F21",
"'	c #FF9EB3",
")	c #6C5650",
"!	c #99004E",
"~	c #BC0058",
"{	c #1F3B5E",
"]	c #39011D",
"^	c #497F97",
"/	c #1D96AB",
"(	c #6BBBE3",
"_	c #84E8FF",
":	c #193054",
"<	c #187998",
"[	c #155C73",
"}	c #59BCD9",
"|	c #BAF3FF",
"1	c #97C4E3",
"2	c #18799B",
"3	c #BFBFBF",
"                       ....                     ",
"                      .++++.                    ",
"                     .++@+++.                   ",
"                     .+#$@+++                   ",
"                    ....+++...                  ",
"                   .%+++%+++++.                 ",
"                  .%+%.%%%....+                 ",
"                  .+%+.%%%+.+.++                ",
"                 .%%+.+++%+.++++                ",
"                 .+.++.%+++.%+.+.               ",
"                 .+..+.+++.+%...&               ",
"                 .+..+*...*.....&               ",
"                 &&.+**=-=**.+.&&               ",
"                  &..;*===*;.+.&                ",
"                  &..;*===*;...&                ",
"                   ..===;===..>,                ",
"                  >'.)=====).'!>                ",
"                  >~.){{{{)..!>                 ",
"                   >..{{{{..]>                  ",
"                   ^^.{//{^^^^^                 ",
"                  ^(_{++/{(___(^                ",
"                  ^(_/~'+{(___(^                ",
"                  ^(_/!!+{(___(^                ",
"                  (((/++/{(((((                 ",
"                   =({///{((==                  ",
"                  ::(({<<{((=::                 ",
"                  :::({//{( ::::                ",
"                  ://[{//{[//:::                ",
"                 /////[[[[///:::                ",
"                ///////}/}///:::                ",
"               ///////}}/}}//:://               ",
"               //////}}/_/}/::://               ",
"              ///////}/___/}::////              ",
"              //////}}/___/}}}}}}}/             ",
"              /}}}}}}/_____}}}}}}}/             ",
"              ^}}}}}/______//////_^             ",
"             ^^_////_______________^            ",
"             ^_______________((__||^            ",
"            ^|1_(_____________((|1||^           ",
"            21|11____________|111|1|^           ",
"            2|1111||_______||11111||^           ",
"             2|11|1|||||||||1|1111|2            ",
"              2211|||||||||||111112             ",
"                211|||||||||1|1122              ",
"                 21|2 ::|||||112                ",
"                  22  ==3222222                 ",
"                      ==33                      ",
"                      ::                        "};
