/* XPM */
static char * left_xpm[] = {
"48 48 37 1",
" 	c None",
".	c #AD8F25",
"+	c #844608",
"@	c #FFD63A",
"#	c #3575D9",
"$	c #CC6600",
"%	c #FFF2C0",
"&	c #2C5594",
"*	c #193054",
"=	c #BD9F30",
"-	c #5D4F21",
";	c #CFAD34",
">	c #5D4F20",
",	c #726224",
"'	c #6C5650",
")	c #FFE7C5",
"!	c #31314F",
"~	c #FFFFFF",
"{	c #CDC3CB",
"]	c #470121",
"^	c #3A011D",
"/	c #2F4969",
"(	c #223D60",
"_	c #FF9EB3",
":	c #99004E",
"<	c #2A4465",
"[	c #BC0058",
"}	c #F8D448",
"|	c #186F85",
"1	c #1D96AB",
"2	c #1F3B5E",
"3	c #84E8FF",
"4	c #6BBBE3",
"5	c #59BCD9",
"6	c #497F97",
"7	c #BAF3FF",
"8	c #97C4E3",
"                                                ",
"                                                ",
"                      .....  +                  ",
"                 .....@@@@@.#$+                 ",
"                .@@%@@@%@@%@&*$+                ",
"                .=@@%%%%%@@@.$$+@%.             ",
"                 -=@@%%%%%%@@@..@%%.            ",
"                 .%%@@@@%%%@..@@.@%.            ",
"                 .%@;@.@@@@%@.@@..%.            ",
"                 .@@.;.@%@@%@...>..,            ",
"                 ....-...@%@@...>..>            ",
"                 .-')!-..;@@@...>..>            ",
"                 - ')!!-.;@@...>...>            ",
"                   ')!~{.;''...>...>            ",
"                   ')!~{.;{'..>...>             ",
"                   '))){.;{'->>.@.>             ",
"                     )){..]^  >..@>             ",
"                     '/(.._:^ >.@.>             ",
"                      <..^[:^ >..>              ",
"                   }||112|^^ >..@>              ",
"                  _[@1123334|>..>               ",
"                  ::@12433334|..>               ",
"                   }112433334|..>               ",
"                   |112443334|..>               ",
"                    ||2|4444|>..>               ",
"                    |125|))' >..>               ",
"                    |1255***|>>.>               ",
"                    |1|||***11>>>               ",
"                    ||111***111                 ",
"                   15511****1111                ",
"                  615511***11111                ",
"                 631555***1111111               ",
"                6331555**11111111               ",
"               6333315555111111111              ",
"               6333315555551111551              ",
"              633333315555555555516             ",
"              6733433315555555551446            ",
"             677744333311155551144446           ",
"             677887333333311114448886           ",
"            6777887333333343434888886           ",
"            6777888333333448348888886           ",
"            6778887873334448888888886           ",
"             67887877778788888888886            ",
"              666878778788888888886             ",
"               )*66777787888888866              ",
"              ***  6778788888866                ",
"                    6666666666                  ",
"                                                "};
