/* XPM */
static char * right_xpm[] = {
"48 48 37 1",
" 	c None",
".	c #844608",
"+	c #AD8F25",
"@	c #CC6600",
"#	c #3575D9",
"$	c #FFD63A",
"%	c #193054",
"&	c #2C5594",
"*	c #FFF2C0",
"=	c #BD9F30",
"-	c #5D4F21",
";	c #CFAD34",
">	c #726224",
",	c #5D4F20",
"'	c #31314F",
")	c #FFE7C5",
"!	c #6C5650",
"~	c #CDC3CB",
"{	c #FFFFFF",
"]	c #3A011D",
"^	c #470121",
"/	c #99004E",
"(	c #FF9EB3",
"_	c #223D60",
":	c #2F4969",
"<	c #BC0058",
"[	c #2A4465",
"}	c #186F85",
"|	c #1F3B5E",
"1	c #1D96AB",
"2	c #F8D448",
"3	c #6BBBE3",
"4	c #84E8FF",
"5	c #59BCD9",
"6	c #497F97",
"7	c #BAF3FF",
"8	c #97C4E3",
"                                                ",
"                                                ",
"                  .  +++++                      ",
"                 .@#+$$$$$+++++                 ",
"                .@%&$*$$*$$$*$$+                ",
"             +*$.@@+$$$*****$$=+                ",
"            +**$++$$$******$$=-                 ",
"            +*$+$$++$***$$$$**+                 ",
"            +*++$$+$*$$$$+$;$*+                 ",
"            >++,+++$*$$*$+;+$$+                 ",
"            ,++,+++$$*$+++-++++                 ",
"            ,++,+++$$$;++-')!-+                 ",
"            ,+++,+++$$;+-'')! -                 ",
"            ,+++,+++!!;+~{')!                   ",
"             ,+++,++!~;+~{')!                   ",
"             ,+$+,,-!~;+~)))!                   ",
"             ,$++,  ]^++~))                     ",
"             ,+$+, ]/(++_:!                     ",
"              ,++, ]/<]++[                      ",
"              ,$++, ]]}|11}}2                   ",
"               ,++,}3444|11$<(                  ",
"               ,++}344443|1$//                  ",
"               ,++}344443|112                   ",
"               ,++}344433|11}                   ",
"               ,++,}3333}|}}                    ",
"               ,++, !))}5|1}                    ",
"               ,+,,}%%%55|1}                    ",
"               ,,,11%%%}}}1}                    ",
"                 111%%%111}}                    ",
"                1111%%%%11551                   ",
"                11111%%%115516                  ",
"               1111111%%%555146                 ",
"               11111111%%5551446                ",
"              1111111115555144446               ",
"              1551111555555144446               ",
"             615555555555514444446              ",
"            6331555555555144434476              ",
"           633331155551114444337776             ",
"           688833311114444444788776             ",
"           6888883434344444447887776            ",
"           6888888348334444448887776            ",
"           6888888888333444787888776            ",
"            68888888888787777878876             ",
"             688888888887877878666              ",
"              66888888878777766%)               ",
"                6688888878776  %%%              ",
"                  6666666666                    ",
"                                                "};
