/* XPM */
static char * up_xpm[] = {
"48 48 22 1",
" 	c None",
".	c #AD8F25",
"+	c #FFF2C0",
"@	c #FFD63A",
"#	c #5D4F20",
"$	c #CDC3CB",
"%	c #3A011D",
"&	c #39011D",
"*	c #FF9EB3",
"=	c #BC0058",
"-	c #99004E",
";	c #497F97",
">	c #6BBBE3",
",	c #84E8FF",
"'	c #FFE7C5",
")	c #193054",
"!	c #1D96AB",
"~	c #155C73",
"{	c #59BCD9",
"]	c #BAF3FF",
"^	c #97C4E3",
"/	c #18799B",
"                      ....                      ",
"                     .+@+@.                     ",
"                    .+@+@@@.                    ",
"                    .@+@@@@.                    ",
"                   ..@@@@@@..                   ",
"                  .+.@@@@@@.+.                  ",
"                 .++@.@@@@@.@@.                 ",
"                 .+@+.@@@@@.@@.                 ",
"                .+@@@.@@@@..@@@.                ",
"                #@.@@@#.@@..@@@#                ",
"                #@..@@#.@...@@@#                ",
"                #@..@@#....@@.@#                ",
"                 #....#....#..#                 ",
"                 #$...#....#.$#                 ",
"                 #$...#@.@.#.$#                 ",
"                 #%...#.@..#.%                  ",
"                 &*=..#@.@.#*=%                 ",
"                 &--&.#.@..#--%                 ",
"                  &&..#....#%%                  ",
"                  ;;;;#...#>;;                  ",
"                 ;>,,,#...#>,>;                 ",
"                 ;>,,,>#..#>,>;                 ",
"                 ;>,,,>#..#>,>;                 ",
"                  >>>>>>#..#>>                  ",
"                  '''>,>#..#>'                  ",
"                 )))'>,>#..#>))                 ",
"                 ))))>,,>..#)))                 ",
"                 )))!!~,>##~!!)                 ",
"                 )))!!!~~~~!!!!                 ",
"                )))!!!!!!!!!!!!!                ",
"               )))!!!!!!!!!!!!!!!               ",
"               ))!!!!!!!!!!!!!!!!               ",
"              !!!!!!!!!!!!!!!!!!!!              ",
"             !{{{!!!!!!!!!!!!!!!!!              ",
"             !{{{{{!!!!!!!!!!{{{{!              ",
"             ;,!!{{{{!!!!!!{{{{{{;              ",
"            ;,,,,!{{{{{{{{{{{!!!,;;             ",
"            ;]],,>!!{{{{{{{{!,>,,,;             ",
"           ;]]]^>>,,!!!!!!!!,,>>,]];            ",
"           ;]]^]^^],,,,,,,,,,,>^]^]];           ",
"           ;]]]^^^]]],,,,,,,]]^^^]^];           ",
"           /]]^]^^]]]]]]]]]]]^^^^^]]/           ",
"           /]]^^^^]]]]]]]]]]]^^^^]^/            ",
"            ////^^]]]]]]]]]]]^^^^^/             ",
"                //]]]]]]]]]]]^^^//              ",
"                  /]]]]]]]]]]^//                ",
"                  /]]]]]]]]]]/                  ",
"                   //////////                   "};
