/* XPM */
static char *_ef3699053ee479ae0667d078faebc373hdvCQ6qlihz6Dgi[] = {
/* columns rows colors chars-per-pixel */
"48 48 152 2 ",
"   c None",
".  c #B8CA79",
"X  c #C9CF7C",
"o  c #D6D976",
"O  c #DDD97B",
"+  c #E5DF75",
"@  c #E0DF7D",
"#  c #E8E175",
"$  c #ECE674",
"%  c #E4E27E",
"&  c #E8E37D",
"*  c #ECE57E",
"=  c #F0EB78",
"-  c #CAA388",
";  c #D2BAA5",
":  c #C2D280",
">  c #DEDE80",
",  c #C8D89C",
"<  c #D6E196",
"1  c #E0E081",
"2  c #E5E68B",
"3  c #E1E58C",
"4  c #EEEC89",
"5  c #F1EA81",
"6  c #F7EE80",
"7  c #F7F083",
"8  c #F7F087",
"9  c #F9F184",
"0  c #F8F287",
"q  c #F9F484",
"w  c #FBF785",
"e  c #F4F28A",
"r  c #F5F48D",
"t  c #F8F28A",
"y  c #F9F488",
"u  c #F9F489",
"i  c #F9F688",
"p  c #F9F689",
"a  c #FAF78A",
"s  c #FDF488",
"d  c #F8F48D",
"f  c #FAF68C",
"g  c #FBF88B",
"h  c #FDFC89",
"j  c #FFFE8B",
"k  c #FBFA8D",
"l  c #FBF98E",
"z  c #FCFB8E",
"x  c #FDFB8F",
"c  c #FEFB8F",
"v  c #E5EE97",
"b  c #F1F393",
"n  c #F3F392",
"m  c #F7F693",
"M  c #F7F793",
"N  c #F2F295",
"B  c #F6F694",
"V  c #F6F695",
"C  c #F4F596",
"Z  c #F8F893",
"A  c #FEFD90",
"S  c #FFFD91",
"D  c #FDFE91",
"F  c #FEFF93",
"G  c #D6C1A2",
"H  c #D8C5A6",
"J  c #D5DFA2",
"K  c #D8C9B4",
"L  c #F5CAA7",
"P  c #F7C3AE",
"I  c #F8C4AD",
"U  c #F8C4AF",
"Y  c #F5CFAA",
"T  c #F9C9AF",
"R  c #EFD6A8",
"E  c #EADBAE",
"W  c #F3D0AD",
"Q  c #F7C5B0",
"!  c #F2C7B5",
"~  c #F1CEB0",
"^  c #F9CDB1",
"/  c #F3C8B9",
"(  c #F3CCB8",
")  c #FACBBC",
"_  c #E3DCBE",
"`  c #F4D6B3",
"'  c #F0D5B4",
"]  c #F3D7B4",
"[  c #F8D2B2",
"{  c #F2DFB0",
"}  c #DAE8A0",
"|  c #CEEABA",
" . c #D7EBB8",
".. c #E9EEB2",
"X. c #ECE7B9",
"o. c #F1E6BD",
"O. c #F6EFBF",
"+. c #B9E2CF",
"@. c #DED8C6",
"#. c #F7CBC0",
"$. c #F5CEC3",
"%. c #F8CEC4",
"&. c #C9E3C9",
"*. c #C4EFD3",
"=. c #CEEDD6",
"-. c #DCECD8",
";. c #E9E7CB",
":. c #E4EDCC",
">. c #F0EFC5",
",. c #E4F0C8",
"<. c #F4F1C0",
"1. c #F6F1C0",
"2. c #F2F1C7",
"3. c #F9F5C3",
"4. c #F5F5C8",
"5. c #E5E7D3",
"6. c #F6F2D1",
"7. c #F8F6D2",
"8. c #FBF9D1",
"9. c #FEFED4",
"0. c #F8F7D8",
"q. c #CCEFEA",
"w. c #C4F0E4",
"e. c #DBF5E7",
"r. c #C4F1F2",
"t. c #C4F5F2",
"y. c #C9F4F3",
"u. c #CEF5F2",
"i. c #CAF6F6",
"p. c #CCF4F4",
"a. c #CBF7F9",
"s. c #C4F8FA",
"d. c #C8F9FD",
"f. c #CAFAFD",
"g. c #CEFAFC",
"h. c #CFFBFC",
"j. c #D3F6F1",
"k. c #DEF9F7",
"l. c #DEFBF7",
"z. c #D0FBFA",
"x. c #D6FCF8",
"c. c #D3FDFD",
"v. c #D7FEFD",
"b. c #D8FFFE",
"n. c #D9FFFF",
"m. c #E8F4EE",
"M. c #F0F6E7",
"N. c #FCFCE1",
"B. c #F1F4E8",
"V. c #FAFAEA",
"C. c #E9F8F4",
"Z. c #F7F8F1",
/* pixels */
"                                                                                                ",
"                                                  (                                             ",
"                                                  %.                                            ",
"                                                  ) (                                           ",
"                                                ( ^ U                                           ",
"                                                ] [ T                                           ",
"                                                ` [ T ~                                         ",
"                                              ~ L Y L P                                         ",
"                                              o.{ E E ]                                         ",
"                                                1.3.O.o.                                        ",
"                                      !         >.E 6.                                          ",
"                                      $./       _ - K                                           ",
"                                      ) P       _ G @.                                          ",
"                                      [ U       4.8.N.                                          ",
"                                    ] [ T       4.9.N.          !                               ",
"                                    ] [ ^ Q     4.9.N.          #.                              ",
"                                    Y Y L U     4.8.N.        ( )                               ",
"                                    { R R `     5.M.M.        ] U !                             ",
"                                    1.3.O.2.    q.b.k.m.      ` ^ P                             ",
"                                    2.X.O.0.    c.b.b.x.    ~ [ ^ U                             ",
"                                    ;.- ; m.  z.b.v.v.c.p.  W Y Y T                             ",
"                                    ;.H K B.i.v.b.v.v.c.g.  ] R R W Y                           ",
"                                    2.3.3.-.g.b.b.b.v.v.d.r...O.O.1.                            ",
"                                    2.3.X.w.b.b.b.b.v.g.d.a.:.1.X.7.                            ",
"                                    2.3.&.v.b.b.v.v.d.d.d.s.j.G - 5.                            ",
"                                    k.e.p.b.b.v.b.v.d.d.d.d.j.H - 5.                            ",
"                                  y.b.b.v.v.v.v.v.c.d.d.d.d.s.,.6.V.                            ",
"                                  z.b.b.g.d.d.z.b.c.t.+.s.d.d.e.N.V.                            ",
"                                  b.b.c.d.d.d.b.v.c.+.: *.d.d.p.M.Z.                            ",
"                                j.b.b.g.d.d.z.b.v.i., 1 < w.d.s.k.Z.                            ",
"                                x.e.u.w.w.s.g.v.v.&.2 6 6 } t.d.c.C.                            ",
"                              p.,.C < 2 2 *.d.v.p.} 0 l i 5 | s.d.C.                            ",
"                               .d 0 7 s = v =.=.J 4 i l l 0 e *.s.a.                            ",
"                            ..C i u l z g 0 4 5 7 0 i A A l 6 2 w.+.X                           ",
"                            Z g i f A F A l i l l u u l A A d 6 } < * * & @ O                   ",
"                          C g u e g F F F F F F A l 6 l l A l u 6 8 i f 0 6 * %                 ",
"                          B f e e A A F F F F F A l u u g A A A A f A A A l l 5 1               ",
"                        N A 0 0 A F F F F F F F F A g u g A A A A A A A A A l u *               ",
"                        Z i a z F F F F A l f A F F A u r l l f A A A A A A A l 6 %             ",
"                n       l g 0 z A g A A l i d s A F A f e 0 u u 8 M A A A A A A f 5 >           ",
"              M i r   B i 0 l l u u u u u d d t A D D A 8 8 8 u 8 u A A A A A A l u &           ",
"            n f i 0 e d u e z l 8 t t t t u t 8 e D D F i 0 0 e u u f A A A A A A a 5 %         ",
"          Z l f f u f u q g A z i u l l d d a t f g F F g u f g i u u g A A A A A A u * 3       ",
"        V l i 0 u f u u 0 A A g u l A A A A l l e f A F A g g A f u 0 u A A A A A A l 7 %       ",
"      r z i 0 0 u f i 0 g A g e t l A A A A A g u d f A F F F F A f 8 8 a A A A A A z g 5 1     ",
"    n l g 0 0 0 u u i 0 g g i 8 s A A A A A A z f 6 u A F A F F F A i 8 0 l A A A A A l 0 *     ",
"  B l j w 0 0 0 6 6 7 7 6 0 6 6 6 a s s a a 0 s 0 8 6 0 j j j j j j 0 q 7 7 s s a s s s 0 * @   ",
"3 4 = = = $ $ $ + + + + + + + + + + + + + + + # # # # $ = = = = = = = $ $ # + + + + + + + o : . "
};
